{
.appVersion = "1354";
classes = (
{
code = "zero.osf\012one.osf\012two.osf\012three.osf\012four.osf\012five.osf\012six.osf\012seven.osf\012eight.osf\012nine.osf\012zero.osf.zero\012";
name = PropOld;
},
{
code = "zero.lf\012one.lf\012two.lf\012three.lf\012four.lf\012five.lf\012six.lf\012seven.lf\012eight.lf\012nine.lf\012zero.lf.zero\012";
name = PropLining;
},
{
code = "zero.psc\012one.psc\012two.psc\012three.psc\012four.psc\012five.psc\012six.psc\012seven.psc\012eight.psc\012nine.psc\012zero.psc.zero";
name = PropSmallcap;
},
{
code = "zero.tosf\012one.tosf\012two.tosf\012three.tosf\012four.tosf\012five.tosf\012six.tosf\012seven.tosf\012eight.tosf\012nine.tosf\012zero.tosf.zero";
name = TabOld;
},
{
code = "zero\012one\012two\012three\012four\012five\012six\012seven\012eight\012nine\012zero.zero";
name = TabLining;
},
{
code = "zero.tsc\012one.tsc\012two.tsc\012three.tsc\012four.tsc\012five.tsc\012six.tsc\012seven.tsc\012eight.tsc\012nine.tsc\012zero.tsc.zero";
name = TabSmallcap;
},
{
code = "zero\012one\012two\012three\012four\012five\012six\012seven\012eight\012nine\012\012a\012b\012c\012d\012e\012f\012g\012h\012i\012j\012k\012l\012m\012n\012o\012p\012q\012r\012s\012t\012u\012v\012w\012x\012y\012z\012\012hyphen\012parenleft\012parenright\012period\012comma\012cent\012dollar\012euro\012plus\012minus\012equal";
name = smallFiguresOFF;
},
{

glyphs = (
{
color = 9;
glyphname = A;
lastChange = "2020-07-10 12:18:07 +0000";
layers = (
{
anchors = (
{
name = bottom;
position = "{368, 0}";
},
{
name = ogonek;
position = "{668, 0}";
},
{
name = top;
position = "{410, 720}";
}
);
color = 4;
layerId = "F2028F70-0529-41D4-9F63-024EA79743CD";
paths = (
{
closed = 1;
nodes = (
"240 0 LINE",
"316 460 LINE SMOOTH",
"326 523 OFFCURVE",
"356 552 OFFCURVE",
"432 552 CURVE SMOOTH",
"451 552 OFFCURVE",
"480 550 OFFCURVE",
"493 548 CURVE",
"467 598 LINE",
"460 569 OFFCURVE",
"456 532 OFFCURVE",
"456 488 CURVE SMOOTH",
"456 0 LINE",
"668 0 LINE",
"668 536 LINE SMOOTH",
"668 576 OFFCURVE",
"668 660 OFFCURVE",
"676 696 CURVE",
"674 708 LINE",
"620 720 OFFCURVE",
"540 728 OFFCURVE",
"480 728 CURVE SMOOTH",
"288 728 OFFCURVE",
"147 697 OFFCURVE",
"108 468 CURVE SMOOTH",
"28 0 LINE"
);
},
{
closed = 1;
nodes = (
"556 168 LINE",
"556 336 LINE",
"168 336 LINE",
"168 168 LINE"
);
}
);
width = 736;
},
{
anchors = (
{
name = bottom;
position = "{331, 0}";
},
{
name = ogonek;
position = "{566, 10}";
},
{
name = top;
position = "{377, 720}";
}
);
color = 4;
layerId = "3E005A84-7828-4122-B6E8-61930BD9836F";
paths = (
{
closed = 1;
nodes = (
"146 0 LINE",
"226 480 LINE SMOOTH",
"245 591 OFFCURVE",
"286 644 OFFCURVE",
"418 644 CURVE SMOOTH",
"447 644 OFFCURVE",
"473 642 OFFCURVE",
"490 634 CURVE",
"474 663 LINE",
"470 642 OFFCURVE",
"470 618 OFFCURVE",
"470 592 CURVE SMOOTH",
"470 0 LINE",
"566 0 LINE",
"566 540 LINE SMOOTH",
"566 580 OFFCURVE",
"566 660 OFFCURVE",
"572 700 CURVE",
"570 712 LINE",
"518 724 OFFCURVE",
"470 728 OFFCURVE",
"422 728 CURVE SMOOTH",
"222 728 OFFCURVE",
"155 640 OFFCURVE",
"128 480 CURVE SMOOTH",
"48 0 LINE"
);
},
{
closed = 1;
nodes = (
"510 220 LINE",
"510 304 LINE",
"148 304 LINE",
"148 220 LINE"
);
}
);
width = 662;
}
);
leftKerningGroup = A;
note = A;
rightKerningGroup = A;
unicode = 0041;
},
{
glyphname = AE;
lastChange = "2020-07-10 12:18:07 +0000";
layers = (
{
anchors = (
{
name = bottom;
position = "{500, 0}";
},
{
name = top;
position = "{500, 720}";
}
);
color = 4;
layerId = "F2028F70-0529-41D4-9F63-024EA79743CD";
paths = (
{
closed = 1;
nodes = (
"240 0 LINE",
"316 460 LINE SMOOTH",
"326 523 OFFCURVE",
"356 552 OFFCURVE",
"432 552 CURVE SMOOTH",
"451 552 OFFCURVE",
"480 550 OFFCURVE",
"493 548 CURVE",
"467 598 LINE",
"460 569 OFFCURVE",
"456 532 OFFCURVE",
"456 488 CURVE SMOOTH",
"456 0 LINE",
"668 0 LINE",
"668 536 LINE SMOOTH",
"668 576 OFFCURVE",
"668 660 OFFCURVE",
"676 696 CURVE",
"674 708 LINE",
"620 720 OFFCURVE",
"540 728 OFFCURVE",
"480 728 CURVE SMOOTH",
"288 728 OFFCURVE",
"147 697 OFFCURVE",
"108 468 CURVE SMOOTH",
"28 0 LINE"
);
},
{
closed = 1;
nodes = (
"556 168 LINE",
"556 336 LINE",
"168 336 LINE",
"168 168 LINE"
);
},
{
closed = 1;
nodes = (
"952 0 LINE",
"952 184 LINE",
"568 184 LINE",
"568 0 LINE"
);
},
{
closed = 1;
nodes = (
"896 268 LINE",
"896 440 LINE",
"568 440 LINE",
"568 268 LINE"
);
},
{
closed = 1;
nodes = (
"944 536 LINE",
"944 720 LINE",
"568 720 LINE",
"568 536 LINE"
);
}
);
width = 1000;
},
{
anchors = (
{
name = bottom;
position = "{495, 0}";
},
{
name = top;
position = "{495, 720}";
}
);
color = 4;
layerId = "3E005A84-7828-4122-B6E8-61930BD9836F";
paths = (
{
closed = 1;
nodes = (
"144 0 LINE",
"224 480 LINE SMOOTH",
"243 591 OFFCURVE",
"284 644 OFFCURVE",
"416 644 CURVE SMOOTH",
"445 644 OFFCURVE",
"471 642 OFFCURVE",
"488 634 CURVE",
"472 663 LINE",
"468 642 OFFCURVE",
"468 618 OFFCURVE",
"468 592 CURVE SMOOTH",
"468 0 LINE",
"564 0 LINE",
"564 540 LINE SMOOTH",
"564 580 OFFCURVE",
"564 660 OFFCURVE",
"570 700 CURVE",
"568 712 LINE",
"516 724 OFFCURVE",
"468 728 OFFCURVE",
"420 728 CURVE SMOOTH",
"220 728 OFFCURVE",
"153 640 OFFCURVE",
"126 480 CURVE SMOOTH",
"46 0 LINE"
);
},
{
closed = 1;
nodes = (
"508 220 LINE",
"508 304 LINE",
"146 304 LINE",
"146 220 LINE"
);
},
{
closed = 1;
nodes = (
"936 0 LINE",
"936 84 LINE",
"524 84 LINE",
"524 0 LINE"
);
},
{
closed = 1;
nodes = (
"868 336 LINE",
"868 420 LINE",
"524 420 LINE",
"524 336 LINE"
);
},
{
closed = 1;
nodes = (
"924 636 LINE",
"924 720 LINE",
"524 720 LINE",
"524 636 LINE"
);
}
);
width = 990;
}
);
leftKerningGroup = A;
note = AE;
rightKerningGroup = E;
unicode = 00C6;
},
{
glyphname = B;
lastChange = "2020-07-10 12:18:07 +0000";
layers = (
{
anchors = (
{
name = bottom;
position = "{352, 0}";
},
{
name = top;
position = "{352, 720}";
}
);
color = 4;
layerId = "F2028F70-0529-41D4-9F63-024EA79743CD";
paths = (
{
closed = 1;
nodes = (
"408 0 LINE SMOOTH",
"568 0 OFFCURVE",
"664 64 OFFCURVE",
"664 192 CURVE SMOOTH",
"664 281 OFFCURVE",
"601 350 OFFCURVE",
"485 356 CURVE",
"494 315 LINE",
"598 347 OFFCURVE",
"652 432 OFFCURVE",
"652 516 CURVE SMOOTH",
"652 648 OFFCURVE",
"564 720 OFFCURVE",
"382 720 CURVE SMOOTH",
"180 720 LINE",
"180 548 LINE",
"364 548 LINE SMOOTH",
"404 548 OFFCURVE",
"440 536 OFFCURVE",
"440 484 CURVE SMOOTH",
"440 440 OFFCURVE",
"412 404 OFFCURVE",
"356 404 CURVE SMOOTH",
"180 404 LINE",
"180 256 LINE",
"400 256 LINE SMOOTH",
"432 256 OFFCURVE",
"452 240 OFFCURVE",
"452 212 CURVE SMOOTH",
"452 180 OFFCURVE",
"432 164 OFFCURVE",
"400 164 CURVE SMOOTH",
"180 164 LINE",
"180 0 LINE"
);
},
{
closed = 1;
nodes = (
"280 0 LINE",
"280 720 LINE",
"68 720 LINE",
"68 0 LINE"
);
}
);
width = 704;
},
{
anchors = (
{
name = bottom;
position = "{320, 0}";
},
{
name = top;
position = "{320, 720}";
}
);
color = 4;
layerId = "3E005A84-7828-4122-B6E8-61930BD9836F";
paths = (
{
closed = 1;
nodes = (
"380 0 LINE SMOOTH",
"528 0 OFFCURVE",
"584 92 OFFCURVE",
"584 184 CURVE SMOOTH",
"584 266 OFFCURVE",
"536 324 OFFCURVE",
"449 340 CURVE",
"454 320 LINE",
"532 359 OFFCURVE",
"572 443 OFFCURVE",
"572 524 CURVE SMOOTH",
"572 656 OFFCURVE",
"496 720 OFFCURVE",
"348 720 CURVE SMOOTH",
"152 720 LINE",
"152 636 LINE",
"348 636 LINE SMOOTH",
"428 636 OFFCURVE",
"476 608 OFFCURVE",
"476 524 CURVE SMOOTH",
"476 440 OFFCURVE",
"432 364 OFFCURVE",
"340 364 CURVE SMOOTH",
"152 364 LINE",
"152 280 LINE",
"376 280 LINE SMOOTH",
"440 280 OFFCURVE",
"488 256 OFFCURVE",
"488 184 CURVE SMOOTH",
"488 108 OFFCURVE",
"436 84 OFFCURVE",
"376 84 CURVE SMOOTH",
"152 84 LINE",
"152 0 LINE"
);
},
{
closed = 1;
nodes = (
"192 0 LINE",
"192 720 LINE",
"96 720 LINE",
"96 0 LINE"
);
}
);
width = 640;
}
);
leftKerningGroup = B;
note = B;
rightKerningGroup = B;
unicode = 0042;
},
{
glyphname = C;
lastChange = "2020-07-10 12:18:07 +0000";
layers = (
{
anchors = (
{
name = bottom;
position = "{388, 0}";
},
{
name = top;
position = "{388, 720}";
}
);
color = 4;
layerId = "F2028F70-0529-41D4-9F63-024EA79743CD";
paths = (
{
closed = 1;
nodes = (
"36 132 OFFCURVE",
"172 -12 OFFCURVE",
"448 -12 CURVE SMOOTH",
"516 -12 OFFCURVE",
"576 0 OFFCURVE",
"604 12 CURVE",
"604 190 LINE",
"592 190 LINE",
"564 176 OFFCURVE",
"516 164 OFFCURVE",
"464 164 CURVE SMOOTH",
"308 164 OFFCURVE",
"252 248 OFFCURVE",
"252 360 CURVE SMOOTH",
"252 472 OFFCURVE",
"308 556 OFFCURVE",
"464 556 CURVE SMOOTH",
"516 556 OFFCURVE",
"564 544 OFFCURVE",
"592 530 CURVE",
"604 530 LINE",
"604 708 LINE",
"576 720 OFFCURVE",
"516 732 OFFCURVE",
"448 732 CURVE SMOOTH",
"172 732 OFFCURVE",
"36 588 OFFCURVE",
"36 360 CURVE SMOOTH"
);
}
);
width = 648;
},
{
anchors = (
{
name = bottom;
position = "{384, 0}";
},
{
name = top;
position = "{384, 720}";
}
);
color = 4;
layerId = "3E005A84-7828-4122-B6E8-61930BD9836F";
paths = (
{
closed = 1;
nodes = (
"56 128 OFFCURVE",
"188 -12 OFFCURVE",
"420 -12 CURVE SMOOTH",
"488 -12 OFFCURVE",
"540 0 OFFCURVE",
"580 20 CURVE",
"580 112 LINE",
"572 112 LINE",
"532 88 OFFCURVE",
"480 76 OFFCURVE",
"420 76 CURVE SMOOTH",
"260 76 OFFCURVE",
"156 168 OFFCURVE",
"156 360 CURVE SMOOTH",
"156 552 OFFCURVE",
"260 644 OFFCURVE",
"420 644 CURVE SMOOTH",
"480 644 OFFCURVE",
"532 632 OFFCURVE",
"572 608 CURVE",
"580 608 LINE",
"580 700 LINE",
"540 720 OFFCURVE",
"488 732 OFFCURVE",
"420 732 CURVE SMOOTH",
"188 732 OFFCURVE",
"56 584 OFFCURVE",
"56 360 CURVE SMOOTH"
);
}
);
width = 648;
}
);
leftKerningGroup = C;
note = C;
rightKerningGroup = C;
unicode = 0043;
},
{
glyphname = D;
lastChange = "2020-07-10 12:18:07 +0000";
layers = (
{
anchors = (
{
name = bottom;
position = "{390, 0}";
},
{
name = center;
position = "{182, 366}";
},
{
name = top;
position = "{390, 720}";
}
);
color = 4;
layerId = "F2028F70-0529-41D4-9F63-024EA79743CD";
paths = (
{
closed = 1;
nodes = (
"328 0 LINE SMOOTH",
"620 0 OFFCURVE",
"744 176 OFFCURVE",
"744 392 CURVE SMOOTH",
"744 600 OFFCURVE",
"616 720 OFFCURVE",
"360 720 CURVE SMOOTH",
"180 720 LINE",
"180 536 LINE",
"360 536 LINE SMOOTH",
"484 536 OFFCURVE",
"528 480 OFFCURVE",
"528 388 CURVE SMOOTH",
"528 264 OFFCURVE",
"464 184 OFFCURVE",
"340 184 CURVE SMOOTH",
"180 184 LINE",
"180 0 LINE"
);
},
{
closed = 1;
nodes = (
"280 0 LINE",
"280 720 LINE",
"68 720 LINE",
"68 0 LINE"
);
}
);
width = 780;
},
{
anchors = (
{
name = bottom;
position = "{360, 0}";
},
{
name = center;
position = "{160, 372}";
},
{
name = top;
position = "{360, 720}";
}
);
color = 4;
layerId = "3E005A84-7828-4122-B6E8-61930BD9836F";
paths = (
{
closed = 1;
nodes = (
"312 0 LINE SMOOTH",
"572 0 OFFCURVE",
"664 200 OFFCURVE",
"664 400 CURVE SMOOTH",
"664 612 OFFCURVE",
"548 720 OFFCURVE",
"336 720 CURVE SMOOTH",
"152 720 LINE",
"152 636 LINE",
"336 636 LINE SMOOTH",
"488 636 OFFCURVE",
"564 556 OFFCURVE",
"564 400 CURVE SMOOTH",
"564 256 OFFCURVE",
"508 84 OFFCURVE",
"312 84 CURVE SMOOTH",
"152 84 LINE",
"152 0 LINE"
);
},
{
closed = 1;
nodes = (
"192 0 LINE",
"192 720 LINE",
"96 720 LINE",
"96 0 LINE"
);
}
);
width = 720;
}
);
leftKerningGroup = B;
note = D;
rightKerningGroup = D;
unicode = 0044;
},
{
glyphname = E;
lastChange = "2020-07-10 12:18:07 +0000";
layers = (
{
anchors = (
{
name = bottom;
position = "{306, 0}";
},
{
name = ogonek;
position = "{564, 0}";
},
{
name = top;
position = "{306, 720}";
},
{
name = topleft;
position = "{20, 720}";
}
);
color = 4;
layerId = "F2028F70-0529-41D4-9F63-024EA79743CD";
paths = (
{
closed = 1;
nodes = (
"280 0 LINE",
"280 720 LINE",
"68 720 LINE",
"68 0 LINE"
);
},
{
closed = 1;
nodes = (
"564 0 LINE",
"564 184 LINE",
"180 184 LINE",
"180 0 LINE"
);
},
{
closed = 1;
nodes = (
"508 268 LINE",
"508 440 LINE",
"180 440 LINE",
"180 268 LINE"
);
},
{
closed = 1;
nodes = (
"556 536 LINE",
"556 720 LINE",
"180 720 LINE",
"180 536 LINE"
);
}
);
width = 612;
},
{
anchors = (
{
name = bottom;
position = "{308, 0}";
},
{
name = ogonek;
position = "{564, 0}";
},
{
name = top;
position = "{308, 720}";
},
{
name = topleft;
position = "{20, 720}";
}
);
color = 4;
layerId = "3E005A84-7828-4122-B6E8-61930BD9836F";
paths = (
{
closed = 1;
nodes = (
"192 0 LINE",
"192 720 LINE",
"96 720 LINE",
"96 0 LINE"
);
},
{
closed = 1;
nodes = (
"564 0 LINE",
"564 84 LINE",
"152 84 LINE",
"152 0 LINE"
);
},
{
closed = 1;
nodes = (
"496 336 LINE",
"496 420 LINE",
"152 420 LINE",
"152 336 LINE"
);
},
{
closed = 1;
nodes = (
"552 636 LINE",
"552 720 LINE",
"152 720 LINE",
"152 636 LINE"
);
}
);
width = 616;
}
);
leftKerningGroup = B;
note = E;
rightKerningGroup = E;
unicode = 0045;
},
{
glyphname = F;
lastChange = "2020-07-10 12:18:07 +0000";
layers = (
{
anchors = (
{
name = bottom;
position = "{294, 0}";
},
{
name = top;
position = "{294, 720}";
}
);
color = 4;
layerId = "F2028F70-0529-41D4-9F63-024EA79743CD";
paths = (
{
closed = 1;
nodes = (
"280 0 LINE",
"280 720 LINE",
"68 720 LINE",
"68 0 LINE"
);
},
{
closed = 1;
nodes = (
"508 216 LINE",
"508 388 LINE",
"180 388 LINE",
"180 216 LINE"
);
},
{
closed = 1;
nodes = (
"556 536 LINE",
"556 720 LINE",
"180 720 LINE",
"180 536 LINE"
);
}
);
width = 588;
},
{
anchors = (
{
name = bottom;
position = "{286, 0}";
},
{
name = top;
position = "{286, 720}";
}
);
color = 4;
layerId = "3E005A84-7828-4122-B6E8-61930BD9836F";
paths = (
{
closed = 1;
nodes = (
"192 0 LINE",
"192 720 LINE",
"96 720 LINE",
"96 0 LINE"
);
},
{
closed = 1;
nodes = (
"484 280 LINE",
"484 364 LINE",
"152 364 LINE",
"152 280 LINE"
);
},
{
closed = 1;
nodes = (
"540 636 LINE",
"540 720 LINE",
"152 720 LINE",
"152 636 LINE"
);
}
);
width = 572;
}
);
leftKerningGroup = B;
note = F;
rightKerningGroup = F;
unicode = 0046;
},
{
glyphname = G;
lastChange = "2020-07-10 12:18:07 +0000";
layers = (
{
anchors = (
{
name = bottom;
position = "{364, 0}";
},
{
name = top;
position = "{364, 720}";
}
);
color = 4;
layerId = "F2028F70-0529-41D4-9F63-024EA79743CD";
paths = (
{
closed = 1;
nodes = (
"36 136 OFFCURVE",
"168 -12 OFFCURVE",
"428 -12 CURVE SMOOTH",
"526 -12 OFFCURVE",
"608 4 OFFCURVE",
"664 28 CURVE",
"664 370 LINE",
"472 370 LINE",
"472 78 LINE",
"510 192 LINE",
"492 166 OFFCURVE",
"471 160 OFFCURVE",
"432 160 CURVE SMOOTH",
"322 160 OFFCURVE",
"252 240 OFFCURVE",
"252 352 CURVE SMOOTH",
"252 480 OFFCURVE",
"320 556 OFFCURVE",
"476 556 CURVE SMOOTH",
"534 556 OFFCURVE",
"592 544 OFFCURVE",
"620 530 CURVE",
"632 530 LINE",
"632 708 LINE",
"604 720 OFFCURVE",
"540 732 OFFCURVE",
"466 732 CURVE SMOOTH",
"184 732 OFFCURVE",
"36 576 OFFCURVE",
"36 356 CURVE SMOOTH"
);
}
);
width = 728;
},
{
anchors = (
{
name = bottom;
position = "{342, 0}";
},
{
name = top;
position = "{342, 720}";
}
);
color = 4;
layerId = "3E005A84-7828-4122-B6E8-61930BD9836F";
paths = (
{
closed = 1;
nodes = (
"56 136 OFFCURVE",
"176 -12 OFFCURVE",
"420 -12 CURVE SMOOTH",
"492 -12 OFFCURVE",
"560 4 OFFCURVE",
"604 28 CURVE",
"604 364 LINE",
"508 364 LINE",
"508 46 LINE",
"530 90 LINE",
"498 80 OFFCURVE",
"460 72 OFFCURVE",
"420 72 CURVE SMOOTH",
"256 72 OFFCURVE",
"156 160 OFFCURVE",
"156 360 CURVE SMOOTH",
"156 556 OFFCURVE",
"260 644 OFFCURVE",
"428 644 CURVE SMOOTH",
"496 644 OFFCURVE",
"552 626 OFFCURVE",
"588 608 CURVE",
"596 608 LINE",
"596 700 LINE",
"556 720 OFFCURVE",
"500 732 OFFCURVE",
"428 732 CURVE SMOOTH",
"192 732 OFFCURVE",
"56 584 OFFCURVE",
"56 360 CURVE SMOOTH"
);
}
);
width = 684;
}
);
leftKerningGroup = C;
note = G;
rightKerningGroup = G;
unicode = 0047;
},
{
glyphname = H;
lastChange = "2020-07-10 12:18:07 +0000";
layers = (
{
anchors = (
{
name = bottom;
position = "{392, 0}";
},
{
name = center;
position = "{392, 574}";
},
{
name = top;
position = "{392, 720}";
},
{
name = topleft;
position = "{20, 720}";
}
);
color = 4;
layerId = "F2028F70-0529-41D4-9F63-024EA79743CD";
paths = (
{
closed = 1;
nodes = (
"716 0 LINE",
"716 720 LINE",
"504 720 LINE",
"504 0 LINE"
);
},
{
closed = 1;
nodes = (
"280 0 LINE",
"280 720 LINE",
"68 720 LINE",
"68 0 LINE"
);
},
{
closed = 1;
nodes = (
"604 264 LINE",
"604 448 LINE",
"180 448 LINE",
"180 264 LINE"
);
}
);
width = 784;
},
{
anchors = (
{
name = bottom;
position = "{368, 0}";
},
{
name = center;
position = "{368, 580}";
},
{
name = top;
position = "{368, 720}";
},
{
name = topleft;
position = "{20, 720}";
}
);
color = 4;
layerId = "3E005A84-7828-4122-B6E8-61930BD9836F";
paths = (
{
closed = 1;
nodes = (
"640 0 LINE",
"640 720 LINE",
"544 720 LINE",
"544 0 LINE"
);
},
{
closed = 1;
nodes = (
"192 0 LINE",
"192 720 LINE",
"96 720 LINE",
"96 0 LINE"
);
},
{
closed = 1;
nodes = (
"584 332 LINE",
"584 416 LINE",
"152 416 LINE",
"152 332 LINE"
);
}
);
width = 736;
}
);
leftKerningGroup = B;
note = H;
rightKerningGroup = A;
unicode = 0048;
},
{
glyphname = I;
lastChange = "2020-07-10 12:18:07 +0000";
layers = (
{
anchors = (
{
name = bottom;
position = "{174, 0}";
},
{
name = ogonek;
position = "{280, 0}";
},
{
name = top;
position = "{174, 720}";
},
{
name = topleft;
position = "{20, 720}";
}
);
color = 4;
layerId = "F2028F70-0529-41D4-9F63-024EA79743CD";
paths = (
{
closed = 1;
nodes = (
"68 0 LINE",
"280 0 LINE",
"280 720 LINE",
"68 720 LINE"
);
}
);
width = 348;
},
{
anchors = (
{
name = bottom;
position = "{144, 0}";
},
{
name = ogonek;
position = "{192, 0}";
},
{
name = top;
position = "{144, 720}";
},
{
name = topleft;
position = "{20, 720}";
}
);
color = 4;
layerId = "3E005A84-7828-4122-B6E8-61930BD9836F";
paths = (
{
closed = 1;
nodes = (
"96 0 LINE",
"192 0 LINE",
"192 720 LINE",
"96 720 LINE"
);
}
);
width = 288;
}
);
leftKerningGroup = B;
note = I;
rightKerningGroup = A;
unicode = 0049;
},
{
color = 4;
glyphname = IJ;
lastChange = "2020-07-10 12:18:08 +0000";
layers = (
{
layerId = "F2028F70-0529-41D4-9F63-024EA79743CD";
paths = (
{
closed = 1;
nodes = (
"68 0 LINE",
"280 0 LINE",
"280 720 LINE",
"68 720 LINE"
);
},
{
closed = 1;
nodes = (
"372 0 LINE",
"400 -8 OFFCURVE",
"444 -12 OFFCURVE",
"484 -12 CURVE SMOOTH",
"640 -12 OFFCURVE",
"768 56 OFFCURVE",
"768 244 CURVE SMOOTH",
"768 720 LINE",
"556 720 LINE",
"556 260 LINE SMOOTH",
"556 188 OFFCURVE",
"520 160 OFFCURVE",
"448 160 CURVE SMOOTH",
"420 160 OFFCURVE",
"404 164 OFFCURVE",
"384 172 CURVE",
"372 172 LINE"
);
}
);
width = 832;
},
{
layerId = "3E005A84-7828-4122-B6E8-61930BD9836F";
paths = (
{
closed = 1;
nodes = (
"96 0 LINE",
"192 0 LINE",
"192 720 LINE",
"96 720 LINE"
);
},
{
closed = 1;
nodes = (
"300 0 LINE",
"324 -6 OFFCURVE",
"364 -12 OFFCURVE",
"400 -12 CURVE SMOOTH",
"544 -12 OFFCURVE",
"620 72 OFFCURVE",
"620 204 CURVE SMOOTH",
"620 720 LINE",
"524 720 LINE",
"524 192 LINE SMOOTH",
"524 116 OFFCURVE",
"480 72 OFFCURVE",
"400 72 CURVE SMOOTH",
"372 72 OFFCURVE",
"324 78 OFFCURVE",
"308 84 CURVE",
"300 84 LINE"
);
}
);
width = 700;
}
);
leftKerningGroup = B;
note = IJ;
rightKerningGroup = J;
unicode = 0132;
},
{
glyphname = J;
lastChange = "2020-07-10 12:18:07 +0000";
layers = (
{
anchors = (
{
name = bottom;
position = "{242, 0}";
},
{
name = top;
position = "{314, 720}";
}
);
color = 4;
layerId = "F2028F70-0529-41D4-9F63-024EA79743CD";
paths = (
{
closed = 1;
nodes = (
"24 0 LINE",
"52 -8 OFFCURVE",
"96 -12 OFFCURVE",
"136 -12 CURVE SMOOTH",
"292 -12 OFFCURVE",
"420 56 OFFCURVE",
"420 244 CURVE SMOOTH",
"420 720 LINE",
"208 720 LINE",
"208 260 LINE SMOOTH",
"208 188 OFFCURVE",
"172 160 OFFCURVE",
"100 160 CURVE SMOOTH",
"72 160 OFFCURVE",
"56 164 OFFCURVE",
"36 172 CURVE",
"24 172 LINE"
);
}
);
width = 484;
},
{
anchors = (
{
name = bottom;
position = "{206, 0}";
},
{
name = top;
position = "{284, 720}";
}
);
color = 4;
layerId = "3E005A84-7828-4122-B6E8-61930BD9836F";
paths = (
{
closed = 1;
nodes = (
"12 0 LINE",
"36 -6 OFFCURVE",
"76 -12 OFFCURVE",
"112 -12 CURVE SMOOTH",
"256 -12 OFFCURVE",
"332 72 OFFCURVE",
"332 204 CURVE SMOOTH",
"332 720 LINE",
"236 720 LINE",
"236 192 LINE SMOOTH",
"236 116 OFFCURVE",
"192 72 OFFCURVE",
"112 72 CURVE SMOOTH",
"84 72 OFFCURVE",
"36 78 OFFCURVE",
"20 84 CURVE",
"12 84 LINE"
);
}
);
width = 412;
}
);
leftKerningGroup = J;
note = J;
rightKerningGroup = J;
unicode = 004A;
},
{
glyphname = K;
lastChange = "2020-07-10 12:18:07 +0000";
layers = (
{
anchors = (
{
name = bottom;
position = "{362, 0}";
},
{
name = top;
position = "{362, 720}";
}
);
color = 4;
layerId = "F2028F70-0529-41D4-9F63-024EA79743CD";
paths = (
{
closed = 1;
nodes = (
"455 232 OFFCURVE",
"563 319 OFFCURVE",
"601 436 CURVE SMOOTH",
"689 708 LINE",
"689 720 LINE",
"481 720 LINE",
"413 488 LINE SMOOTH",
"398 436 OFFCURVE",
"365 412 OFFCURVE",
"301 412 CURVE SMOOTH",
"181 412 LINE",
"181 232 LINE",
"313 232 LINE"
);
},
{
closed = 1;
nodes = (
"281 0 LINE",
"281 720 LINE",
"69 720 LINE",
"69 0 LINE"
);
},
{
closed = 1;
nodes = (
"325 264 LINE",
"481 0 LINE",
"705 0 LINE",
"705 12 LINE",
"497 336 LINE"
);
}
);
width = 724;
},
{
anchors = (
{
name = bottom;
position = "{325, 0}";
},
{
name = top;
position = "{325, 720}";
}
);
color = 4;
layerId = "3E005A84-7828-4122-B6E8-61930BD9836F";
paths = (
{
closed = 1;
nodes = (
"377 280 OFFCURVE",
"435 342 OFFCURVE",
"472 420 CURVE SMOOTH",
"612 712 LINE",
"612 720 LINE",
"512 720 LINE",
"384 448 LINE SMOOTH",
"362 400 OFFCURVE",
"332 364 OFFCURVE",
"264 364 CURVE SMOOTH",
"150 364 LINE",
"150 280 LINE",
"268 280 LINE SMOOTH"
);
},
{
closed = 1;
nodes = (
"192 0 LINE",
"192 720 LINE",
"96 720 LINE",
"96 0 LINE"
);
},
{
closed = 1;
nodes = (
"324 296 LINE",
"506 0 LINE",
"614 0 LINE",
"614 8 LINE",
"400 344 LINE"
);
}
);
width = 650;
}
);
leftKerningGroup = B;
note = K;
rightKerningGroup = K;
unicode = 004B;
},
{
glyphname = L;
lastChange = "2020-07-10 12:18:07 +0000";
layers = (
{
anchors = (
{
name = bottom;
position = "{286, 0}";
},
{
name = center;
position = "{232, 394}";
},
{
name = periodCAT;
position = "{420, 432}";
},
{
name = top;
position = "{286, 720}";
},
{
name = topright;
position = "{552, 720}";
}
);
color = 4;
layerId = "F2028F70-0529-41D4-9F63-024EA79743CD";
paths = (
{
closed = 1;
nodes = (
"540 0 LINE",
"540 184 LINE",
"280 184 LINE",
"280 720 LINE",
"68 720 LINE",
"68 0 LINE"
);
}
);
width = 572;
},
{
anchors = (
{
name = bottom;
position = "{266, 0}";
},
{
name = center;
position = "{188, 382}";
},
{
name = periodCAT;
position = "{368, 392}";
},
{
name = top;
position = "{266, 720}";
},
{
name = topright;
position = "{512, 720}";
}
);
color = 4;
layerId = "3E005A84-7828-4122-B6E8-61930BD9836F";
paths = (
{
closed = 1;
nodes = (
"500 0 LINE",
"500 84 LINE",
"192 84 LINE",
"192 720 LINE",
"96 720 LINE",
"96 0 LINE"
);
}
);
width = 532;
}
);
leftKerningGroup = B;
note = L;
rightKerningGroup = L;
unicode = 004C;
},
{
glyphname = Lj;
lastChange = "2020-07-10 12:18:08 +0000";
layers = (
{
anchors = (
{
name = _top;
position = "{674, 544}";
},
{
name = bottom;
position = "{266, 0}";
},
{
name = center;
position = "{188, 382}";
},
{
name = periodCAT;
position = "{368, 392}";
},
{
name = top;
position = "{266, 720}";
},
{
name = topright;
position = "{512, 720}";
}
);
color = 4;
layerId = "3E005A84-7828-4122-B6E8-61930BD9836F";
paths = (
{
closed = 1;
nodes = (
"500 0 LINE",
"500 84 LINE",
"192 84 LINE",
"192 720 LINE",
"96 720 LINE",
"96 0 LINE"
);
},
{
closed = 1;
nodes = (
"664 -240 OFFCURVE",
"720 -148 OFFCURVE",
"720 -48 CURVE SMOOTH",
"720 544 LINE",
"622 544 LINE",
"620 536 LINE",
"628 500 OFFCURVE",
"628 412 OFFCURVE",
"628 372 CURVE SMOOTH",
"628 -52 LINE SMOOTH",
"628 -124 OFFCURVE",
"588 -160 OFFCURVE",
"524 -160 CURVE SMOOTH",
"496 -160 OFFCURVE",
"476 -154 OFFCURVE",
"460 -148 CURVE",
"452 -148 LINE",
"452 -228 LINE",
"468 -234 OFFCURVE",
"492 -240 OFFCURVE",
"528 -240 CURVE SMOOTH"
);
},
{
closed = 1;
nodes = (
"708 640 OFFCURVE",
"734 664 OFFCURVE",
"734 700 CURVE SMOOTH",
"734 736 OFFCURVE",
"708 760 OFFCURVE",
"674 760 CURVE SMOOTH",
"640 760 OFFCURVE",
"614 736 OFFCURVE",
"614 700 CURVE SMOOTH",
"614 664 OFFCURVE",
"640 640 OFFCURVE",
"674 640 CURVE SMOOTH"
);
}
);
width = 816;
},
{
anchors = (
{
name = _top;
position = "{744, 548}";
},
{
name = bottom;
position = "{286, 0}";
},
{
name = center;
position = "{232, 394}";
},
{
name = periodCAT;
position = "{420, 432}";
},
{
name = top;
position = "{286, 720}";
},
{
name = topright;
position = "{552, 720}";
}
);
color = 4;
layerId = "F2028F70-0529-41D4-9F63-024EA79743CD";
paths = (
{
closed = 1;
nodes = (
"540 0 LINE",
"540 184 LINE",
"280 184 LINE",
"280 720 LINE",
"68 720 LINE",
"68 0 LINE"
);
},
{
closed = 1;
nodes = (
"740 -240 OFFCURVE",
"852 -168 OFFCURVE",
"852 20 CURVE SMOOTH",
"852 548 LINE",
"632 548 LINE",
"628 540 LINE",
"637 504 OFFCURVE",
"640 424 OFFCURVE",
"640 384 CURVE SMOOTH",
"640 6 LINE SMOOTH",
"640 -52 OFFCURVE",
"612 -76 OFFCURVE",
"556 -76 CURVE SMOOTH",
"525 -76 OFFCURVE",
"512 -72 OFFCURVE",
"492 -64 CURVE",
"480 -64 LINE",
"480 -228 LINE",
"508 -236 OFFCURVE",
"544 -240 OFFCURVE",
"588 -240 CURVE SMOOTH"
);
},
{
closed = 1;
nodes = (
"808 620 OFFCURVE",
"852 656 OFFCURVE",
"852 724 CURVE SMOOTH",
"852 792 OFFCURVE",
"808 828 OFFCURVE",
"744 828 CURVE SMOOTH",
"680 828 OFFCURVE",
"636 792 OFFCURVE",
"636 724 CURVE SMOOTH",
"636 656 OFFCURVE",
"680 620 OFFCURVE",
"744 620 CURVE SMOOTH"
);
}
);
width = 916;
}
);
leftKerningGroup = B;
rightKerningGroup = d;
unicode = 01C8;
},
{
glyphname = M;
lastChange = "2020-07-10 12:18:07 +0000";
layers = (
{
anchors = (
{
name = bottom;
position = "{448, 0}";
},
{
name = top;
position = "{448, 720}";
}
);
color = 4;
layerId = "F2028F70-0529-41D4-9F63-024EA79743CD";
paths = (
{
closed = 1;
nodes = (
"280 0 LINE",
"280 418 LINE",
"236 406 LINE",
"404 124 LINE",
"492 124 LINE",
"659 412 LINE",
"616 423 LINE",
"616 0 LINE",
"828 0 LINE",
"828 720 LINE",
"648 720 LINE",
"407 304 LINE",
"494 305 LINE",
"248 720 LINE",
"68 720 LINE",
"68 0 LINE"
);
}
);
width = 896;
},
{
anchors = (
{
name = bottom;
position = "{410, 0}";
},
{
name = top;
position = "{410, 720}";
}
);
color = 4;
layerId = "3E005A84-7828-4122-B6E8-61930BD9836F";
paths = (
{
closed = 1;
nodes = (
"192 0 LINE",
"192 563 LINE",
"171 557 LINE",
"372 248 LINE",
"448 248 LINE",
"649 557 LINE",
"628 563 LINE",
"628 0 LINE",
"724 0 LINE",
"724 720 LINE",
"644 720 LINE",
"390 324 LINE",
"430 324 LINE",
"176 720 LINE",
"96 720 LINE",
"96 0 LINE"
);
}
);
width = 820;
}
);
note = M;
unicode = 004D;
},
{
glyphname = N;
lastChange = "2020-07-10 12:18:07 +0000";
layers = (
{
anchors = (
{
name = bottom;
position = "{392, 0}";
},
{
name = top;
position = "{392, 720}";
}
);
color = 4;
layerId = "F2028F70-0529-41D4-9F63-024EA79743CD";
paths = (
{
closed = 1;
nodes = (
"280 0 LINE",
"280 487 LINE",
"219 462 LINE",
"568 116 LINE",
"568 392 LINE",
"236 720 LINE",
"68 720 LINE",
"68 0 LINE"
);
},
{
closed = 1;
nodes = (
"716 0 LINE",
"716 720 LINE",
"504 720 LINE",
"504 0 LINE"
);
}
);
width = 784;
},
{
anchors = (
{
name = bottom;
position = "{368, 0}";
},
{
name = top;
position = "{368, 720}";
}
);
color = 4;
layerId = "3E005A84-7828-4122-B6E8-61930BD9836F";
paths = (
{
closed = 1;
nodes = (
"192 0 LINE",
"192 606 LINE",
"166 595 LINE",
"590 148 LINE",
"590 283 LINE",
"176 720 LINE",
"96 720 LINE",
"96 0 LINE"
);
},
{
closed = 1;
nodes = (
"640 0 LINE",
"640 720 LINE",
"544 720 LINE",
"544 0 LINE"
);
}
);
width = 736;
}
);
leftKerningGroup = B;
note = N;
rightKerningGroup = A;
unicode = 004E;
},
{
glyphname = Eng;
lastChange = "2020-07-10 12:18:07 +0000";
layers = (
{
color = 4;
layerId = "F2028F70-0529-41D4-9F63-024EA79743CD";
paths = (
{
closed = 1;
nodes = (
"280 0 LINE",
"280 487 LINE",
"219 462 LINE",
"568 116 LINE",
"568 392 LINE",
"236 720 LINE",
"68 720 LINE",
"68 0 LINE"
);
},
{
closed = 1;
nodes = (
"592 -240 OFFCURVE",
"720 -172 OFFCURVE",
"720 16 CURVE SMOOTH",
"720 720 LINE",
"508 720 LINE",
"508 32 LINE SMOOTH",
"508 -40 OFFCURVE",
"472 -68 OFFCURVE",
"400 -68 CURVE SMOOTH",
"372 -68 OFFCURVE",
"356 -64 OFFCURVE",
"336 -56 CURVE",
"324 -56 LINE",
"324 -228 LINE",
"352 -236 OFFCURVE",
"396 -240 OFFCURVE",
"436 -240 CURVE SMOOTH"
);
}
);
width = 788;
},
{
color = 4;
layerId = "3E005A84-7828-4122-B6E8-61930BD9836F";
paths = (
{
closed = 1;
nodes = (
"192 0 LINE",
"192 606 LINE",
"166 595 LINE",
"590 148 LINE",
"590 283 LINE",
"176 720 LINE",
"96 720 LINE",
"96 0 LINE"
);
},
{
closed = 1;
nodes = (
"563 -240 OFFCURVE",
"639 -156 OFFCURVE",
"639 -24 CURVE SMOOTH",
"639 722 LINE",
"543 722 LINE",
"543 -36 LINE SMOOTH",
"543 -112 OFFCURVE",
"499 -156 OFFCURVE",
"419 -156 CURVE SMOOTH",
"391 -156 OFFCURVE",
"343 -150 OFFCURVE",
"327 -144 CURVE",
"319 -144 LINE",
"319 -228 LINE",
"343 -234 OFFCURVE",
"383 -240 OFFCURVE",
"419 -240 CURVE SMOOTH"
);
}
);
width = 735;
}
);
leftKerningGroup = B;
leftMetricsKey = H;
note = Eng;
rightKerningGroup = A;
rightMetricsKey = N;
unicode = 014A;
},
{
glyphname = Nj;
lastChange = "2020-07-10 12:18:08 +0000";
layers = (
{
anchors = (
{
name = _top;
position = "{878, 544}";
},
{
name = bottom;
position = "{368, 0}";
},
{
name = top;
position = "{368, 720}";
}
);
color = 4;
layerId = "3E005A84-7828-4122-B6E8-61930BD9836F";
paths = (
{
closed = 1;
nodes = (
"192 0 LINE",
"192 568 LINE",
"544 196 LINE",
"544 0 LINE",
"640 0 LINE",
"640 720 LINE",
"544 720 LINE",
"544 332 LINE",
"176 720 LINE",
"96 720 LINE",
"96 0 LINE"
);
},
{
closed = 1;
nodes = (
"868 -240 OFFCURVE",
"924 -148 OFFCURVE",
"924 -48 CURVE SMOOTH",
"924 544 LINE",
"826 544 LINE",
"824 536 LINE",
"832 500 OFFCURVE",
"832 412 OFFCURVE",
"832 372 CURVE SMOOTH",
"832 -52 LINE SMOOTH",
"832 -124 OFFCURVE",
"792 -160 OFFCURVE",
"728 -160 CURVE SMOOTH",
"700 -160 OFFCURVE",
"680 -154 OFFCURVE",
"664 -148 CURVE",
"656 -148 LINE",
"656 -228 LINE",
"672 -234 OFFCURVE",
"696 -240 OFFCURVE",
"732 -240 CURVE SMOOTH"
);
},
{
closed = 1;
nodes = (
"912 640 OFFCURVE",
"938 664 OFFCURVE",
"938 700 CURVE SMOOTH",
"938 736 OFFCURVE",
"912 760 OFFCURVE",
"878 760 CURVE SMOOTH",
"844 760 OFFCURVE",
"818 736 OFFCURVE",
"818 700 CURVE SMOOTH",
"818 664 OFFCURVE",
"844 640 OFFCURVE",
"878 640 CURVE SMOOTH"
);
}
);
width = 1020;
},
{
anchors = (
{
name = _top;
position = "{956, 548}";
},
{
name = bottom;
position = "{392, 0}";
},
{
name = top;
position = "{392, 720}";
}
);
color = 4;
layerId = "F2028F70-0529-41D4-9F63-024EA79743CD";
paths = (
{
closed = 1;
nodes = (
"280 0 LINE",
"280 402 LINE",
"504 179 LINE",
"504 0 LINE",
"716 0 LINE",
"716 720 LINE",
"504 720 LINE",
"504 455 LINE",
"236 720 LINE",
"68 720 LINE",
"68 0 LINE"
);
},
{
closed = 1;
nodes = (
"952 -240 OFFCURVE",
"1064 -168 OFFCURVE",
"1064 20 CURVE SMOOTH",
"1064 548 LINE",
"844 548 LINE",
"840 540 LINE",
"849 504 OFFCURVE",
"852 424 OFFCURVE",
"852 384 CURVE SMOOTH",
"852 6 LINE SMOOTH",
"852 -52 OFFCURVE",
"824 -76 OFFCURVE",
"768 -76 CURVE SMOOTH",
"737 -76 OFFCURVE",
"724 -72 OFFCURVE",
"704 -64 CURVE",
"692 -64 LINE",
"692 -228 LINE",
"720 -236 OFFCURVE",
"756 -240 OFFCURVE",
"800 -240 CURVE SMOOTH"
);
},
{
closed = 1;
nodes = (
"1020 620 OFFCURVE",
"1064 656 OFFCURVE",
"1064 724 CURVE SMOOTH",
"1064 792 OFFCURVE",
"1020 828 OFFCURVE",
"956 828 CURVE SMOOTH",
"892 828 OFFCURVE",
"848 792 OFFCURVE",
"848 724 CURVE SMOOTH",
"848 656 OFFCURVE",
"892 620 OFFCURVE",
"956 620 CURVE SMOOTH"
);
}
);
width = 1128;
}
);
leftKerningGroup = B;
rightKerningGroup = d;
unicode = 01CB;
},
{
glyphname = O;
lastChange = "2020-07-10 12:18:07 +0000";
layers = (
{
anchors = (
{
name = bottom;
position = "{416, 0}";
},
{
name = center;
position = "{416, 360}";
},
{
name = ogonek;
position = "{498, 10}";
},
{
name = top;
position = "{416, 720}";
},
{
name = topleft;
position = "{20, 720}";
},
{
name = topright;
position = "{525, 720}";
}
);
color = 4;
layerId = "F2028F70-0529-41D4-9F63-024EA79743CD";
paths = (
{
closed = 1;
nodes = (
"36 136 OFFCURVE",
"172 -12 OFFCURVE",
"416 -12 CURVE SMOOTH",
"660 -12 OFFCURVE",
"796 140 OFFCURVE",
"796 360 CURVE SMOOTH",
"796 580 OFFCURVE",
"660 732 OFFCURVE",
"416 732 CURVE SMOOTH",
"172 732 OFFCURVE",
"36 580 OFFCURVE",
"36 360 CURVE SMOOTH"
);
},
{
closed = 1;
nodes = (
"252 468 OFFCURVE",
"300 556 OFFCURVE",
"416 556 CURVE SMOOTH",
"532 556 OFFCURVE",
"580 468 OFFCURVE",
"580 360 CURVE SMOOTH",
"580 252 OFFCURVE",
"532 164 OFFCURVE",
"416 164 CURVE SMOOTH",
"300 164 OFFCURVE",
"252 252 OFFCURVE",
"252 360 CURVE SMOOTH"
);
}
);
width = 832;
},
{
anchors = (
{
name = bottom;
position = "{392, 0}";
},
{
name = center;
position = "{392, 360}";
},
{
name = ogonek;
position = "{466, 10}";
},
{
name = top;
position = "{392, 720}";
},
{
name = topleft;
position = "{20, 720}";
},
{
name = topright;
position = "{469, 720}";
}
);
color = 4;
layerId = "3E005A84-7828-4122-B6E8-61930BD9836F";
paths = (
{
closed = 1;
nodes = (
"56 140 OFFCURVE",
"182 -12 OFFCURVE",
"392 -12 CURVE SMOOTH",
"600 -12 OFFCURVE",
"728 140 OFFCURVE",
"728 360 CURVE SMOOTH",
"728 580 OFFCURVE",
"600 732 OFFCURVE",
"392 732 CURVE SMOOTH",
"184 732 OFFCURVE",
"56 580 OFFCURVE",
"56 360 CURVE SMOOTH"
);
},
{
closed = 1;
nodes = (
"156 544 OFFCURVE",
"248 644 OFFCURVE",
"392 644 CURVE SMOOTH",
"536 644 OFFCURVE",
"628 544 OFFCURVE",
"628 360 CURVE SMOOTH",
"628 176 OFFCURVE",
"536 76 OFFCURVE",
"392 76 CURVE SMOOTH",
"248 76 OFFCURVE",
"156 176 OFFCURVE",
"156 360 CURVE SMOOTH"
);
}
);
width = 784;
}
);
leftKerningGroup = C;
note = O;
rightKerningGroup = D;
unicode = 004F;
},
{
glyphname = OE;
lastChange = "2020-07-10 12:18:07 +0000";
layers = (
{
color = 4;
layerId = "F2028F70-0529-41D4-9F63-024EA79743CD";
paths = (
{
closed = 1;
nodes = (
"660 -12 OFFCURVE",
"796 140 OFFCURVE",
"796 360 CURVE SMOOTH",
"796 580 OFFCURVE",
"660 732 OFFCURVE",
"416 732 CURVE SMOOTH",
"172 732 OFFCURVE",
"36 580 OFFCURVE",
"36 360 CURVE SMOOTH",
"36 136 OFFCURVE",
"172 -12 OFFCURVE",
"416 -12 CURVE SMOOTH"
);
},
{
closed = 1;
nodes = (
"300 164 OFFCURVE",
"252 252 OFFCURVE",
"252 360 CURVE SMOOTH",
"252 468 OFFCURVE",
"300 556 OFFCURVE",
"416 556 CURVE SMOOTH",
"532 556 OFFCURVE",
"580 468 OFFCURVE",
"580 360 CURVE SMOOTH",
"580 252 OFFCURVE",
"532 164 OFFCURVE",
"416 164 CURVE SMOOTH"
);
},
{
closed = 1;
nodes = (
"1080 0 LINE",
"1080 184 LINE",
"512 184 LINE",
"512 0 LINE"
);
},
{
closed = 1;
nodes = (
"1024 268 LINE",
"1024 440 LINE",
"696 440 LINE",
"696 268 LINE"
);
},
{
closed = 1;
nodes = (
"1072 536 LINE",
"1072 720 LINE",
"508 720 LINE",
"508 536 LINE"
);
}
);
width = 1128;
},
{
color = 4;
layerId = "3E005A84-7828-4122-B6E8-61930BD9836F";
paths = (
{
closed = 1;
nodes = (
"600 -12 OFFCURVE",
"728 140 OFFCURVE",
"728 360 CURVE SMOOTH",
"728 580 OFFCURVE",
"600 732 OFFCURVE",
"392 732 CURVE SMOOTH",
"184 732 OFFCURVE",
"56 580 OFFCURVE",
"56 360 CURVE SMOOTH",
"56 140 OFFCURVE",
"182 -12 OFFCURVE",
"392 -12 CURVE SMOOTH"
);
},
{
closed = 1;
nodes = (
"248 76 OFFCURVE",
"156 176 OFFCURVE",
"156 360 CURVE SMOOTH",
"156 544 OFFCURVE",
"248 644 OFFCURVE",
"392 644 CURVE SMOOTH",
"536 644 OFFCURVE",
"628 544 OFFCURVE",
"628 360 CURVE SMOOTH",
"628 176 OFFCURVE",
"536 76 OFFCURVE",
"392 76 CURVE SMOOTH"
);
},
{
closed = 1;
nodes = (
"1008 0 LINE",
"1008 84 LINE",
"484 84 LINE",
"484 0 LINE"
);
},
{
closed = 1;
nodes = (
"940 336 LINE",
"940 420 LINE",
"676 420 LINE",
"676 336 LINE"
);
},
{
closed = 1;
nodes = (
"996 636 LINE",
"996 720 LINE",
"476 720 LINE",
"476 636 LINE"
);
}
);
width = 1060;
}
);
leftKerningGroup = C;
leftMetricsKey = O;
note = OE;
rightKerningGroup = E;
rightMetricsKey = E;
unicode = 0152;
},
{
glyphname = P;
lastChange = "2020-07-10 12:18:07 +0000";
layers = (
{
anchors = (
{
name = bottom;
position = "{356, 0}";
},
{
name = top;
position = "{356, 720}";
}
);
color = 4;
layerId = "F2028F70-0529-41D4-9F63-024EA79743CD";
paths = (
{
closed = 1;
nodes = (
"356 160 LINE SMOOTH",
"564 160 OFFCURVE",
"680 284 OFFCURVE",
"680 464 CURVE SMOOTH",
"680 620 OFFCURVE",
"580 720 OFFCURVE",
"372 720 CURVE SMOOTH",
"180 720 LINE",
"180 544 LINE",
"376 544 LINE SMOOTH",
"432 544 OFFCURVE",
"472 516 OFFCURVE",
"472 456 CURVE SMOOTH",
"472 388 OFFCURVE",
"440 328 OFFCURVE",
"348 328 CURVE SMOOTH",
"180 328 LINE",
"180 160 LINE"
);
},
{
closed = 1;
nodes = (
"280 0 LINE",
"280 720 LINE",
"68 720 LINE",
"68 0 LINE"
);
}
);
width = 712;
},
{
anchors = (
{
name = bottom;
position = "{310, 0}";
},
{
name = top;
position = "{310, 720}";
}
);
color = 4;
layerId = "3E005A84-7828-4122-B6E8-61930BD9836F";
paths = (
{
closed = 1;
nodes = (
"308 240 LINE SMOOTH",
"500 240 OFFCURVE",
"580 380 OFFCURVE",
"580 512 CURVE SMOOTH",
"580 652 OFFCURVE",
"488 720 OFFCURVE",
"352 720 CURVE SMOOTH",
"152 720 LINE",
"152 636 LINE",
"348 636 LINE SMOOTH",
"428 636 OFFCURVE",
"480 604 OFFCURVE",
"480 512 CURVE SMOOTH",
"480 408 OFFCURVE",
"428 324 OFFCURVE",
"308 324 CURVE SMOOTH",
"152 324 LINE",
"152 240 LINE"
);
},
{
closed = 1;
nodes = (
"192 0 LINE",
"192 720 LINE",
"96 720 LINE",
"96 0 LINE"
);
}
);
width = 620;
}
);
leftKerningGroup = B;
note = P;
rightKerningGroup = P;
unicode = 0050;
},
{
glyphname = Thorn;
lastChange = "2020-07-10 12:18:07 +0000";
layers = (
{
color = 4;
layerId = "F2028F70-0529-41D4-9F63-024EA79743CD";
paths = (
{
closed = 1;
nodes = (
"344 80 LINE SMOOTH",
"552 80 OFFCURVE",
"668 204 OFFCURVE",
"668 384 CURVE SMOOTH",
"668 540 OFFCURVE",
"568 640 OFFCURVE",
"360 640 CURVE SMOOTH",
"196 640 LINE",
"196 464 LINE",
"364 464 LINE SMOOTH",
"420 464 OFFCURVE",
"460 436 OFFCURVE",
"460 376 CURVE SMOOTH",
"460 308 OFFCURVE",
"428 248 OFFCURVE",
"336 248 CURVE SMOOTH",
"196 248 LINE",
"196 80 LINE"
);
},
{
closed = 1;
nodes = (
"268 0 LINE",
"268 720 LINE",
"56 720 LINE",
"56 0 LINE"
);
}
);
width = 708;
},
{
color = 4;
layerId = "3E005A84-7828-4122-B6E8-61930BD9836F";
paths = (
{
closed = 1;
nodes = (
"276 124 LINE SMOOTH",
"468 124 OFFCURVE",
"548 264 OFFCURVE",
"548 396 CURVE SMOOTH",
"548 536 OFFCURVE",
"456 604 OFFCURVE",
"320 604 CURVE SMOOTH",
"132 604 LINE",
"132 520 LINE",
"316 520 LINE SMOOTH",
"396 520 OFFCURVE",
"448 488 OFFCURVE",
"448 396 CURVE SMOOTH",
"448 292 OFFCURVE",
"396 208 OFFCURVE",
"276 208 CURVE SMOOTH",
"132 208 LINE",
"132 124 LINE"
);
},
{
closed = 1;
nodes = (
"184 0 LINE",
"184 720 LINE",
"88 720 LINE",
"88 0 LINE"
);
}
);
width = 600;
}
);
leftKerningGroup = B;
leftMetricsKey = p;
note = Thorn;
rightKerningGroup = Thorn;
rightMetricsKey = p;
unicode = 00DE;
},
{
glyphname = Q;
lastChange = "2020-07-10 12:18:07 +0000";
layers = (
{
anchors = (
{
name = bottom;
position = "{416, 0}";
},
{
name = top;
position = "{416, 720}";
}
);
color = 4;
components = (
{
name = O;
}
);
layerId = "F2028F70-0529-41D4-9F63-024EA79743CD";
paths = (
{
closed = 1;
nodes = (
"798 -160 LINE",
"798 -148 LINE",
"560 82 LINE",
"343 49 LINE",
"560 -160 LINE"
);
}
);
width = 832;
},
{
anchors = (
{
name = bottom;
position = "{392, 0}";
},
{
name = top;
position = "{392, 720}";
}
);
color = 4;
components = (
{
name = O;
}
);
layerId = "3E005A84-7828-4122-B6E8-61930BD9836F";
paths = (
{
closed = 1;
nodes = (
"764 -158 LINE",
"764 -150 LINE",
"520 48 LINE",
"424 20 LINE",
"632 -158 LINE"
);
}
);
width = 784;
}
);
leftKerningGroup = C;
note = Q;
rightKerningGroup = D;
unicode = 0051;
},
{
glyphname = R;
lastChange = "2020-07-10 12:18:07 +0000";
layers = (
{
anchors = (
{
name = bottom;
position = "{372, 0}";
},
{
name = top;
position = "{372, 720}";
}
);
color = 4;
layerId = "F2028F70-0529-41D4-9F63-024EA79743CD";
paths = (
{
closed = 1;
nodes = (
"356 152 LINE SMOOTH",
"532 152 OFFCURVE",
"692 270 OFFCURVE",
"692 460 CURVE SMOOTH",
"692 616 OFFCURVE",
"593 720 OFFCURVE",
"376 720 CURVE SMOOTH",
"180 720 LINE",
"180 544 LINE",
"376 544 LINE SMOOTH",
"438 544 OFFCURVE",
"480 516 OFFCURVE",
"480 452 CURVE SMOOTH",
"480 384 OFFCURVE",
"444 320 OFFCURVE",
"348 320 CURVE SMOOTH",
"180 320 LINE",
"180 152 LINE"
);
},
{
closed = 1;
nodes = (
"280 0 LINE",
"280 720 LINE",
"68 720 LINE",
"68 0 LINE"
);
},
{
closed = 1;
nodes = (
"704 0 LINE",
"704 12 LINE",
"541 228 LINE",
"348 192 LINE",
"472 0 LINE"
);
}
);
width = 744;
},
{
anchors = (
{
name = bottom;
position = "{330, 0}";
},
{
name = top;
position = "{330, 720}";
}
);
color = 4;
layerId = "3E005A84-7828-4122-B6E8-61930BD9836F";
paths = (
{
closed = 1;
nodes = (
"320 216 LINE SMOOTH",
"460 216 OFFCURVE",
"592 316 OFFCURVE",
"592 496 CURVE SMOOTH",
"592 640 OFFCURVE",
"500 720 OFFCURVE",
"356 720 CURVE SMOOTH",
"152 720 LINE",
"152 636 LINE",
"352 636 LINE SMOOTH",
"436 636 OFFCURVE",
"492 592 OFFCURVE",
"492 496 CURVE SMOOTH",
"492 396 OFFCURVE",
"436 304 OFFCURVE",
"324 304 CURVE SMOOTH",
"152 304 LINE",
"152 216 LINE"
);
},
{
closed = 1;
nodes = (
"192 0 LINE",
"192 720 LINE",
"96 720 LINE",
"96 0 LINE"
);
},
{
closed = 1;
nodes = (
"636 0 LINE",
"636 4 LINE",
"436 256 LINE",
"336 244 LINE",
"524 0 LINE"
);
}
);
width = 660;
}
);
leftKerningGroup = B;
note = R;
rightKerningGroup = R;
unicode = 0052;
},
{
glyphname = S;
lastChange = "2020-07-10 12:18:07 +0000";
layers = (
{
anchors = (
{
name = bottom;
position = "{324, 0}";
},
{
name = top;
position = "{324, 720}";
}
);
color = 4;
layerId = "F2028F70-0529-41D4-9F63-024EA79743CD";
paths = (
{
closed = 1;
nodes = (
"52 28 LINE",
"100 8 OFFCURVE",
"200 -12 OFFCURVE",
"292 -12 CURVE SMOOTH",
"468 -12 OFFCURVE",
"620 40 OFFCURVE",
"620 204 CURVE SMOOTH",
"620 348 OFFCURVE",
"512 399 OFFCURVE",
"388 418 CURVE SMOOTH",
"336 426 LINE SMOOTH",
"259 438 OFFCURVE",
"232 452 OFFCURVE",
"232 492 CURVE SMOOTH",
"232 540 OFFCURVE",
"272 564 OFFCURVE",
"368 564 CURVE SMOOTH",
"448 564 OFFCURVE",
"520 544 OFFCURVE",
"564 524 CURVE",
"576 524 LINE",
"576 700 LINE",
"532 718 OFFCURVE",
"460 732 OFFCURVE",
"384 732 CURVE SMOOTH",
"128 732 OFFCURVE",
"28 632 OFFCURVE",
"28 480 CURVE SMOOTH",
"28 356 OFFCURVE",
"106 282 OFFCURVE",
"276 258 CURVE SMOOTH",
"332 250 LINE SMOOTH",
"396 241 OFFCURVE",
"412 228 OFFCURVE",
"412 200 CURVE SMOOTH",
"412 168 OFFCURVE",
"376 156 OFFCURVE",
"292 156 CURVE SMOOTH",
"207 156 OFFCURVE",
"114 186 OFFCURVE",
"64 212 CURVE",
"52 212 LINE"
);
}
);
width = 648;
},
{
anchors = (
{
name = bottom;
position = "{292, 0}";
},
{
name = top;
position = "{292, 720}";
}
);
color = 4;
layerId = "3E005A84-7828-4122-B6E8-61930BD9836F";
paths = (
{
closed = 1;
nodes = (
"64 24 LINE",
"116 4 OFFCURVE",
"188 -12 OFFCURVE",
"272 -12 CURVE SMOOTH",
"428 -12 OFFCURVE",
"534 52 OFFCURVE",
"534 184 CURVE SMOOTH",
"534 292 OFFCURVE",
"465 346 OFFCURVE",
"364 364 CURVE SMOOTH",
"276 380 LINE SMOOTH",
"199 394 OFFCURVE",
"152 420 OFFCURVE",
"152 504 CURVE SMOOTH",
"152 604 OFFCURVE",
"240 644 OFFCURVE",
"352 644 CURVE SMOOTH",
"420 644 OFFCURVE",
"468 628 OFFCURVE",
"500 612 CURVE",
"508 612 LINE",
"508 704 LINE",
"472 720 OFFCURVE",
"412 732 OFFCURVE",
"356 732 CURVE SMOOTH",
"176 732 OFFCURVE",
"56 660 OFFCURVE",
"56 500 CURVE SMOOTH",
"56 372 OFFCURVE",
"139 314 OFFCURVE",
"240 296 CURVE SMOOTH",
"328 280 LINE SMOOTH",
"401 267 OFFCURVE",
"438 244 OFFCURVE",
"438 180 CURVE SMOOTH",
"438 100 OFFCURVE",
"368 76 OFFCURVE",
"272 76 CURVE SMOOTH",
"188 76 OFFCURVE",
"120 92 OFFCURVE",
"72 118 CURVE",
"64 118 LINE"
);
}
);
width = 584;
}
);
leftKerningGroup = S;
note = S;
rightKerningGroup = S;
unicode = 0053;
},
{
glyphname = Germandbls;
lastChange = "2020-07-10 12:18:07 +0000";
layers = (
{
color = 4;
layerId = "3E005A84-7828-4122-B6E8-61930BD9836F";
paths = (
{
closed = 1;
nodes = (
"544 -12 OFFCURVE",
"648 72 OFFCURVE",
"648 204 CURVE SMOOTH",
"648 321 OFFCURVE",
"582 396 OFFCURVE",
"426 400 CURVE",
"426 370 LINE",
"556 582 LINE SMOOTH",
"577 616 OFFCURVE",
"600 644 OFFCURVE",
"600 676 CURVE SMOOTH",
"600 684 OFFCURVE",
"598 700 OFFCURVE",
"594 710 CURVE",
"582 720 LINE",
"150 720 LINE",
"150 640 LINE",
"530 640 LINE",
"512 669 LINE",
"326 364 LINE",
"342 324 LINE",
"414 324 LINE SMOOTH",
"520 324 OFFCURVE",
"556 272 OFFCURVE",
"556 204 CURVE SMOOTH",
"556 136 OFFCURVE",
"520 72 OFFCURVE",
"408 72 CURVE SMOOTH",
"357 72 OFFCURVE",
"329 76 OFFCURVE",
"276 98 CURVE",
"268 98 LINE",
"268 8 LINE",
"316 -8 OFFCURVE",
"358 -12 OFFCURVE",
"408 -12 CURVE SMOOTH"
);
},
{
closed = 1;
nodes = (
"192 0 LINE",
"192 720 LINE",
"96 720 LINE",
"96 0 LINE"
);
}
);
width = 704;
},
{
color = 4;
layerId = "F2028F70-0529-41D4-9F63-024EA79743CD";
paths = (
{
closed = 1;
nodes = (
"594 -12 OFFCURVE",
"720 60 OFFCURVE",
"720 204 CURVE SMOOTH",
"720 320 OFFCURVE",
"636 404 OFFCURVE",
"480 400 CURVE",
"522 339 LINE",
"643 560 LINE SMOOTH",
"661 592 OFFCURVE",
"676 620 OFFCURVE",
"676 656 CURVE SMOOTH",
"676 680 OFFCURVE",
"671 697 OFFCURVE",
"664 711 CURVE",
"652 720 LINE",
"186 720 LINE",
"186 556 LINE",
"505 556 LINE",
"489 628 LINE",
"344 344 LINE",
"376 272 LINE",
"436 272 LINE SMOOTH",
"492 272 OFFCURVE",
"516 248 OFFCURVE",
"516 208 CURVE SMOOTH",
"516 156 OFFCURVE",
"468 140 OFFCURVE",
"408 140 CURVE SMOOTH",
"389 140 OFFCURVE",
"371 142 OFFCURVE",
"352 148 CURVE",
"340 148 LINE",
"340 0 LINE",
"368 -7 OFFCURVE",
"393 -12 OFFCURVE",
"452 -12 CURVE SMOOTH"
);
},
{
closed = 1;
nodes = (
"280 0 LINE",
"280 720 LINE",
"68 720 LINE",
"68 0 LINE"
);
}
);
width = 760;
}
);
leftKerningGroup = B;
note = P;
rightMetricsKey = B;
unicode = 1E9E;
},
{
glyphname = Schwa;
lastChange = "2020-07-10 12:18:08 +0000";
layers = (
{
anchors = (
{
name = bottom;
position = "{381.736, 0}";
},
{
name = ogonek;
position = "{656.957, 28.971}";
},
{
name = top;
position = "{381.736, 716.363}";
}
);
color = 4;
layerId = "3E005A84-7828-4122-B6E8-61930BD9836F";
paths = (
{
closed = 1;
nodes = (
"234 732 OFFCURVE",
"149 712 OFFCURVE",
"107 691 CURVE",
"107 602 LINE",
"118 602 LINE",
"154 623 OFFCURVE",
"234 644 OFFCURVE",
"312 644 CURVE SMOOTH",
"487 644 OFFCURVE",
"592 567 OFFCURVE",
"592 359 CURVE SMOOTH",
"592 351 LINE SMOOTH",
"592 168 OFFCURVE",
"504 76 OFFCURVE",
"364 76 CURVE SMOOTH",
"229 76 OFFCURVE",
"166 158 OFFCURVE",
"166 293 CURVE SMOOTH",
"166 312 LINE",
"607 312 LINE",
"607 400 LINE",
"65 400 LINE",
"64 367 LINE SMOOTH",
"58 141 OFFCURVE",
"144 -12 OFFCURVE",
"364 -12 CURVE SMOOTH",
"560 -12 OFFCURVE",
"692 135 OFFCURVE",
"692 360 CURVE SMOOTH",
"692 599 OFFCURVE",
"565 732 OFFCURVE",
"316 732 CURVE SMOOTH"
);
}
);
width = 748;
},
{
anchors = (
{
name = bottom;
position = "{298, 0}";
},
{
name = ogonek;
position = "{540, 12}";
},
{
name = top;
position = "{298, 548}";
}
);
color = 4;
layerId = "F2028F70-0529-41D4-9F63-024EA79743CD";
paths = (
{
closed = 1;
nodes = (
"253 732 OFFCURVE",
"170 722 OFFCURVE",
"113 701 CURVE",
"113 520 LINE",
"129 520 LINE",
"168 540 OFFCURVE",
"232 556 OFFCURVE",
"299 556 CURVE SMOOTH",
"405 556 OFFCURVE",
"503 525 OFFCURVE",
"503 391 CURVE SMOOTH",
"503 334 LINE SMOOTH",
"503 212 OFFCURVE",
"461 162 OFFCURVE",
"382 162 CURVE SMOOTH",
"309 162 OFFCURVE",
"272 203 OFFCURVE",
"272 277 CURVE SMOOTH",
"272 282 LINE",
"554 282 LINE",
"554 432 LINE",
"64 432 LINE",
"61 380 LINE SMOOTH",
"48 158 OFFCURVE",
"140 -12 OFFCURVE",
"380 -12 CURVE SMOOTH",
"573 -12 OFFCURVE",
"719 122 OFFCURVE",
"719 360 CURVE SMOOTH",
"719 644 OFFCURVE",
"528 732 OFFCURVE",
"324 732 CURVE SMOOTH"
);
}
);
width = 755;
}
);
rightKerningGroup = D;
rightMetricsKey = O;
unicode = 018F;
},
{
glyphname = T;
lastChange = "2020-07-10 12:18:07 +0000";
layers = (
{
anchors = (
{
name = bottom;
position = "{326, 0}";
},
{
name = center;
position = "{326, 360}";
},
{
name = top;
position = "{326, 720}";
}
);
color = 4;
layerId = "F2028F70-0529-41D4-9F63-024EA79743CD";
paths = (
{
closed = 1;
nodes = (
"20 536 LINE",
"220 536 LINE",
"220 0 LINE",
"432 0 LINE",
"432 536 LINE",
"632 536 LINE",
"632 720 LINE",
"20 720 LINE"
);
}
);
width = 652;
},
{
anchors = (
{
name = bottom;
position = "{292, 0}";
},
{
name = center;
position = "{292, 360}";
},
{
name = top;
position = "{292, 720}";
}
);
color = 4;
layerId = "3E005A84-7828-4122-B6E8-61930BD9836F";
paths = (
{
closed = 1;
nodes = (
"12 636 LINE",
"244 636 LINE",
"244 0 LINE",
"340 0 LINE",
"340 636 LINE",
"572 636 LINE",
"572 720 LINE",
"12 720 LINE"
);
}
);
width = 584;
}
);
leftKerningGroup = T;
note = T;
rightKerningGroup = T;
unicode = 0054;
},
{
glyphname = Tbar;
lastChange = "2020-07-10 12:18:07 +0000";
layers = (
{
color = 4;
components = (
{
name = T;
}
);
layerId = "F2028F70-0529-41D4-9F63-024EA79743CD";
paths = (
{
closed = 1;
nodes = (
"572 260 LINE",
"572 396 LINE",
"88 396 LINE",
"88 260 LINE"
);
}
);
width = 652;
},
{
color = 4;
components = (
{
name = T;
}
);
layerId = "3E005A84-7828-4122-B6E8-61930BD9836F";
paths = (
{
closed = 1;
nodes = (
"496 324 LINE",
"496 396 LINE",
"88 396 LINE",
"88 324 LINE"
);
}
);
width = 584;
}
);
leftKerningGroup = T;
leftMetricsKey = T;
note = Tbar;
rightKerningGroup = T;
rightMetricsKey = T;
unicode = 0166;
},
{
glyphname = U;
lastChange = "2020-07-10 12:18:07 +0000";
layers = (
{
anchors = (
{
name = bottom;
position = "{386, 0}";
},
{
name = ogonek;
position = "{478, 10}";
},
{
name = top;
position = "{386, 720}";
},
{
name = topright;
position = "{648, 720}";
}
);
color = 4;
layerId = "F2028F70-0529-41D4-9F63-024EA79743CD";
paths = (
{
closed = 1;
nodes = (
"64 312 LINE SMOOTH",
"64 100 OFFCURVE",
"156 -12 OFFCURVE",
"384 -12 CURVE SMOOTH",
"608 -12 OFFCURVE",
"708 100 OFFCURVE",
"708 312 CURVE SMOOTH",
"708 720 LINE",
"496 720 LINE",
"496 300 LINE SMOOTH",
"496 216 OFFCURVE",
"468 164 OFFCURVE",
"384 164 CURVE SMOOTH",
"300 164 OFFCURVE",
"276 216 OFFCURVE",
"276 300 CURVE SMOOTH",
"276 720 LINE",
"64 720 LINE"
);
}
);
width = 772;
},
{
anchors = (
{
name = bottom;
position = "{352, 0}";
},
{
name = ogonek;
position = "{418, 10}";
},
{
name = top;
position = "{352, 720}";
},
{
name = topright;
position = "{604, 720}";
}
);
color = 4;
layerId = "3E005A84-7828-4122-B6E8-61930BD9836F";
paths = (
{
closed = 1;
nodes = (
"88 268 LINE SMOOTH",
"88 84 OFFCURVE",
"176 -12 OFFCURVE",
"352 -12 CURVE SMOOTH",
"524 -12 OFFCURVE",
"616 84 OFFCURVE",
"616 268 CURVE SMOOTH",
"616 720 LINE",
"520 720 LINE",
"520 268 LINE SMOOTH",
"520 128 OFFCURVE",
"464 76 OFFCURVE",
"352 76 CURVE SMOOTH",
"240 76 OFFCURVE",
"184 128 OFFCURVE",
"184 268 CURVE SMOOTH",
"184 720 LINE",
"88 720 LINE"
);
}
);
width = 704;
}
);
leftKerningGroup = U;
note = U;
rightKerningGroup = U;
unicode = 0055;
},
{
glyphname = V;
lastChange = "2020-07-10 12:18:07 +0000";
layers = (
{
anchors = (
{
name = bottom;
position = "{354, 0}";
},
{
name = top;
position = "{354, 720}";
}
);
color = 4;
layerId = "F2028F70-0529-41D4-9F63-024EA79743CD";
paths = (
{
closed = 1;
nodes = (
"60 12 LINE",
"115 0 OFFCURVE",
"177 -8 OFFCURVE",
"236 -8 CURVE SMOOTH",
"432 -8 OFFCURVE",
"567 23 OFFCURVE",
"600 228 CURVE SMOOTH",
"680 720 LINE",
"468 720 LINE",
"396 260 LINE SMOOTH",
"386 197 OFFCURVE",
"360 168 OFFCURVE",
"284 168 CURVE SMOOTH",
"271 168 OFFCURVE",
"256 170 OFFCURVE",
"244 172 CURVE",
"264 131 LINE",
"270 148 OFFCURVE",
"280 187 OFFCURVE",
"280 232 CURVE SMOOTH",
"280 720 LINE",
"68 720 LINE",
"68 184 LINE SMOOTH",
"68 144 OFFCURVE",
"64 60 OFFCURVE",
"56 24 CURVE"
);
}
);
width = 708;
},
{
anchors = (
{
name = bottom;
position = "{323, 0}";
},
{
name = top;
position = "{323, 720}";
}
);
color = 4;
layerId = "3E005A84-7828-4122-B6E8-61930BD9836F";
paths = (
{
closed = 1;
nodes = (
"92 4 LINE",
"144 -8 OFFCURVE",
"188 -12 OFFCURVE",
"236 -12 CURVE SMOOTH",
"436 -12 OFFCURVE",
"502 76 OFFCURVE",
"526 236 CURVE SMOOTH",
"598 720 LINE",
"500 720 LINE",
"428 232 LINE SMOOTH",
"413 133 OFFCURVE",
"372 72 OFFCURVE",
"240 72 CURVE SMOOTH",
"210 72 OFFCURVE",
"189 74 OFFCURVE",
"170 79 CURVE",
"189 54 LINE",
"190 73 OFFCURVE",
"192 98 OFFCURVE",
"192 124 CURVE SMOOTH",
"192 720 LINE",
"96 720 LINE",
"96 176 LINE SMOOTH",
"96 136 OFFCURVE",
"96 56 OFFCURVE",
"90 16 CURVE"
);
}
);
width = 646;
}
);
leftKerningGroup = B;
note = V;
rightKerningGroup = V;
unicode = 0056;
},
{
glyphname = W;
lastChange = "2020-07-10 12:18:07 +0000";
layers = (
{
anchors = (
{
name = bottom;
position = "{562, 0}";
},
{
name = top;
position = "{562, 720}";
}
);
color = 4;
layerId = "F2028F70-0529-41D4-9F63-024EA79743CD";
paths = (
{
closed = 1;
nodes = (
"865 -8 OFFCURVE",
"1000 63 OFFCURVE",
"1028 240 CURVE SMOOTH",
"1104 720 LINE",
"892 720 LINE",
"824 260 LINE SMOOTH",
"815 198 OFFCURVE",
"770 168 OFFCURVE",
"690 168 CURVE SMOOTH",
"669 168 OFFCURVE",
"645 170 OFFCURVE",
"619 174 CURVE",
"701 125 LINE",
"704 157 OFFCURVE",
"704 203 OFFCURVE",
"700 260 CURVE SMOOTH",
"664 720 LINE",
"464 720 LINE",
"512 179 LINE SMOOTH",
"515 123 OFFCURVE",
"516 75 OFFCURVE",
"512 24 CURVE",
"514 12 LINE",
"569 0 OFFCURVE",
"633 -8 OFFCURVE",
"692 -8 CURVE SMOOTH"
);
},
{
closed = 1;
nodes = (
"369 -8 OFFCURVE",
"485 58 OFFCURVE",
"533 170 CURVE SMOOTH",
"561 235 LINE",
"525 573 LINE",
"420 272 LINE SMOOTH",
"399 213 OFFCURVE",
"372 168 OFFCURVE",
"292 168 CURVE SMOOTH",
"280 168 OFFCURVE",
"263 169 OFFCURVE",
"248 172 CURVE",
"288 125 LINE",
"286 157 OFFCURVE",
"289 203 OFFCURVE",
"284 260 CURVE SMOOTH",
"248 720 LINE",
"36 720 LINE",
"80 184 LINE SMOOTH",
"83 144 OFFCURVE",
"88 68 OFFCURVE",
"84 24 CURVE",
"88 12 LINE",
"137 -2 OFFCURVE",
"173 -8 OFFCURVE",
"220 -8 CURVE SMOOTH"
);
}
);
width = 1124;
},
{
anchors = (
{
name = bottom;
position = "{522, 0}";
},
{
name = top;
position = "{522, 720}";
}
);
color = 4;
layerId = "3E005A84-7828-4122-B6E8-61930BD9836F";
paths = (
{
closed = 1;
nodes = (
"826 -12 OFFCURVE",
"880 77 OFFCURVE",
"912 236 CURVE SMOOTH",
"1008 720 LINE",
"910 720 LINE",
"814 232 LINE SMOOTH",
"795 134 OFFCURVE",
"762 72 OFFCURVE",
"666 72 CURVE SMOOTH",
"630 72 OFFCURVE",
"619 75 OFFCURVE",
"595 82 CURVE",
"616 53 LINE",
"616 90 OFFCURVE",
"615 145 OFFCURVE",
"612 176 CURVE SMOOTH",
"554 720 LINE",
"456 720 LINE",
"518 176 LINE SMOOTH",
"522 136 OFFCURVE",
"526 56 OFFCURVE",
"524 16 CURVE",
"526 4 LINE",
"578 -8 OFFCURVE",
"614 -12 OFFCURVE",
"662 -12 CURVE SMOOTH"
);
},
{
closed = 1;
nodes = (
"418 -12 OFFCURVE",
"462 77 OFFCURVE",
"496 236 CURVE SMOOTH",
"514 320 LINE",
"488 584 LINE",
"414 232 LINE SMOOTH",
"394 135 OFFCURVE",
"362 72 OFFCURVE",
"266 72 CURVE SMOOTH",
"230 72 OFFCURVE",
"219 77 OFFCURVE",
"195 82 CURVE",
"216 53 LINE",
"216 90 OFFCURVE",
"216 145 OFFCURVE",
"212 176 CURVE SMOOTH",
"154 720 LINE",
"56 720 LINE",
"118 176 LINE SMOOTH",
"123 136 OFFCURVE",
"126 56 OFFCURVE",
"124 16 CURVE",
"126 4 LINE",
"178 -8 OFFCURVE",
"214 -12 OFFCURVE",
"262 -12 CURVE SMOOTH"
);
}
);
width = 1044;
}
);
leftKerningGroup = W;
note = W;
rightKerningGroup = W;
unicode = 0057;
},
{
glyphname = X;
lastChange = "2020-07-10 12:18:07 +0000";
layers = (
{
anchors = (
{
name = bottom;
position = "{362, 0}";
},
{
name = top;
position = "{362, 720}";
}
);
color = 4;
layerId = "F2028F70-0529-41D4-9F63-024EA79743CD";
paths = (
{
closed = 1;
nodes = (
"720 0 LINE",
"720 12 LINE",
"432 428 LINE",
"236 720 LINE",
"4 720 LINE",
"4 708 LINE",
"292 292 LINE",
"488 0 LINE"
);
},
{
closed = 1;
nodes = (
"236 0 LINE",
"424 296 LINE",
"716 708 LINE",
"716 720 LINE",
"488 720 LINE",
"300 424 LINE",
"8 12 LINE",
"8 0 LINE"
);
}
);
width = 724;
},
{
anchors = (
{
name = bottom;
position = "{328, 0}";
},
{
name = top;
position = "{328, 720}";
}
);
color = 4;
layerId = "3E005A84-7828-4122-B6E8-61930BD9836F";
paths = (
{
closed = 1;
nodes = (
"628 0 LINE",
"628 8 LINE",
"356 399 LINE",
"140 720 LINE",
"28 720 LINE",
"28 712 LINE",
"300 321 LINE",
"516 0 LINE"
);
},
{
closed = 1;
nodes = (
"136 0 LINE",
"352 321 LINE",
"620 712 LINE",
"620 720 LINE",
"516 720 LINE",
"300 399 LINE",
"32 8 LINE",
"32 0 LINE"
);
}
);
width = 656;
}
);
leftKerningGroup = X;
note = X;
rightKerningGroup = X;
unicode = 0058;
},
{
glyphname = Y;
lastChange = "2020-07-10 12:18:07 +0000";
layers = (
{
anchors = (
{
name = bottom;
position = "{334, 0}";
},
{
name = top;
position = "{338, 720}";
},
{
name = topleft;
position = "{20, 720}";
}
);
color = 4;
layerId = "F2028F70-0529-41D4-9F63-024EA79743CD";
paths = (
{
closed = 1;
nodes = (
"440 0 LINE",
"440 298 LINE",
"676 708 LINE",
"676 720 LINE",
"456 720 LINE",
"307 402 LINE",
"384 403 LINE",
"220 720 LINE",
"0 720 LINE",
"0 708 LINE",
"228 298 LINE",
"228 0 LINE"
);
}
);
width = 676;
},
{
anchors = (
{
name = bottom;
position = "{308, 0}";
},
{
name = top;
position = "{306, 720}";
},
{
name = topleft;
position = "{20, 720}";
}
);
color = 4;
layerId = "3E005A84-7828-4122-B6E8-61930BD9836F";
paths = (
{
closed = 1;
nodes = (
"356 0 LINE",
"356 306 LINE",
"604 712 LINE",
"604 720 LINE",
"500 720 LINE",
"290 362 LINE",
"328 362 LINE",
"116 720 LINE",
"8 720 LINE",
"8 712 LINE",
"260 300 LINE",
"260 0 LINE"
);
}
);
width = 612;
}
);
leftKerningGroup = Y;
note = Y;
rightKerningGroup = Y;
unicode = 0059;
},
{
glyphname = Z;
lastChange = "2020-07-10 12:18:07 +0000";
layers = (
{
anchors = (
{
name = bottom;
position = "{332, 0}";
},
{
name = top;
position = "{332, 720}";
}
);
color = 4;
layerId = "F2028F70-0529-41D4-9F63-024EA79743CD";
paths = (
{
closed = 1;
nodes = (
"626 0 LINE",
"626 184 LINE",
"234 184 LINE",
"270 113 LINE",
"588 564 LINE SMOOTH",
"610 596 OFFCURVE",
"624 624 OFFCURVE",
"624 664 CURVE SMOOTH",
"624 676 OFFCURVE",
"621 696 OFFCURVE",
"618 708 CURVE",
"606 720 LINE",
"44 720 LINE",
"44 536 LINE",
"420 536 LINE",
"384 607 LINE",
"66 156 LINE SMOOTH",
"44 124 OFFCURVE",
"30 96 OFFCURVE",
"30 56 CURVE SMOOTH",
"30 44 OFFCURVE",
"32 26 OFFCURVE",
"36 12 CURVE",
"48 0 LINE"
);
}
);
width = 664;
},
{
anchors = (
{
name = bottom;
position = "{293, 0}";
},
{
name = top;
position = "{293, 720}";
}
);
color = 4;
layerId = "3E005A84-7828-4122-B6E8-61930BD9836F";
paths = (
{
closed = 1;
nodes = (
"546 0 LINE",
"546 84 LINE",
"135 84 LINE",
"153 48 LINE",
"510 632 LINE SMOOTH",
"524 655 OFFCURVE",
"536 678 OFFCURVE",
"536 699 CURVE SMOOTH",
"536 703 OFFCURVE",
"535 708 OFFCURVE",
"534 712 CURVE",
"526 720 LINE",
"50 720 LINE",
"50 636 LINE",
"444 636 LINE",
"426 672 LINE",
"70 88 LINE SMOOTH",
"54 62 OFFCURVE",
"45 44 OFFCURVE",
"45 21 CURVE SMOOTH",
"45 17 OFFCURVE",
"45 13 OFFCURVE",
"46 8 CURVE",
"54 0 LINE"
);
}
);
width = 586;
}
);
leftKerningGroup = Z;
note = Z;
rightKerningGroup = Z;
unicode = 005A;
},
{
glyphname = a;
lastChange = "2021-01-21 12:34:56 +0000";
layers = (
{
anchors = (
{
name = bottom;
position = "{308, 0}";
},
{
name = ogonek;
position = "{564, 32}";
},
{
name = top;
position = "{308, 548}";
}
);
color = 4;
layerId = "F2028F70-0529-41D4-9F63-024EA79743CD";
paths = (
{
closed = 1;
nodes = (
"412 -12 OFFCURVE",
"492 6 OFFCURVE",
"564 32 CURVE",
"568 40 LINE",
"558 76 OFFCURVE",
"556 156 OFFCURVE",
"556 200 CURVE SMOOTH",
"556 316 LINE SMOOTH",
"556 512 OFFCURVE",
"437 564 OFFCURVE",
"260 564 CURVE SMOOTH",
"188 564 OFFCURVE",
"128 556 OFFCURVE",
"80 544 CURVE",
"80 388 LINE",
"92 388 LINE",
"124 402 OFFCURVE",
"176 412 OFFCURVE",
"236 412 CURVE SMOOTH",
"312 412 OFFCURVE",
"352 396 OFFCURVE",
"352 332 CURVE SMOOTH",
"352 260 LINE SMOOTH",
"352 156 OFFCURVE",
"354 144 OFFCURVE",
"376 93 CURVE",
"398 151 LINE",
"378 125 OFFCURVE",
"341 120 OFFCURVE",
"304 120 CURVE SMOOTH",
"256 120 OFFCURVE",
"228 132 OFFCURVE",
"228 168 CURVE SMOOTH",
"228 204 OFFCURVE",
"252 220 OFFCURVE",
"308 220 CURVE SMOOTH",
"332 220 OFFCURVE",
"360 216 OFFCURVE",
"372 212 CURVE",
"372 328 LINE",
"340 334 OFFCURVE",
"308 336 OFFCURVE",
"276 336 CURVE SMOOTH",
"140 336 OFFCURVE",
"36 288 OFFCURVE",
"36 164 CURVE SMOOTH",
"36 32 OFFCURVE",
"132 -12 OFFCURVE",
"316 -12 CURVE SMOOTH"
);
}
);
width = 616;
},
{
anchors = (
{
name = bottom;
position = "{295, 0}";
},
{
name = ogonek;
position = "{508, 28}";
},
{
name = top;
position = "{295, 544}";
}
);
color = 4;
layerId = "3E005A84-7828-4122-B6E8-61930BD9836F";
paths = (
{
closed = 1;
nodes = (
"346 -12 OFFCURVE",
"442 4 OFFCURVE",
"508 28 CURVE",
"510 36 LINE",
"502 72 OFFCURVE",
"502 160 OFFCURVE",
"502 200 CURVE SMOOTH",
"502 332 LINE SMOOTH",
"502 520 OFFCURVE",
"398 556 OFFCURVE",
"266 556 CURVE SMOOTH",
"214 556 OFFCURVE",
"150 546 OFFCURVE",
"102 526 CURVE",
"102 444 LINE",
"110 444 LINE",
"142 460 OFFCURVE",
"202 476 OFFCURVE",
"254 476 CURVE SMOOTH",
"358 476 OFFCURVE",
"410 456 OFFCURVE",
"410 328 CURVE SMOOTH",
"410 148 LINE SMOOTH",
"410 114 OFFCURVE",
"412 83 OFFCURVE",
"418 61 CURVE",
"436 88 LINE",
"393 73 OFFCURVE",
"343 64 OFFCURVE",
"290 64 CURVE SMOOTH",
"194 64 OFFCURVE",
"142 92 OFFCURVE",
"142 160 CURVE SMOOTH",
"142 232 OFFCURVE",
"194 256 OFFCURVE",
"302 256 CURVE SMOOTH",
"348 256 OFFCURVE",
"408 244 OFFCURVE",
"444 232 CURVE",
"444 304 LINE",
"408 316 OFFCURVE",
"360 332 OFFCURVE",
"286 332 CURVE SMOOTH",
"142 332 OFFCURVE",
"52 276 OFFCURVE",
"52 160 CURVE SMOOTH",
"52 44 OFFCURVE",
"130 -12 OFFCURVE",
"286 -12 CURVE SMOOTH"
);
}
);
width = 590;
}
);
leftKerningGroup = a;
note = a;
rightKerningGroup = a;
unicode = 0061;
},
{
glyphname = ae;
lastChange = "2020-07-10 12:18:08 +0000";
layers = (
{
anchors = (
{
name = bottom;
position = "{470, 0}";
},
{
name = top;
position = "{470, 548}";
}
);
color = 4;
layerId = "F2028F70-0529-41D4-9F63-024EA79743CD";
paths = (
{
closed = 1;
nodes = (
"775 -12 OFFCURVE",
"820 -4 OFFCURVE",
"864 12 CURVE",
"864 172 LINE",
"852 172 LINE",
"824 156 OFFCURVE",
"768 144 OFFCURVE",
"708 144 CURVE SMOOTH",
"596 144 OFFCURVE",
"556 184 OFFCURVE",
"556 256 CURVE SMOOTH",
"556 302 LINE SMOOTH",
"556 374 OFFCURVE",
"576 424 OFFCURVE",
"632 424 CURVE SMOOTH",
"683 424 OFFCURVE",
"704 392 OFFCURVE",
"704 340 CURVE SMOOTH",
"704 332 LINE",
"452 332 LINE",
"452 220 LINE",
"902 220 LINE",
"904 260 LINE SMOOTH",
"913 432 OFFCURVE",
"848 564 OFFCURVE",
"656 564 CURVE SMOOTH",
"477 564 OFFCURVE",
"364 460 OFFCURVE",
"364 276 CURVE SMOOTH",
"364 56 OFFCURVE",
"502 -12 OFFCURVE",
"698 -12 CURVE SMOOTH"
);
},
{
closed = 1;
nodes = (
"404 -12 OFFCURVE",
"480 16 OFFCURVE",
"540 44 CURVE",
"464 140 LINE",
"404 140 LINE",
"380 128 OFFCURVE",
"348 120 OFFCURVE",
"304 120 CURVE SMOOTH",
"256 120 OFFCURVE",
"228 132 OFFCURVE",
"228 168 CURVE SMOOTH",
"228 204 OFFCURVE",
"252 220 OFFCURVE",
"308 220 CURVE SMOOTH",
"348 220 OFFCURVE",
"360 212 OFFCURVE",
"372 208 CURVE",
"436 208 LINE",
"436 328 LINE",
"372 328 LINE SMOOTH",
"368 328 OFFCURVE",
"323 336 OFFCURVE",
"276 336 CURVE SMOOTH",
"140 336 OFFCURVE",
"36 288 OFFCURVE",
"36 164 CURVE SMOOTH",
"36 32 OFFCURVE",
"132 -12 OFFCURVE",
"304 -12 CURVE SMOOTH"
);
},
{
closed = 1;
nodes = (
"548 232 LINE",
"548 316 LINE SMOOTH",
"548 484 OFFCURVE",
"447 564 OFFCURVE",
"270 564 CURVE SMOOTH",
"198 564 OFFCURVE",
"138 554 OFFCURVE",
"90 540 CURVE",
"90 384 LINE",
"102 384 LINE",
"134 398 OFFCURVE",
"186 412 OFFCURVE",
"246 412 CURVE SMOOTH",
"322 412 OFFCURVE",
"362 396 OFFCURVE",
"362 332 CURVE SMOOTH",
"362 232 LINE"
);
}
);
width = 940;
},
{
anchors = (
{
name = bottom;
position = "{477, 0}";
},
{
name = top;
position = "{477, 544}";
}
);
color = 4;
layerId = "3E005A84-7828-4122-B6E8-61930BD9836F";
paths = (
{
closed = 1;
nodes = (
"780 -8 OFFCURVE",
"832 6 OFFCURVE",
"864 22 CURVE",
"864 104 LINE",
"856 104 LINE",
"828 88 OFFCURVE",
"780 72 OFFCURVE",
"712 72 CURVE SMOOTH",
"589 72 OFFCURVE",
"502 120 OFFCURVE",
"502 274 CURVE SMOOTH",
"502 280 LINE SMOOTH",
"502 428 OFFCURVE",
"576 476 OFFCURVE",
"660 476 CURVE SMOOTH",
"756 476 OFFCURVE",
"804 424 OFFCURVE",
"804 324 CURVE SMOOTH",
"804 316 LINE",
"472 316 LINE",
"472 240 LINE",
"899 240 LINE",
"900 268 LINE SMOOTH",
"906 440 OFFCURVE",
"836 556 OFFCURVE",
"660 556 CURVE SMOOTH",
"508 556 OFFCURVE",
"408 444 OFFCURVE",
"408 274 CURVE SMOOTH",
"408 92 OFFCURVE",
"504 -8 OFFCURVE",
"708 -8 CURVE SMOOTH"
);
},
{
closed = 1;
nodes = (
"382 -12 OFFCURVE",
"462 22 OFFCURVE",
"518 62 CURVE",
"482 128 LINE",
"474 128 LINE",
"430 92 OFFCURVE",
"370 66 OFFCURVE",
"282 66 CURVE SMOOTH",
"194 66 OFFCURVE",
"142 92 OFFCURVE",
"142 160 CURVE SMOOTH",
"142 232 OFFCURVE",
"194 256 OFFCURVE",
"302 256 CURVE SMOOTH",
"346 256 OFFCURVE",
"386 248 OFFCURVE",
"414 240 CURVE",
"458 240 LINE",
"458 312 LINE",
"414 312 LINE",
"390 320 OFFCURVE",
"342 332 OFFCURVE",
"286 332 CURVE SMOOTH",
"142 332 OFFCURVE",
"52 276 OFFCURVE",
"52 160 CURVE SMOOTH",
"52 44 OFFCURVE",
"130 -12 OFFCURVE",
"282 -12 CURVE SMOOTH"
);
},
{
closed = 1;
nodes = (
"502 248 LINE",
"502 332 LINE SMOOTH",
"502 520 OFFCURVE",
"398 556 OFFCURVE",
"266 556 CURVE SMOOTH",
"214 556 OFFCURVE",
"150 546 OFFCURVE",
"102 526 CURVE",
"102 444 LINE",
"110 444 LINE",
"142 460 OFFCURVE",
"202 476 OFFCURVE",
"254 476 CURVE SMOOTH",
"358 476 OFFCURVE",
"410 456 OFFCURVE",
"410 328 CURVE SMOOTH",
"410 248 LINE"
);
}
);
width = 953;
}
);
leftKerningGroup = a;
leftMetricsKey = a;
note = ae;
rightKerningGroup = e;
rightMetricsKey = e;
unicode = 00E6;
},
{
glyphname = b;
lastChange = "2021-01-25 23:01:54 +0000";
layers = (
{
anchors = (
{
name = bottom;
position = "{342, 0}";
},
{
name = top;
position = "{342, 760}";
}
);
color = 4;
layerId = "F2028F70-0529-41D4-9F63-024EA79743CD";
paths = (
{
closed = 1;
nodes = (
"488 -12 OFFCURVE",
"644 64 OFFCURVE",
"644 280 CURVE SMOOTH",
"644 456 OFFCURVE",
"551 564 OFFCURVE",
"380 564 CURVE SMOOTH",
"337 564 OFFCURVE",
"297 556 OFFCURVE",
"248 536 CURVE",
"248 400 LINE",
"262 406 OFFCURVE",
"296 412 OFFCURVE",
"316 412 CURVE SMOOTH",
"392 412 OFFCURVE",
"428 360 OFFCURVE",
"428 276 CURVE SMOOTH",
"428 196 OFFCURVE",
"396 136 OFFCURVE",
"312 136 CURVE SMOOTH",
"282 136 OFFCURVE",
"246 143 OFFCURVE",
"240 138 CURVE",
"276 94 LINE",
"276 118 OFFCURVE",
"280 151 OFFCURVE",
"280 192 CURVE SMOOTH",
"280 760 LINE",
"60 760 LINE",
"56 752 LINE",
"65 716 OFFCURVE",
"68 576 OFFCURVE",
"68 536 CURVE SMOOTH",
"68 188 LINE SMOOTH",
"68 148 OFFCURVE",
"68 68 OFFCURVE",
"60 32 CURVE",
"64 24 LINE",
"120 4 OFFCURVE",
"201 -12 OFFCURVE",
"276 -12 CURVE SMOOTH"
);
}
);
width = 684;
},
{
anchors = (
{
name = bottom;
position = "{309, 0}";
},
{
name = top;
position = "{309, 760}";
}
);
color = 4;
layerId = "3E005A84-7828-4122-B6E8-61930BD9836F";
paths = (
{
closed = 1;
nodes = (
"460 -12 OFFCURVE",
"566 96 OFFCURVE",
"566 276 CURVE SMOOTH",
"566 448 OFFCURVE",
"464 556 OFFCURVE",
"292 556 CURVE SMOOTH",
"252 556 OFFCURVE",
"202 548 OFFCURVE",
"156 528 CURVE",
"156 452 LINE",
"208 469 OFFCURVE",
"232 476 OFFCURVE",
"284 476 CURVE SMOOTH",
"408 476 OFFCURVE",
"472 400 OFFCURVE",
"472 276 CURVE SMOOTH",
"472 140 OFFCURVE",
"412 68 OFFCURVE",
"284 68 CURVE SMOOTH",
"239 68 OFFCURVE",
"196 77 OFFCURVE",
"164 88 CURVE",
"180 60 LINE",
"184 80 OFFCURVE",
"188 108 OFFCURVE",
"188 148 CURVE SMOOTH",
"188 760 LINE",
"90 760 LINE",
"88 752 LINE",
"96 716 OFFCURVE",
"96 628 OFFCURVE",
"96 588 CURVE SMOOTH",
"96 196 LINE SMOOTH",
"96 156 OFFCURVE",
"96 68 OFFCURVE",
"88 32 CURVE",
"90 24 LINE",
"142 4 OFFCURVE",
"216 -12 OFFCURVE",
"284 -12 CURVE SMOOTH"
);
}
);
width = 618;
}
);
leftKerningGroup = b;
note = b;
rightKerningGroup = b;
unicode = 0062;
},
{
glyphname = c;
lastChange = "2020-07-10 12:18:07 +0000";
layers = (
{
anchors = (
{
name = bottom;
position = "{264, 0}";
},
{
name = top;
position = "{264, 548}";
}
);
color = 4;
layerId = "F2028F70-0529-41D4-9F63-024EA79743CD";
paths = (
{
closed = 1;
nodes = (
"40 68 OFFCURVE",
"178 -12 OFFCURVE",
"368 -12 CURVE SMOOTH",
"412 -12 OFFCURVE",
"456 -6 OFFCURVE",
"488 4 CURVE",
"488 168 LINE",
"476 168 LINE",
"456 160 OFFCURVE",
"432 152 OFFCURVE",
"396 152 CURVE SMOOTH",
"304 152 OFFCURVE",
"256 196 OFFCURVE",
"256 276 CURVE SMOOTH",
"256 356 OFFCURVE",
"304 400 OFFCURVE",
"396 400 CURVE SMOOTH",
"432 400 OFFCURVE",
"456 392 OFFCURVE",
"476 384 CURVE",
"488 384 LINE",
"488 548 LINE",
"456 558 OFFCURVE",
"412 564 OFFCURVE",
"368 564 CURVE SMOOTH",
"184 564 OFFCURVE",
"40 484 OFFCURVE",
"40 276 CURVE SMOOTH"
);
}
);
width = 528;
},
{
anchors = (
{
name = bottom;
position = "{252, 0}";
},
{
name = top;
position = "{252, 544}";
}
);
color = 4;
layerId = "3E005A84-7828-4122-B6E8-61930BD9836F";
paths = (
{
closed = 1;
nodes = (
"52 96 OFFCURVE",
"160 -8 OFFCURVE",
"344 -8 CURVE SMOOTH",
"392 -8 OFFCURVE",
"436 0 OFFCURVE",
"468 14 CURVE",
"468 96 LINE",
"460 96 LINE",
"432 82 OFFCURVE",
"392 72 OFFCURVE",
"344 72 CURVE SMOOTH",
"224 72 OFFCURVE",
"146 140 OFFCURVE",
"146 274 CURVE SMOOTH",
"146 408 OFFCURVE",
"224 476 OFFCURVE",
"344 476 CURVE SMOOTH",
"392 476 OFFCURVE",
"432 466 OFFCURVE",
"460 452 CURVE",
"468 452 LINE",
"468 534 LINE",
"436 548 OFFCURVE",
"392 556 OFFCURVE",
"344 556 CURVE SMOOTH",
"164 556 OFFCURVE",
"52 452 OFFCURVE",
"52 274 CURVE SMOOTH"
);
}
);
width = 504;
}
);
leftKerningGroup = c;
note = c;
rightKerningGroup = c;
unicode = 0063;
},
{
glyphname = d;
lastChange = "2021-01-21 11:04:04 +0000";
layers = (
{
anchors = (
{
name = bottom;
position = "{342, 0}";
},
{
name = center;
position = "{494, 650}";
},
{
name = top;
position = "{342, 760}";
},
{
name = topright;
position = "{746, 548}";
}
);
background = {
paths = (
{
closed = 1;
nodes = (
"480 -12 OFFCURVE",
"564 4 OFFCURVE",
"620 28 CURVE",
"624 36 LINE",
"616 72 OFFCURVE",
"616 152 OFFCURVE",
"616 192 CURVE SMOOTH",
"616 760 LINE",
"396 760 LINE",
"392 752 LINE",
"399 723 OFFCURVE",
"404 626 OFFCURVE",
"404 569 CURVE SMOOTH",
"404 497 LINE",
"432 548 LINE",
"423 551 OFFCURVE",
"384 564 OFFCURVE",
"332 563 CURVE SMOOTH",
"152 560 OFFCURVE",
"40 452 OFFCURVE",
"40 276 CURVE SMOOTH",
"40 60 OFFCURVE",
"172 -12 OFFCURVE",
"368 -12 CURVE SMOOTH"
);
},
{
closed = 1;
nodes = (
"432 148 LINE",
"420 144 OFFCURVE",
"404 140 OFFCURVE",
"372 140 CURVE SMOOTH",
"283 140 OFFCURVE",
"256 204 OFFCURVE",
"256 276 CURVE SMOOTH",
"256 358 OFFCURVE",
"289 412 OFFCURVE",
"372 412 CURVE SMOOTH",
"396 412 OFFCURVE",
"412 406 OFFCURVE",
"432 400 CURVE",
"404 465 LINE",
"404 196 LINE SMOOTH",
"404 155 OFFCURVE",
"404 122 OFFCURVE",
"422 98 CURVE"
);
}
);
};
color = 4;
layerId = "F2028F70-0529-41D4-9F63-024EA79743CD";
paths = (
{
closed = 1;
nodes = (
"480 -12 OFFCURVE",
"564 4 OFFCURVE",
"620 28 CURVE",
"624 36 LINE",
"616 72 OFFCURVE",
"616 152 OFFCURVE",
"616 192 CURVE SMOOTH",
"616 760 LINE",
"396 760 LINE",
"392 752 LINE",
"399 723 OFFCURVE",
"404 626 OFFCURVE",
"404 569 CURVE SMOOTH",
"404 196 LINE SMOOTH",
"404 155 OFFCURVE",
"404 122 OFFCURVE",
"422 98 CURVE",
"432 148 LINE",
"420 144 OFFCURVE",
"404 140 OFFCURVE",
"372 140 CURVE SMOOTH",
"283 140 OFFCURVE",
"256 204 OFFCURVE",
"256 276 CURVE SMOOTH",
"256 358 OFFCURVE",
"289 412 OFFCURVE",
"372 412 CURVE SMOOTH",
"396 412 OFFCURVE",
"412 406 OFFCURVE",
"432 400 CURVE",
"432 548 LINE",
"423 551 OFFCURVE",
"384 564 OFFCURVE",
"332 563 CURVE SMOOTH",
"152 560 OFFCURVE",
"40 452 OFFCURVE",
"40 276 CURVE SMOOTH",
"40 60 OFFCURVE",
"172 -12 OFFCURVE",
"368 -12 CURVE SMOOTH"
);
}
);
width = 684;
},
{
anchors = (
{
name = bottom;
position = "{309, 0}";
},
{
name = center;
position = "{448, 656}";
},
{
name = top;
position = "{309, 760}";
},
{
name = topright;
position = "{642, 544}";
}
);
background = {
paths = (
{
closed = 1;
nodes = (
"408 -12 OFFCURVE",
"472 6 OFFCURVE",
"528 28 CURVE",
"530 36 LINE",
"522 72 OFFCURVE",
"522 160 OFFCURVE",
"522 200 CURVE SMOOTH",
"522 760 LINE",
"424 760 LINE",
"422 752 LINE",
"430 716 OFFCURVE",
"430 628 OFFCURVE",
"430 588 CURVE SMOOTH",
"430 516 LINE",
"447 538 LINE",
"424 548 OFFCURVE",
"386 556 OFFCURVE",
"340 556 CURVE SMOOTH",
"168 556 OFFCURVE",
"52 452 OFFCURVE",
"52 274 CURVE SMOOTH",
"52 96 OFFCURVE",
"152 -12 OFFCURVE",
"332 -12 CURVE SMOOTH"
);
},
{
closed = 1;
nodes = (
"454 91 LINE",
"424 78 OFFCURVE",
"387 68 OFFCURVE",
"340 68 CURVE SMOOTH",
"214 68 OFFCURVE",
"146 132 OFFCURVE",
"146 274 CURVE SMOOTH",
"146 404 OFFCURVE",
"216 476 OFFCURVE",
"346 476 CURVE SMOOTH",
"395 476 OFFCURVE",
"428 464 OFFCURVE",
"443 458 CURVE",
"430 496 LINE",
"430 152 LINE SMOOTH",
"430 118 OFFCURVE",
"432 86 OFFCURVE",
"438 63 CURVE"
);
}
);
};
color = 4;
layerId = "3E005A84-7828-4122-B6E8-61930BD9836F";
paths = (
{
closed = 1;
nodes = (
"408 -12 OFFCURVE",
"472 6 OFFCURVE",
"528 28 CURVE",
"530 36 LINE",
"522 72 OFFCURVE",
"522 160 OFFCURVE",
"522 200 CURVE SMOOTH",
"522 760 LINE",
"424 760 LINE",
"422 752 LINE",
"430 716 OFFCURVE",
"430 628 OFFCURVE",
"430 588 CURVE SMOOTH",
"430 152 LINE SMOOTH",
"430 118 OFFCURVE",
"432 86 OFFCURVE",
"438 63 CURVE",
"454 91 LINE",
"424 78 OFFCURVE",
"387 68 OFFCURVE",
"340 68 CURVE SMOOTH",
"214 68 OFFCURVE",
"146 132 OFFCURVE",
"146 274 CURVE SMOOTH",
"146 404 OFFCURVE",
"216 476 OFFCURVE",
"346 476 CURVE SMOOTH",
"395 476 OFFCURVE",
"428 464 OFFCURVE",
"443 458 CURVE",
"447 538 LINE",
"424 548 OFFCURVE",
"386 556 OFFCURVE",
"340 556 CURVE SMOOTH",
"168 556 OFFCURVE",
"52 452 OFFCURVE",
"52 274 CURVE SMOOTH",
"52 96 OFFCURVE",
"152 -12 OFFCURVE",
"332 -12 CURVE SMOOTH"
);
}
);
width = 618;
}
);
leftKerningGroup = c;
note = d;
rightKerningGroup = d;
unicode = 0064;
},
{
glyphname = eth;
lastChange = "2020-07-10 12:18:08 +0000";
layers = (
{
color = 4;
layerId = "F2028F70-0529-41D4-9F63-024EA79743CD";
paths = (
{
closed = 1;
nodes = (
"443 419 LINE",
"418 446 OFFCURVE",
"371 472 OFFCURVE",
"296 472 CURVE SMOOTH",
"124 472 OFFCURVE",
"40 372 OFFCURVE",
"40 244 CURVE SMOOTH",
"40 68 OFFCURVE",
"162 -12 OFFCURVE",
"318 -12 CURVE SMOOTH",
"546 -12 OFFCURVE",
"620 156 OFFCURVE",
"620 344 CURVE SMOOTH",
"620 585 OFFCURVE",
"473 732 OFFCURVE",
"222 732 CURVE SMOOTH",
"178 732 OFFCURVE",
"132 728 OFFCURVE",
"100 720 CURVE",
"100 560 LINE",
"108 560 LINE",
"136 570 OFFCURVE",
"174 576 OFFCURVE",
"214 576 CURVE SMOOTH",
"320 576 OFFCURVE",
"420 537 OFFCURVE",
"420 381 CURVE SMOOTH",
"420 234 OFFCURVE",
"411 144 OFFCURVE",
"318 144 CURVE SMOOTH",
"262 144 OFFCURVE",
"232 180 OFFCURVE",
"232 236 CURVE SMOOTH",
"232 288 OFFCURVE",
"266 324 OFFCURVE",
"336 324 CURVE SMOOTH",
"392 324 OFFCURVE",
"416 307 OFFCURVE",
"436 280 CURVE"
);
},
{
closed = 1;
nodes = (
"498 724 LINE",
"422 788 LINE",
"226 552 LINE",
"302 488 LINE"
);
}
);
width = 660;
},
{
color = 4;
layerId = "3E005A84-7828-4122-B6E8-61930BD9836F";
paths = (
{
closed = 1;
nodes = (
"469 393 LINE",
"441 431 OFFCURVE",
"385 468 OFFCURVE",
"284 468 CURVE SMOOTH",
"152 468 OFFCURVE",
"48 388 OFFCURVE",
"48 228 CURVE SMOOTH",
"48 96 OFFCURVE",
"128 -12 OFFCURVE",
"288 -12 CURVE SMOOTH",
"476 -12 OFFCURVE",
"556 132 OFFCURVE",
"556 348 CURVE SMOOTH",
"556 612 OFFCURVE",
"416 732 OFFCURVE",
"228 732 CURVE SMOOTH",
"172 732 OFFCURVE",
"132 724 OFFCURVE",
"100 712 CURVE",
"100 624 LINE",
"108 624 LINE",
"136 636 OFFCURVE",
"172 648 OFFCURVE",
"228 648 CURVE SMOOTH",
"352 648 OFFCURVE",
"460 584 OFFCURVE",
"460 352 CURVE SMOOTH",
"460 165 OFFCURVE",
"419 68 OFFCURVE",
"292 68 CURVE SMOOTH",
"184 68 OFFCURVE",
"140 144 OFFCURVE",
"140 232 CURVE SMOOTH",
"140 328 OFFCURVE",
"192 388 OFFCURVE",
"300 388 CURVE SMOOTH",
"380 388 OFFCURVE",
"440 343 OFFCURVE",
"472 295 CURVE"
);
},
{
closed = 1;
nodes = (
"492 736 LINE",
"448 780 LINE",
"248 580 LINE",
"292 536 LINE"
);
}
);
width = 612;
}
);
leftKerningGroup = c;
note = eth;
rightKerningGroup = b;
unicode = 00F0;
},
{
glyphname = e;
lastChange = "2020-07-10 12:18:07 +0000";
layers = (
{
anchors = (
{
name = bottom;
position = "{318, 0}";
},
{
name = ogonek;
position = "{560, 12}";
},
{
name = top;
position = "{318, 548}";
}
);
color = 4;
layerId = "F2028F70-0529-41D4-9F63-024EA79743CD";
paths = (
{
closed = 1;
nodes = (
"461 -12 OFFCURVE",
"516 -4 OFFCURVE",
"560 12 CURVE",
"560 172 LINE",
"548 172 LINE",
"520 156 OFFCURVE",
"464 144 OFFCURVE",
"404 144 CURVE SMOOTH",
"312 144 OFFCURVE",
"252 168 OFFCURVE",
"252 252 CURVE SMOOTH",
"252 296 LINE SMOOTH",
"252 392 OFFCURVE",
"275 424 OFFCURVE",
"328 424 CURVE SMOOTH",
"379 424 OFFCURVE",
"400 392 OFFCURVE",
"400 340 CURVE SMOOTH",
"400 336 LINE",
"168 336 LINE",
"168 220 LINE",
"598 220 LINE",
"600 260 LINE SMOOTH",
"609 432 OFFCURVE",
"524 564 OFFCURVE",
"332 564 CURVE SMOOTH",
"153 564 OFFCURVE",
"40 460 OFFCURVE",
"40 276 CURVE SMOOTH",
"40 56 OFFCURVE",
"188 -12 OFFCURVE",
"384 -12 CURVE SMOOTH"
);
}
);
width = 636;
},
{
anchors = (
{
name = bottom;
position = "{299, 0}";
},
{
name = ogonek;
position = "{508, 22}";
},
{
name = top;
position = "{299, 544}";
}
);
color = 4;
layerId = "3E005A84-7828-4122-B6E8-61930BD9836F";
paths = (
{
closed = 1;
nodes = (
"424 -8 OFFCURVE",
"476 6 OFFCURVE",
"508 22 CURVE",
"508 104 LINE",
"500 104 LINE",
"472 88 OFFCURVE",
"424 72 OFFCURVE",
"356 72 CURVE SMOOTH",
"233 72 OFFCURVE",
"146 120 OFFCURVE",
"146 274 CURVE SMOOTH",
"146 280 LINE SMOOTH",
"146 428 OFFCURVE",
"220 476 OFFCURVE",
"304 476 CURVE SMOOTH",
"400 476 OFFCURVE",
"448 424 OFFCURVE",
"448 324 CURVE SMOOTH",
"448 316 LINE",
"116 316 LINE",
"116 240 LINE",
"543 240 LINE",
"544 268 LINE SMOOTH",
"550 440 OFFCURVE",
"480 556 OFFCURVE",
"304 556 CURVE SMOOTH",
"152 556 OFFCURVE",
"52 444 OFFCURVE",
"52 274 CURVE SMOOTH",
"52 92 OFFCURVE",
"148 -8 OFFCURVE",
"352 -8 CURVE SMOOTH"
);
}
);
width = 597;
}
);
leftKerningGroup = c;
note = e;
rightKerningGroup = e;
unicode = 0065;
},
{
glyphname = schwa;
lastChange = "2020-07-10 12:18:08 +0000";
layers = (
{
anchors = (
{
name = bottom;
position = "{297, 548}";
},
{
name = ogonek;
position = "{88, 526}";
},
{
name = top;
position = "{297, 4}";
}
);
color = 4;
layerId = "3E005A84-7828-4122-B6E8-61930BD9836F";
paths = (
{
closed = 1;
nodes = (
"172 556 OFFCURVE",
"120 542 OFFCURVE",
"88 526 CURVE",
"88 444 LINE",
"96 444 LINE",
"124 460 OFFCURVE",
"172 476 OFFCURVE",
"240 476 CURVE SMOOTH",
"363 476 OFFCURVE",
"450 428 OFFCURVE",
"450 274 CURVE SMOOTH",
"450 268 LINE SMOOTH",
"450 120 OFFCURVE",
"376 72 OFFCURVE",
"292 72 CURVE SMOOTH",
"196 72 OFFCURVE",
"148 124 OFFCURVE",
"148 224 CURVE SMOOTH",
"148 232 LINE",
"480 232 LINE",
"480 308 LINE",
"53 308 LINE",
"52 280 LINE SMOOTH",
"46 108 OFFCURVE",
"116 -8 OFFCURVE",
"292 -8 CURVE SMOOTH",
"444 -8 OFFCURVE",
"544 104 OFFCURVE",
"544 274 CURVE SMOOTH",
"544 456 OFFCURVE",
"448 556 OFFCURVE",
"244 556 CURVE SMOOTH"
);
}
);
width = 596;
},
{
anchors = (
{
name = bottom;
position = "{323, 552}";
},
{
name = ogonek;
position = "{81, 540}";
},
{
name = top;
position = "{323, 4}";
}
);
color = 4;
layerId = "F2028F70-0529-41D4-9F63-024EA79743CD";
paths = (
{
closed = 1;
nodes = (
"180 564 OFFCURVE",
"125 556 OFFCURVE",
"81 540 CURVE",
"81 380 LINE",
"93 380 LINE",
"121 396 OFFCURVE",
"177 408 OFFCURVE",
"237 408 CURVE SMOOTH",
"329 408 OFFCURVE",
"389 384 OFFCURVE",
"389 300 CURVE SMOOTH",
"389 256 LINE SMOOTH",
"389 160 OFFCURVE",
"366 128 OFFCURVE",
"313 128 CURVE SMOOTH",
"262 128 OFFCURVE",
"241 160 OFFCURVE",
"241 212 CURVE SMOOTH",
"241 216 LINE",
"473 216 LINE",
"473 332 LINE",
"43 332 LINE",
"41 292 LINE SMOOTH",
"32 120 OFFCURVE",
"117 -12 OFFCURVE",
"309 -12 CURVE SMOOTH",
"488 -12 OFFCURVE",
"601 92 OFFCURVE",
"601 276 CURVE SMOOTH",
"601 496 OFFCURVE",
"453 564 OFFCURVE",
"257 564 CURVE SMOOTH"
);
}
);
width = 641;
}
);
note = e;
rightKerningGroup = b;
rightMetricsKey = o;
unicode = 0259;
},
{
glyphname = f;
lastChange = "2020-07-10 12:18:07 +0000";
layers = (
{
anchors = (
{
name = bottom;
position = "{232, 0}";
},
{
name = top;
position = "{232, 760}";
}
);
color = 4;
layerId = "F2028F70-0529-41D4-9F63-024EA79743CD";
paths = (
{
closed = 1;
nodes = (
"312 0 LINE",
"312 532 LINE SMOOTH",
"312 600 OFFCURVE",
"348 624 OFFCURVE",
"404 624 CURVE SMOOTH",
"428 624 OFFCURVE",
"448 618 OFFCURVE",
"460 612 CURVE",
"472 612 LINE",
"472 764 LINE",
"452 770 OFFCURVE",
"420 776 OFFCURVE",
"380 776 CURVE SMOOTH",
"216 776 OFFCURVE",
"100 708 OFFCURVE",
"100 536 CURVE SMOOTH",
"100 0 LINE"
);
},
{
closed = 1;
nodes = (
"432 388 LINE",
"432 548 LINE",
"8 548 LINE",
"8 388 LINE"
);
}
);
width = 464;
},
{
anchors = (
{
name = bottom;
position = "{168, 0}";
},
{
name = top;
position = "{168, 760}";
}
);
color = 4;
layerId = "3E005A84-7828-4122-B6E8-61930BD9836F";
paths = (
{
closed = 1;
nodes = (
"192 0 LINE",
"192 544 LINE SMOOTH",
"192 639 OFFCURVE",
"215 680 OFFCURVE",
"296 680 CURVE SMOOTH",
"328 680 OFFCURVE",
"344 676 OFFCURVE",
"364 668 CURVE",
"372 668 LINE",
"372 748 LINE",
"352 756 OFFCURVE",
"328 760 OFFCURVE",
"296 760 CURVE SMOOTH",
"163 760 OFFCURVE",
"100 687 OFFCURVE",
"100 544 CURVE SMOOTH",
"100 0 LINE"
);
},
{
closed = 1;
nodes = (
"344 464 LINE",
"344 544 LINE",
"16 544 LINE",
"16 464 LINE"
);
}
);
width = 336;
}
);
leftKerningGroup = f;
note = f;
rightKerningGroup = f;
unicode = 0066;
},
{
glyphname = g;
lastChange = "2020-07-10 12:18:07 +0000";
layers = (
{
anchors = (
{
name = bottom;
position = "{342, -240}";
},
{
name = top;
position = "{342, 548}";
}
);
color = 4;
layerId = "F2028F70-0529-41D4-9F63-024EA79743CD";
paths = (
{
closed = 1;
nodes = (
"468 -240 OFFCURVE",
"616 -156 OFFCURVE",
"616 52 CURVE SMOOTH",
"616 348 LINE SMOOTH",
"616 392 OFFCURVE",
"616 472 OFFCURVE",
"624 508 CURVE",
"620 516 LINE",
"572 540 OFFCURVE",
"496 564 OFFCURVE",
"392 564 CURVE SMOOTH",
"200 564 OFFCURVE",
"40 480 OFFCURVE",
"40 276 CURVE SMOOTH",
"40 92 OFFCURVE",
"154 4 OFFCURVE",
"336 4 CURVE SMOOTH",
"359 4 OFFCURVE",
"384 5 OFFCURVE",
"416 10 CURVE",
"416 158 LINE",
"396 152 OFFCURVE",
"384 152 OFFCURVE",
"372 152 CURVE SMOOTH",
"290 152 OFFCURVE",
"256 200 OFFCURVE",
"256 280 CURVE SMOOTH",
"256 348 OFFCURVE",
"289 408 OFFCURVE",
"372 408 CURVE SMOOTH",
"405 408 OFFCURVE",
"438 401 OFFCURVE",
"438 405 CURVE",
"423 438 LINE",
"407 426 OFFCURVE",
"404 375 OFFCURVE",
"404 320 CURVE SMOOTH",
"404 20 LINE SMOOTH",
"404 -60 OFFCURVE",
"328 -76 OFFCURVE",
"242 -76 CURVE SMOOTH",
"202 -76 OFFCURVE",
"148 -67 OFFCURVE",
"116 -52 CURVE",
"100 -52 LINE",
"100 -216 LINE",
"136 -232 OFFCURVE",
"206 -240 OFFCURVE",
"262 -240 CURVE SMOOTH"
);
}
);
width = 684;
},
{
anchors = (
{
name = bottom;
position = "{309, -240}";
},
{
name = top;
position = "{309, 544}";
}
);
color = 4;
layerId = "3E005A84-7828-4122-B6E8-61930BD9836F";
paths = (
{
closed = 1;
nodes = (
"424 -240 OFFCURVE",
"522 -144 OFFCURVE",
"522 16 CURVE SMOOTH",
"522 348 LINE SMOOTH",
"522 388 OFFCURVE",
"522 476 OFFCURVE",
"530 512 CURVE",
"528 520 LINE",
"476 540 OFFCURVE",
"404 556 OFFCURVE",
"344 556 CURVE SMOOTH",
"160 556 OFFCURVE",
"52 448 OFFCURVE",
"52 276 CURVE SMOOTH",
"52 96 OFFCURVE",
"168 4 OFFCURVE",
"340 4 CURVE SMOOTH",
"372 4 OFFCURVE",
"405 9 OFFCURVE",
"450 20 CURVE",
"452 104 LINE",
"412 88 OFFCURVE",
"381 84 OFFCURVE",
"344 84 CURVE SMOOTH",
"212 84 OFFCURVE",
"146 148 OFFCURVE",
"146 276 CURVE SMOOTH",
"146 408 OFFCURVE",
"212 476 OFFCURVE",
"344 476 CURVE SMOOTH",
"387 476 OFFCURVE",
"424 466 OFFCURVE",
"453 457 CURVE",
"436 485 LINE",
"432 460 OFFCURVE",
"430 432 OFFCURVE",
"430 400 CURVE SMOOTH",
"430 16 LINE SMOOTH",
"430 -104 OFFCURVE",
"382 -160 OFFCURVE",
"252 -160 CURVE SMOOTH",
"209 -160 OFFCURVE",
"152 -152 OFFCURVE",
"108 -132 CURVE",
"100 -132 LINE",
"100 -214 LINE",
"140 -232 OFFCURVE",
"204 -240 OFFCURVE",
"252 -240 CURVE SMOOTH"
);
}
);
width = 618;
}
);
leftKerningGroup = c;
note = g;
rightKerningGroup = g;
unicode = 0067;
},
{
glyphname = h;
lastChange = "2021-01-25 22:53:07 +0000";
layers = (
{
anchors = (
{
name = bottom;
position = "{346, 0}";
},
{
name = center;
position = "{191, 650}";
},
{
name = top;
position = "{170, 760}";
}
);
color = 4;
layerId = "F2028F70-0529-41D4-9F63-024EA79743CD";
paths = (
{
closed = 1;
nodes = (
"280 0 LINE",
"280 482 LINE",
"241 393 LINE",
"243 388 OFFCURVE",
"293 400 OFFCURVE",
"320 400 CURVE SMOOTH",
"378 400 OFFCURVE",
"416 376 OFFCURVE",
"416 308 CURVE SMOOTH",
"416 0 LINE",
"628 0 LINE",
"628 308 LINE SMOOTH",
"628 480 OFFCURVE",
"536 564 OFFCURVE",
"376 564 CURVE SMOOTH",
"315 564 OFFCURVE",
"273 554 OFFCURVE",
"235 538 CURVE",
"280 467 LINE",
"280 760 LINE",
"60 760 LINE",
"56 752 LINE",
"65 716 OFFCURVE",
"68 636 OFFCURVE",
"68 596 CURVE SMOOTH",
"68 0 LINE"
);
}
);
width = 692;
},
{
anchors = (
{
name = bottom;
position = "{320, 0}";
},
{
name = center;
position = "{172, 656}";
},
{
name = top;
position = "{139, 760}";
}
);
color = 4;
layerId = "3E005A84-7828-4122-B6E8-61930BD9836F";
paths = (
{
closed = 1;
nodes = (
"188 0 LINE",
"188 485 LINE",
"168 439 LINE",
"204 455 OFFCURVE",
"256 472 OFFCURVE",
"308 472 CURVE SMOOTH",
"396 472 OFFCURVE",
"456 440 OFFCURVE",
"456 308 CURVE SMOOTH",
"456 0 LINE",
"548 0 LINE",
"548 320 LINE SMOOTH",
"548 508 OFFCURVE",
"440 556 OFFCURVE",
"328 556 CURVE SMOOTH",
"261 556 OFFCURVE",
"211 538 OFFCURVE",
"169 518 CURVE",
"188 489 LINE",
"188 760 LINE",
"90 760 LINE",
"88 752 LINE",
"96 716 OFFCURVE",
"96 628 OFFCURVE",
"96 588 CURVE SMOOTH",
"96 0 LINE"
);
}
);
width = 640;
}
);
leftKerningGroup = b;
note = h;
rightKerningGroup = a;
unicode = 0068;
},
{
glyphname = idotless;
lastChange = "2020-07-10 12:18:08 +0000";
layers = (
{
anchors = (
{
name = bottom;
position = "{174, 0}";
},
{
name = ogonek;
position = "{280, 0}";
},
{
name = top;
position = "{174, 548}";
}
);
color = 4;
layerId = "F2028F70-0529-41D4-9F63-024EA79743CD";
paths = (
{
closed = 1;
nodes = (
"280 0 LINE",
"280 548 LINE",
"60 548 LINE",
"56 540 LINE",
"65 504 OFFCURVE",
"68 424 OFFCURVE",
"68 384 CURVE SMOOTH",
"68 0 LINE"
);
}
);
width = 348;
},
{
anchors = (
{
name = bottom;
position = "{142, 0}";
},
{
name = ogonek;
position = "{188, 0}";
},
{
name = top;
position = "{142, 544}";
}
);
color = 4;
layerId = "3E005A84-7828-4122-B6E8-61930BD9836F";
paths = (
{
closed = 1;
nodes = (
"188 0 LINE",
"188 544 LINE",
"90 544 LINE",
"88 536 LINE",
"96 500 OFFCURVE",
"96 412 OFFCURVE",
"96 372 CURVE SMOOTH",
"96 0 LINE"
);
}
);
width = 284;
}
);
leftKerningGroup = b;
note = dotlessi;
rightKerningGroup = d;
unicode = 0131;
},
{
color = 4;
glyphname = ij;
lastChange = "2020-07-10 12:18:08 +0000";
layers = (
{
anchors = (
{
name = _top;
position = "{174, 548}";
},
{
name = bottom;
position = "{174, 0}";
},
{
name = ogonek;
position = "{280, 0}";
},
{
name = top;
position = "{174, 548}";
}
);
layerId = "F2028F70-0529-41D4-9F63-024EA79743CD";
paths = (
{
closed = 1;
nodes = (
"280 0 LINE",
"280 548 LINE",
"60 548 LINE",
"56 540 LINE",
"65 504 OFFCURVE",
"68 424 OFFCURVE",
"68 384 CURVE SMOOTH",
"68 0 LINE"
);
},
{
closed = 1;
nodes = (
"238 620 OFFCURVE",
"282 656 OFFCURVE",
"282 724 CURVE SMOOTH",
"282 792 OFFCURVE",
"238 828 OFFCURVE",
"174 828 CURVE SMOOTH",
"110 828 OFFCURVE",
"66 792 OFFCURVE",
"66 724 CURVE SMOOTH",
"66 656 OFFCURVE",
"110 620 OFFCURVE",
"174 620 CURVE SMOOTH"
);
},
{
closed = 1;
nodes = (
"515 -240 OFFCURVE",
"627 -168 OFFCURVE",
"627 20 CURVE SMOOTH",
"627 548 LINE",
"407 548 LINE",
"403 540 LINE",
"412 504 OFFCURVE",
"415 424 OFFCURVE",
"415 384 CURVE SMOOTH",
"415 6 LINE SMOOTH",
"415 -52 OFFCURVE",
"387 -76 OFFCURVE",
"331 -76 CURVE SMOOTH",
"300 -76 OFFCURVE",
"287 -72 OFFCURVE",
"267 -64 CURVE",
"255 -64 LINE",
"255 -228 LINE",
"283 -236 OFFCURVE",
"319 -240 OFFCURVE",
"363 -240 CURVE SMOOTH"
);
},
{
closed = 1;
nodes = (
"583 620 OFFCURVE",
"627 656 OFFCURVE",
"627 724 CURVE SMOOTH",
"627 792 OFFCURVE",
"583 828 OFFCURVE",
"519 828 CURVE SMOOTH",
"455 828 OFFCURVE",
"411 792 OFFCURVE",
"411 724 CURVE SMOOTH",
"411 656 OFFCURVE",
"455 620 OFFCURVE",
"519 620 CURVE SMOOTH"
);
}
);
width = 692;
},
{
anchors = (
{
name = _top;
position = "{142, 544}";
},
{
name = bottom;
position = "{142, 0}";
},
{
name = ogonek;
position = "{188, 0}";
},
{
name = top;
position = "{142, 544}";
}
);
layerId = "3E005A84-7828-4122-B6E8-61930BD9836F";
paths = (
{
closed = 1;
nodes = (
"188 0 LINE",
"188 544 LINE",
"90 544 LINE",
"88 536 LINE",
"96 500 OFFCURVE",
"96 412 OFFCURVE",
"96 372 CURVE SMOOTH",
"96 0 LINE"
);
},
{
closed = 1;
nodes = (
"176 640 OFFCURVE",
"202 664 OFFCURVE",
"202 700 CURVE SMOOTH",
"202 736 OFFCURVE",
"176 760 OFFCURVE",
"142 760 CURVE SMOOTH",
"108 760 OFFCURVE",
"82 736 OFFCURVE",
"82 700 CURVE SMOOTH",
"82 664 OFFCURVE",
"108 640 OFFCURVE",
"142 640 CURVE SMOOTH"
);
},
{
closed = 1;
nodes = (
"416 -240 OFFCURVE",
"472 -148 OFFCURVE",
"472 -48 CURVE SMOOTH",
"472 544 LINE",
"374 544 LINE",
"372 536 LINE",
"380 500 OFFCURVE",
"380 412 OFFCURVE",
"380 372 CURVE SMOOTH",
"380 -52 LINE SMOOTH",
"380 -124 OFFCURVE",
"340 -160 OFFCURVE",
"276 -160 CURVE SMOOTH",
"248 -160 OFFCURVE",
"228 -154 OFFCURVE",
"212 -148 CURVE",
"204 -148 LINE",
"204 -228 LINE",
"220 -234 OFFCURVE",
"244 -240 OFFCURVE",
"280 -240 CURVE SMOOTH"
);
},
{
closed = 1;
nodes = (
"460 640 OFFCURVE",
"486 664 OFFCURVE",
"486 700 CURVE SMOOTH",
"486 736 OFFCURVE",
"460 760 OFFCURVE",
"426 760 CURVE SMOOTH",
"392 760 OFFCURVE",
"366 736 OFFCURVE",
"366 700 CURVE SMOOTH",
"366 664 OFFCURVE",
"392 640 OFFCURVE",
"426 640 CURVE SMOOTH"
);
}
);
width = 568;
}
);
leftKerningGroup = b;
note = ij;
rightKerningGroup = d;
unicode = 0133;
},
{
glyphname = jdotless;
lastChange = "2020-07-10 12:18:08 +0000";
layers = (
{
anchors = (
{
name = bottom;
position = "{172, -240}";
},
{
name = top;
position = "{172, 548}";
}
);
color = 4;
layerId = "F2028F70-0529-41D4-9F63-024EA79743CD";
paths = (
{
closed = 1;
nodes = (
"168 -240 OFFCURVE",
"280 -168 OFFCURVE",
"280 20 CURVE SMOOTH",
"280 548 LINE",
"60 548 LINE",
"56 540 LINE",
"65 504 OFFCURVE",
"68 424 OFFCURVE",
"68 384 CURVE SMOOTH",
"68 6 LINE SMOOTH",
"68 -52 OFFCURVE",
"40 -76 OFFCURVE",
"-16 -76 CURVE SMOOTH",
"-47 -76 OFFCURVE",
"-60 -72 OFFCURVE",
"-80 -64 CURVE",
"-92 -64 LINE",
"-92 -228 LINE",
"-64 -236 OFFCURVE",
"-28 -240 OFFCURVE",
"16 -240 CURVE SMOOTH"
);
}
);
width = 344;
},
{
anchors = (
{
name = bottom;
position = "{142, -240}";
},
{
name = top;
position = "{142, 544}";
}
);
color = 4;
layerId = "3E005A84-7828-4122-B6E8-61930BD9836F";
paths = (
{
closed = 1;
nodes = (
"132 -240 OFFCURVE",
"188 -148 OFFCURVE",
"188 -48 CURVE SMOOTH",
"188 544 LINE",
"90 544 LINE",
"88 536 LINE",
"96 500 OFFCURVE",
"96 412 OFFCURVE",
"96 372 CURVE SMOOTH",
"96 -52 LINE SMOOTH",
"96 -124 OFFCURVE",
"56 -160 OFFCURVE",
"-8 -160 CURVE SMOOTH",
"-36 -160 OFFCURVE",
"-56 -154 OFFCURVE",
"-72 -148 CURVE",
"-80 -148 LINE",
"-80 -228 LINE",
"-64 -234 OFFCURVE",
"-40 -240 OFFCURVE",
"-4 -240 CURVE SMOOTH"
);
}
);
width = 284;
}
);
leftKerningGroup = b;
note = dotlessj;
rightKerningGroup = d;
unicode = 0237;
},
{
glyphname = k;
lastChange = "2020-07-10 12:18:07 +0000";
layers = (
{
anchors = (
{
name = bottom;
position = "{334, 0}";
},
{
name = top;
position = "{334, 760}";
}
);
color = 4;
layerId = "F2028F70-0529-41D4-9F63-024EA79743CD";
paths = (
{
closed = 1;
nodes = (
"280 760 LINE",
"60 760 LINE",
"56 752 LINE",
"65 716 OFFCURVE",
"68 636 OFFCURVE",
"68 596 CURVE SMOOTH",
"68 0 LINE",
"280 0 LINE"
);
},
{
closed = 1;
nodes = (
"432 0 LINE",
"672 0 LINE",
"672 12 LINE",
"652 28 OFFCURVE",
"616 64 OFFCURVE",
"592 98 CURVE SMOOTH",
"397 369 LINE",
"396 232 LINE",
"575 435 LINE SMOOTH",
"603 467 OFFCURVE",
"643 520 OFFCURVE",
"664 536 CURVE",
"664 548 LINE",
"444 548 LINE",
"240 288 LINE"
);
}
);
width = 668;
},
{
anchors = (
{
name = bottom;
position = "{270, 0}";
},
{
name = top;
position = "{270, 760}";
}
);
color = 4;
layerId = "3E005A84-7828-4122-B6E8-61930BD9836F";
paths = (
{
closed = 1;
nodes = (
"188 760 LINE",
"90 760 LINE",
"88 752 LINE",
"96 716 OFFCURVE",
"96 628 OFFCURVE",
"96 588 CURVE SMOOTH",
"96 0 LINE",
"188 0 LINE"
);
},
{
closed = 1;
nodes = (
"424 0 LINE",
"532 0 LINE",
"532 12 LINE",
"514 28 OFFCURVE",
"478 71 OFFCURVE",
"452 100 CURVE SMOOTH",
"259 316 LINE",
"258 261 LINE",
"452 460 LINE SMOOTH",
"480 488 OFFCURVE",
"508 516 OFFCURVE",
"528 532 CURVE",
"528 544 LINE",
"424 544 LINE",
"176 284 LINE"
);
}
);
width = 540;
}
);
leftKerningGroup = b;
leftMetricsKey = l;
note = k;
rightKerningGroup = k;
unicode = 006B;
},
{
glyphname = kgreenlandic;
lastChange = "2020-07-10 12:18:08 +0000";
layers = (
{
color = 4;
layerId = "3E005A84-7828-4122-B6E8-61930BD9836F";
paths = (
{
closed = 1;
nodes = (
"512 0 LINE",
"512 12 LINE",
"494 28 OFFCURVE",
"457 70 OFFCURVE",
"432 100 CURVE SMOOTH",
"259 304 LINE",
"258 257 LINE",
"430 452 LINE SMOOTH",
"456 482 OFFCURVE",
"488 516 OFFCURVE",
"508 532 CURVE",
"508 544 LINE",
"404 544 LINE",
"176 272 LINE",
"404 0 LINE"
);
},
{
closed = 1;
nodes = (
"188 0 LINE",
"188 544 LINE",
"90 544 LINE",
"88 536 LINE",
"96 500 OFFCURVE",
"96 412 OFFCURVE",
"96 372 CURVE SMOOTH",
"96 0 LINE"
);
}
);
width = 520;
},
{
color = 4;
layerId = "F2028F70-0529-41D4-9F63-024EA79743CD";
paths = (
{
closed = 1;
nodes = (
"660 0 LINE",
"660 12 LINE",
"640 28 OFFCURVE",
"604 65 OFFCURVE",
"580 98 CURVE SMOOTH",
"389 369 LINE",
"388 232 LINE",
"555 435 LINE SMOOTH",
"582 467 OFFCURVE",
"631 520 OFFCURVE",
"652 536 CURVE",
"652 548 LINE",
"432 548 LINE",
"240 288 LINE",
"420 0 LINE"
);
},
{
closed = 1;
nodes = (
"280 0 LINE",
"280 548 LINE",
"60 548 LINE",
"56 540 LINE",
"65 504 OFFCURVE",
"68 424 OFFCURVE",
"68 384 CURVE SMOOTH",
"68 0 LINE"
);
}
);
width = 656;
}
);
leftKerningGroup = b;
rightKerningGroup = k;
rightMetricsKey = k;
unicode = 0138;
},
{
glyphname = l;
lastChange = "2020-07-10 12:18:07 +0000";
layers = (
{
anchors = (
{
name = bottom;
position = "{174, 0}";
},
{
name = center;
position = "{174, 370}";
},
{
name = periodCAT;
position = "{412, 356}";
},
{
name = top;
position = "{174, 760}";
},
{
name = topright;
position = "{410, 548}";
}
);
color = 4;
layerId = "F2028F70-0529-41D4-9F63-024EA79743CD";
paths = (
{
closed = 1;
nodes = (
"280 0 LINE",
"280 760 LINE",
"60 760 LINE",
"56 752 LINE",
"65 716 OFFCURVE",
"68 636 OFFCURVE",
"68 596 CURVE SMOOTH",
"68 0 LINE"
);
}
);
width = 348;
},
{
anchors = (
{
name = bottom;
position = "{142, 0}";
},
{
name = center;
position = "{154, 392}";
},
{
name = periodCAT;
position = "{332, 360}";
},
{
name = top;
position = "{142, 760}";
},
{
name = topright;
position = "{284, 544}";
}
);
color = 4;
layerId = "3E005A84-7828-4122-B6E8-61930BD9836F";
paths = (
{
closed = 1;
nodes = (
"188 0 LINE",
"188 760 LINE",
"90 760 LINE",
"88 752 LINE",
"96 716 OFFCURVE",
"96 628 OFFCURVE",
"96 588 CURVE SMOOTH",
"96 0 LINE"
);
}
);
width = 284;
}
);
leftKerningGroup = b;
note = l;
rightKerningGroup = d;
unicode = 006C;
},
{
glyphname = lj;
lastChange = "2020-07-10 12:18:08 +0000";
layers = (
{
anchors = (
{
name = bottom;
position = "{142, 0}";
},
{
name = center;
position = "{154, 392}";
},
{
name = periodCAT;
position = "{332, 360}";
},
{
name = top;
position = "{142, 760}";
},
{
name = topright;
position = "{284, 544}";
}
);
color = 4;
components = (
{
name = jdotless;
transform = "{1, 0, 0, 1, 284, 0}";
},
{
name = _part.dot;
transform = "{1, 0, 0, 1, 286, 0}";
}
);
layerId = "3E005A84-7828-4122-B6E8-61930BD9836F";
paths = (
{
closed = 1;
nodes = (
"188 0 LINE",
"188 760 LINE",
"90 760 LINE",
"88 752 LINE",
"96 716 OFFCURVE",
"96 628 OFFCURVE",
"96 588 CURVE SMOOTH",
"96 0 LINE"
);
}
);
width = 568;
},
{
anchors = (
{
name = bottom;
position = "{174, 0}";
},
{
name = center;
position = "{174, 370}";
},
{
name = periodCAT;
position = "{412, 356}";
},
{
name = top;
position = "{174, 760}";
},
{
name = topright;
position = "{410, 548}";
}
);
color = 4;
components = (
{
name = jdotless;
transform = "{1, 0, 0, 1, 348, 0}";
},
{
name = _part.dot;
transform = "{1, 0, 0, 1, 344, 0}";
}
);
layerId = "F2028F70-0529-41D4-9F63-024EA79743CD";
paths = (
{
closed = 1;
nodes = (
"280 0 LINE",
"280 760 LINE",
"60 760 LINE",
"56 752 LINE",
"65 716 OFFCURVE",
"68 636 OFFCURVE",
"68 596 CURVE SMOOTH",
"68 0 LINE"
);
}
);
width = 692;
}
);
leftKerningGroup = b;
rightKerningGroup = d;
unicode = 01C9;
},
{
glyphname = m;
lastChange = "2020-07-10 12:18:07 +0000";
layers = (
{
anchors = (
{
name = bottom;
position = "{514, 0}";
},
{
name = top;
position = "{514, 548}";
}
);
color = 4;
layerId = "F2028F70-0529-41D4-9F63-024EA79743CD";
paths = (
{
closed = 1;
nodes = (
"280 0 LINE",
"280 316 LINE SMOOTH",
"280 372 OFFCURVE",
"274 404 OFFCURVE",
"264 425 CURVE",
"236 380 LINE",
"260 388 OFFCURVE",
"288 400 OFFCURVE",
"324 400 CURVE SMOOTH",
"376 400 OFFCURVE",
"412 380 OFFCURVE",
"412 304 CURVE SMOOTH",
"412 0 LINE",
"624 0 LINE",
"624 308 LINE SMOOTH",
"624 516 OFFCURVE",
"476 564 OFFCURVE",
"338 564 CURVE SMOOTH",
"228 564 OFFCURVE",
"132 536 OFFCURVE",
"60 504 CURVE",
"56 496 LINE",
"65 460 OFFCURVE",
"68 376 OFFCURVE",
"68 336 CURVE SMOOTH",
"68 0 LINE"
);
},
{
closed = 1;
nodes = (
"964 0 LINE",
"964 308 LINE SMOOTH",
"964 528 OFFCURVE",
"820 564 OFFCURVE",
"696 564 CURVE SMOOTH",
"617 564 OFFCURVE",
"544 544 OFFCURVE",
"496 522 CURVE",
"600 392 LINE",
"614 396 OFFCURVE",
"640 400 OFFCURVE",
"664 400 CURVE SMOOTH",
"716 400 OFFCURVE",
"752 380 OFFCURVE",
"752 304 CURVE SMOOTH",
"752 0 LINE"
);
}
);
width = 1028;
},
{
anchors = (
{
name = bottom;
position = "{478, 0}";
},
{
name = top;
position = "{478, 544}";
}
);
color = 4;
layerId = "3E005A84-7828-4122-B6E8-61930BD9836F";
paths = (
{
closed = 1;
nodes = (
"188 0 LINE",
"188 396 LINE SMOOTH",
"188 428 OFFCURVE",
"185 460 OFFCURVE",
"180 480 CURVE",
"164 452 LINE",
"200 465 OFFCURVE",
"253 476 OFFCURVE",
"296 476 CURVE SMOOTH",
"380 476 OFFCURVE",
"440 444 OFFCURVE",
"440 312 CURVE SMOOTH",
"440 0 LINE",
"532 0 LINE",
"532 320 LINE SMOOTH",
"532 508 OFFCURVE",
"424 556 OFFCURVE",
"308 556 CURVE SMOOTH",
"244 556 OFFCURVE",
"142 536 OFFCURVE",
"90 516 CURVE",
"88 508 LINE",
"96 472 OFFCURVE",
"96 384 OFFCURVE",
"96 344 CURVE SMOOTH",
"96 0 LINE"
);
},
{
closed = 1;
nodes = (
"864 0 LINE",
"864 320 LINE SMOOTH",
"864 508 OFFCURVE",
"764 556 OFFCURVE",
"632 556 CURVE SMOOTH",
"575 556 OFFCURVE",
"506 539 OFFCURVE",
"440 512 CURVE",
"496 448 LINE",
"541 466 OFFCURVE",
"581 476 OFFCURVE",
"620 476 CURVE SMOOTH",
"720 476 OFFCURVE",
"772 444 OFFCURVE",
"772 312 CURVE SMOOTH",
"772 0 LINE"
);
}
);
width = 956;
}
);
leftKerningGroup = m;
leftMetricsKey = n;
note = m;
rightKerningGroup = a;
rightMetricsKey = n;
unicode = 006D;
},
{
glyphname = n;
lastChange = "2020-07-10 12:18:07 +0000";
layers = (
{
anchors = (
{
name = bottom;
position = "{346, 0}";
},
{
name = top;
position = "{346, 548}";
}
);
color = 4;
layerId = "F2028F70-0529-41D4-9F63-024EA79743CD";
paths = (
{
closed = 1;
nodes = (
"280 0 LINE",
"280 316 LINE SMOOTH",
"280 372 OFFCURVE",
"274 404 OFFCURVE",
"264 425 CURVE",
"236 380 LINE",
"260 388 OFFCURVE",
"288 400 OFFCURVE",
"324 400 CURVE SMOOTH",
"376 400 OFFCURVE",
"416 380 OFFCURVE",
"416 304 CURVE SMOOTH",
"416 0 LINE",
"628 0 LINE",
"628 308 LINE SMOOTH",
"628 516 OFFCURVE",
"480 564 OFFCURVE",
"338 564 CURVE SMOOTH",
"228 564 OFFCURVE",
"132 536 OFFCURVE",
"60 504 CURVE",
"56 496 LINE",
"65 460 OFFCURVE",
"68 376 OFFCURVE",
"68 336 CURVE SMOOTH",
"68 0 LINE"
);
}
);
width = 692;
},
{
anchors = (
{
name = bottom;
position = "{320, 0}";
},
{
name = top;
position = "{320, 544}";
}
);
color = 4;
layerId = "3E005A84-7828-4122-B6E8-61930BD9836F";
paths = (
{
closed = 1;
nodes = (
"188 0 LINE",
"188 396 LINE SMOOTH",
"188 428 OFFCURVE",
"185 460 OFFCURVE",
"180 480 CURVE",
"164 452 LINE",
"200 465 OFFCURVE",
"253 476 OFFCURVE",
"296 476 CURVE SMOOTH",
"396 476 OFFCURVE",
"456 444 OFFCURVE",
"456 312 CURVE SMOOTH",
"456 0 LINE",
"548 0 LINE",
"548 320 LINE SMOOTH",
"548 508 OFFCURVE",
"440 556 OFFCURVE",
"308 556 CURVE SMOOTH",
"248 556 OFFCURVE",
"142 536 OFFCURVE",
"90 516 CURVE",
"88 508 LINE",
"96 472 OFFCURVE",
"96 384 OFFCURVE",
"96 344 CURVE SMOOTH",
"96 0 LINE"
);
}
);
width = 640;
}
);
leftKerningGroup = m;
note = n;
rightKerningGroup = a;
unicode = 006E;
},
{
glyphname = eng;
lastChange = "2020-07-10 12:18:08 +0000";
layers = (
{
color = 4;
components = (
{
name = n;
}
);
layerId = "F2028F70-0529-41D4-9F63-024EA79743CD";
paths = (
{
closed = 1;
nodes = (
"516 -240 OFFCURVE",
"628 -156 OFFCURVE",
"628 20 CURVE SMOOTH",
"628 184 LINE",
"416 184 LINE",
"416 6 LINE SMOOTH",
"416 -52 OFFCURVE",
"408 -76 OFFCURVE",
"352 -76 CURVE SMOOTH",
"343 -76 OFFCURVE",
"330 -76 OFFCURVE",
"310 -72 CURVE",
"298 -72 LINE",
"298 -228 LINE",
"326 -236 OFFCURVE",
"362 -240 OFFCURVE",
"394 -240 CURVE SMOOTH"
);
}
);
width = 692;
},
{
color = 4;
components = (
{
name = n;
}
);
layerId = "3E005A84-7828-4122-B6E8-61930BD9836F";
paths = (
{
closed = 1;
nodes = (
"492 -240 OFFCURVE",
"548 -148 OFFCURVE",
"548 -48 CURVE SMOOTH",
"548 172 LINE",
"456 172 LINE",
"456 -52 LINE SMOOTH",
"456 -124 OFFCURVE",
"416 -160 OFFCURVE",
"352 -160 CURVE SMOOTH",
"324 -160 OFFCURVE",
"304 -154 OFFCURVE",
"288 -148 CURVE",
"280 -148 LINE",
"280 -228 LINE",
"296 -234 OFFCURVE",
"320 -240 OFFCURVE",
"356 -240 CURVE SMOOTH"
);
}
);
width = 640;
}
);
leftKerningGroup = m;
leftMetricsKey = n;
note = eng;
rightKerningGroup = a;
rightMetricsKey = n;
unicode = 014B;
},
{
glyphname = nj;
lastChange = "2020-07-10 12:18:08 +0000";
layers = (
{
anchors = (
{
name = _top;
position = "{783, 544}";
},
{
name = bottom;
position = "{320, 0}";
},
{
name = top;
position = "{320, 544}";
}
);
color = 4;
layerId = "3E005A84-7828-4122-B6E8-61930BD9836F";
paths = (
{
closed = 1;
nodes = (
"188 0 LINE",
"188 396 LINE SMOOTH",
"188 428 OFFCURVE",
"185 460 OFFCURVE",
"180 480 CURVE",
"164 452 LINE",
"200 465 OFFCURVE",
"253 476 OFFCURVE",
"296 476 CURVE SMOOTH",
"396 476 OFFCURVE",
"456 444 OFFCURVE",
"456 312 CURVE SMOOTH",
"456 0 LINE",
"548 0 LINE",
"548 320 LINE SMOOTH",
"548 508 OFFCURVE",
"440 556 OFFCURVE",
"308 556 CURVE SMOOTH",
"248 556 OFFCURVE",
"142 536 OFFCURVE",
"90 516 CURVE",
"88 508 LINE",
"96 472 OFFCURVE",
"96 384 OFFCURVE",
"96 344 CURVE SMOOTH",
"96 0 LINE"
);
},
{
closed = 1;
nodes = (
"772 -240 OFFCURVE",
"828 -148 OFFCURVE",
"828 -48 CURVE SMOOTH",
"828 544 LINE",
"730 544 LINE",
"728 536 LINE",
"736 500 OFFCURVE",
"736 412 OFFCURVE",
"736 372 CURVE SMOOTH",
"736 -52 LINE SMOOTH",
"736 -124 OFFCURVE",
"696 -160 OFFCURVE",
"632 -160 CURVE SMOOTH",
"604 -160 OFFCURVE",
"584 -154 OFFCURVE",
"568 -148 CURVE",
"560 -148 LINE",
"560 -228 LINE",
"576 -234 OFFCURVE",
"600 -240 OFFCURVE",
"636 -240 CURVE SMOOTH"
);
},
{
closed = 1;
nodes = (
"817 640 OFFCURVE",
"843 664 OFFCURVE",
"843 700 CURVE SMOOTH",
"843 736 OFFCURVE",
"817 760 OFFCURVE",
"783 760 CURVE SMOOTH",
"749 760 OFFCURVE",
"723 736 OFFCURVE",
"723 700 CURVE SMOOTH",
"723 664 OFFCURVE",
"749 640 OFFCURVE",
"783 640 CURVE SMOOTH"
);
}
);
width = 924;
},
{
anchors = (
{
name = _top;
position = "{864, 548}";
},
{
name = bottom;
position = "{346, 0}";
},
{
name = top;
position = "{346, 548}";
}
);
color = 4;
layerId = "F2028F70-0529-41D4-9F63-024EA79743CD";
paths = (
{
closed = 1;
nodes = (
"280 0 LINE",
"280 316 LINE SMOOTH",
"280 372 OFFCURVE",
"274 404 OFFCURVE",
"264 425 CURVE",
"236 380 LINE",
"260 388 OFFCURVE",
"288 400 OFFCURVE",
"324 400 CURVE SMOOTH",
"376 400 OFFCURVE",
"416 380 OFFCURVE",
"416 304 CURVE SMOOTH",
"416 0 LINE",
"628 0 LINE",
"628 308 LINE SMOOTH",
"628 516 OFFCURVE",
"480 564 OFFCURVE",
"338 564 CURVE SMOOTH",
"228 564 OFFCURVE",
"132 536 OFFCURVE",
"60 504 CURVE",
"56 496 LINE",
"65 460 OFFCURVE",
"68 376 OFFCURVE",
"68 336 CURVE SMOOTH",
"68 0 LINE"
);
},
{
closed = 1;
nodes = (
"860 -240 OFFCURVE",
"972 -168 OFFCURVE",
"972 20 CURVE SMOOTH",
"972 548 LINE",
"752 548 LINE",
"748 540 LINE",
"757 504 OFFCURVE",
"760 424 OFFCURVE",
"760 384 CURVE SMOOTH",
"760 6 LINE SMOOTH",
"760 -52 OFFCURVE",
"732 -76 OFFCURVE",
"676 -76 CURVE SMOOTH",
"645 -76 OFFCURVE",
"632 -72 OFFCURVE",
"612 -64 CURVE",
"600 -64 LINE",
"600 -228 LINE",
"628 -236 OFFCURVE",
"664 -240 OFFCURVE",
"708 -240 CURVE SMOOTH"
);
},
{
closed = 1;
nodes = (
"928 620 OFFCURVE",
"972 656 OFFCURVE",
"972 724 CURVE SMOOTH",
"972 792 OFFCURVE",
"928 828 OFFCURVE",
"864 828 CURVE SMOOTH",
"800 828 OFFCURVE",
"756 792 OFFCURVE",
"756 724 CURVE SMOOTH",
"756 656 OFFCURVE",
"800 620 OFFCURVE",
"864 620 CURVE SMOOTH"
);
}
);
width = 1036;
}
);
leftKerningGroup = m;
rightKerningGroup = d;
unicode = 01CC;
},
{
glyphname = o;
lastChange = "2020-07-10 12:18:07 +0000";
layers = (
{
anchors = (
{
name = bottom;
position = "{336, 0}";
},
{
name = center;
position = "{336, 274}";
},
{
name = ogonek;
position = "{437, 0}";
},
{
name = top;
position = "{336, 548}";
},
{
name = topright;
position = "{447, 548}";
}
);
color = 4;
layerId = "F2028F70-0529-41D4-9F63-024EA79743CD";
paths = (
{
closed = 1;
nodes = (
"40 76 OFFCURVE",
"164 -12 OFFCURVE",
"336 -12 CURVE SMOOTH",
"508 -12 OFFCURVE",
"632 76 OFFCURVE",
"632 276 CURVE SMOOTH",
"632 476 OFFCURVE",
"508 564 OFFCURVE",
"336 564 CURVE SMOOTH",
"164 564 OFFCURVE",
"40 476 OFFCURVE",
"40 276 CURVE SMOOTH"
);
},
{
closed = 1;
nodes = (
"256 368 OFFCURVE",
"280 416 OFFCURVE",
"336 416 CURVE SMOOTH",
"392 416 OFFCURVE",
"416 368 OFFCURVE",
"416 276 CURVE SMOOTH",
"416 184 OFFCURVE",
"392 136 OFFCURVE",
"336 136 CURVE SMOOTH",
"280 136 OFFCURVE",
"256 184 OFFCURVE",
"256 276 CURVE SMOOTH"
);
}
);
width = 672;
},
{
anchors = (
{
name = bottom;
position = "{302, 0}";
},
{
name = center;
position = "{302, 272}";
},
{
name = ogonek;
position = "{369, 0}";
},
{
name = top;
position = "{302, 544}";
},
{
name = topright;
position = "{384, 544}";
}
);
color = 4;
layerId = "3E005A84-7828-4122-B6E8-61930BD9836F";
paths = (
{
closed = 1;
nodes = (
"52 96 OFFCURVE",
"150 -8 OFFCURVE",
"302 -8 CURVE SMOOTH",
"450 -8 OFFCURVE",
"552 96 OFFCURVE",
"552 274 CURVE SMOOTH",
"552 452 OFFCURVE",
"450 556 OFFCURVE",
"302 556 CURVE SMOOTH",
"154 556 OFFCURVE",
"52 452 OFFCURVE",
"52 274 CURVE SMOOTH"
);
},
{
closed = 1;
nodes = (
"146 408 OFFCURVE",
"202 476 OFFCURVE",
"302 476 CURVE SMOOTH",
"402 476 OFFCURVE",
"458 408 OFFCURVE",
"458 274 CURVE SMOOTH",
"458 140 OFFCURVE",
"402 72 OFFCURVE",
"302 72 CURVE SMOOTH",
"202 72 OFFCURVE",
"146 140 OFFCURVE",
"146 274 CURVE SMOOTH"
);
}
);
width = 604;
}
);
leftKerningGroup = c;
note = o;
rightKerningGroup = b;
unicode = 006F;
},
{
glyphname = oe;
lastChange = "2020-07-10 12:18:08 +0000";
layers = (
{
color = 4;
layerId = "F2028F70-0529-41D4-9F63-024EA79743CD";
paths = (
{
closed = 1;
nodes = (
"40 76 OFFCURVE",
"164 -12 OFFCURVE",
"336 -12 CURVE SMOOTH",
"488 -12 OFFCURVE",
"612 76 OFFCURVE",
"612 276 CURVE SMOOTH",
"612 476 OFFCURVE",
"488 564 OFFCURVE",
"336 564 CURVE SMOOTH",
"164 564 OFFCURVE",
"40 476 OFFCURVE",
"40 276 CURVE SMOOTH"
);
},
{
closed = 1;
nodes = (
"256 368 OFFCURVE",
"280 416 OFFCURVE",
"336 416 CURVE SMOOTH",
"392 416 OFFCURVE",
"416 368 OFFCURVE",
"416 276 CURVE SMOOTH",
"416 184 OFFCURVE",
"392 136 OFFCURVE",
"336 136 CURVE SMOOTH",
"280 136 OFFCURVE",
"256 184 OFFCURVE",
"256 276 CURVE SMOOTH"
);
},
{
closed = 1;
nodes = (
"837 -12 OFFCURVE",
"892 -4 OFFCURVE",
"936 12 CURVE",
"936 172 LINE",
"924 172 LINE",
"896 156 OFFCURVE",
"840 144 OFFCURVE",
"780 144 CURVE SMOOTH",
"688 144 OFFCURVE",
"628 168 OFFCURVE",
"628 252 CURVE SMOOTH",
"628 296 LINE SMOOTH",
"628 392 OFFCURVE",
"651 424 OFFCURVE",
"704 424 CURVE SMOOTH",
"755 424 OFFCURVE",
"776 392 OFFCURVE",
"776 340 CURVE SMOOTH",
"776 336 LINE",
"544 336 LINE",
"544 220 LINE",
"974 220 LINE",
"976 260 LINE SMOOTH",
"985 432 OFFCURVE",
"900 564 OFFCURVE",
"708 564 CURVE SMOOTH",
"559 564 OFFCURVE",
"446 460 OFFCURVE",
"446 276 CURVE SMOOTH",
"446 56 OFFCURVE",
"594 -12 OFFCURVE",
"760 -12 CURVE SMOOTH"
);
}
);
width = 1012;
},
{
color = 4;
layerId = "3E005A84-7828-4122-B6E8-61930BD9836F";
paths = (
{
closed = 1;
nodes = (
"52 96 OFFCURVE",
"150 -8 OFFCURVE",
"302 -8 CURVE SMOOTH",
"450 -8 OFFCURVE",
"552 96 OFFCURVE",
"552 274 CURVE SMOOTH",
"552 452 OFFCURVE",
"450 556 OFFCURVE",
"302 556 CURVE SMOOTH",
"154 556 OFFCURVE",
"52 452 OFFCURVE",
"52 274 CURVE SMOOTH"
);
},
{
closed = 1;
nodes = (
"146 408 OFFCURVE",
"202 476 OFFCURVE",
"302 476 CURVE SMOOTH",
"402 476 OFFCURVE",
"458 408 OFFCURVE",
"458 274 CURVE SMOOTH",
"458 140 OFFCURVE",
"402 72 OFFCURVE",
"302 72 CURVE SMOOTH",
"202 72 OFFCURVE",
"146 140 OFFCURVE",
"146 274 CURVE SMOOTH"
);
},
{
closed = 1;
nodes = (
"830 -8 OFFCURVE",
"882 6 OFFCURVE",
"914 22 CURVE",
"914 104 LINE",
"906 104 LINE",
"878 88 OFFCURVE",
"830 72 OFFCURVE",
"762 72 CURVE SMOOTH",
"639 72 OFFCURVE",
"552 120 OFFCURVE",
"552 274 CURVE SMOOTH",
"552 280 LINE SMOOTH",
"552 428 OFFCURVE",
"626 476 OFFCURVE",
"710 476 CURVE SMOOTH",
"806 476 OFFCURVE",
"854 424 OFFCURVE",
"854 324 CURVE SMOOTH",
"854 316 LINE",
"522 316 LINE",
"522 240 LINE",
"949 240 LINE",
"950 268 LINE SMOOTH",
"956 440 OFFCURVE",
"886 556 OFFCURVE",
"710 556 CURVE SMOOTH",
"558 556 OFFCURVE",
"458 444 OFFCURVE",
"458 274 CURVE SMOOTH",
"458 92 OFFCURVE",
"554 -8 OFFCURVE",
"758 -8 CURVE SMOOTH"
);
}
);
width = 1003;
}
);
leftKerningGroup = c;
leftMetricsKey = o;
note = oe;
rightKerningGroup = e;
rightMetricsKey = e;
unicode = 0153;
},
{
glyphname = p;
lastChange = "2021-01-21 12:32:47 +0000";
layers = (
{
anchors = (
{
name = bottom;
position = "{342, 0}";
},
{
name = top;
position = "{342, 548}";
}
);
background = {
paths = (
{
closed = 1;
nodes = (
"280 -232 LINE",
"280 78 LINE",
"258 -4 LINE",
"253 -5 OFFCURVE",
"304 -12 OFFCURVE",
"348 -12 CURVE SMOOTH",
"568 -12 OFFCURVE",
"644 136 OFFCURVE",
"644 276 CURVE SMOOTH",
"644 500 OFFCURVE",
"480 564 OFFCURVE",
"328 564 CURVE SMOOTH",
"228 564 OFFCURVE",
"147 540 OFFCURVE",
"60 504 CURVE",
"56 496 LINE",
"65 460 OFFCURVE",
"68 380 OFFCURVE",
"68 340 CURVE SMOOTH",
"68 -232 LINE"
);
},
{
closed = 1;
nodes = (
"280 336 LINE SMOOTH",
"280 391 OFFCURVE",
"277 419 OFFCURVE",
"258 439 CURVE",
"246 389 LINE",
"248 397 OFFCURVE",
"284 412 OFFCURVE",
"320 412 CURVE SMOOTH",
"400 412 OFFCURVE",
"428 352 OFFCURVE",
"428 276 CURVE SMOOTH",
"428 196 OFFCURVE",
"400 136 OFFCURVE",
"312 136 CURVE SMOOTH",
"273 136 OFFCURVE",
"257 152 OFFCURVE",
"287 118 CURVE",
"280 53 LINE"
);
}
);
};
color = 4;
layerId = "F2028F70-0529-41D4-9F63-024EA79743CD";
paths = (
{
closed = 1;
nodes = (
"280 -232 LINE",
"280 336 LINE SMOOTH",
"280 391 OFFCURVE",
"277 419 OFFCURVE",
"258 439 CURVE",
"246 389 LINE",
"248 397 OFFCURVE",
"284 412 OFFCURVE",
"320 412 CURVE SMOOTH",
"400 412 OFFCURVE",
"428 352 OFFCURVE",
"428 276 CURVE SMOOTH",
"428 196 OFFCURVE",
"400 136 OFFCURVE",
"312 136 CURVE SMOOTH",
"296 136 OFFCURVE",
"280 138 OFFCURVE",
"268 142 CURVE",
"258 -4 LINE",
"272 -8 OFFCURVE",
"312 -12 OFFCURVE",
"348 -12 CURVE SMOOTH",
"568 -12 OFFCURVE",
"644 136 OFFCURVE",
"644 276 CURVE SMOOTH",
"644 500 OFFCURVE",
"480 564 OFFCURVE",
"328 564 CURVE SMOOTH",
"228 564 OFFCURVE",
"147 540 OFFCURVE",
"60 504 CURVE",
"56 496 LINE",
"65 460 OFFCURVE",
"68 380 OFFCURVE",
"68 340 CURVE SMOOTH",
"68 -232 LINE"
);
}
);
width = 684;
},
{
anchors = (
{
name = bottom;
position = "{309, 0}";
},
{
name = top;
position = "{309, 544}";
}
);
background = {
paths = (
{
closed = 1;
nodes = (
"188 -232 LINE",
"188 39 LINE",
"170 5 LINE",
"194 -1 OFFCURVE",
"239 -12 OFFCURVE",
"280 -12 CURVE SMOOTH",
"456 -12 OFFCURVE",
"566 96 OFFCURVE",
"566 274 CURVE SMOOTH",
"566 452 OFFCURVE",
"460 556 OFFCURVE",
"292 556 CURVE SMOOTH",
"224 556 OFFCURVE",
"148 540 OFFCURVE",
"90 516 CURVE",
"88 508 LINE",
"96 472 OFFCURVE",
"96 384 OFFCURVE",
"96 348 CURVE SMOOTH",
"96 -232 LINE"
);
},
{
closed = 1;
nodes = (
"188 396 LINE SMOOTH",
"188 427 OFFCURVE",
"186 458 OFFCURVE",
"182 478 CURVE",
"167 450 LINE",
"194 464 OFFCURVE",
"239 476 OFFCURVE",
"284 476 CURVE SMOOTH",
"404 476 OFFCURVE",
"472 408 OFFCURVE",
"472 274 CURVE SMOOTH",
"472 140 OFFCURVE",
"408 68 OFFCURVE",
"280 68 CURVE SMOOTH",
"223 68 OFFCURVE",
"192 78 OFFCURVE",
"176 87 CURVE",
"188 43 LINE"
);
}
);
};
color = 4;
layerId = "3E005A84-7828-4122-B6E8-61930BD9836F";
paths = (
{
closed = 1;
nodes = (
"188 -232 LINE",
"188 396 LINE SMOOTH",
"188 427 OFFCURVE",
"186 458 OFFCURVE",
"182 478 CURVE",
"167 450 LINE",
"194 464 OFFCURVE",
"239 476 OFFCURVE",
"284 476 CURVE SMOOTH",
"404 476 OFFCURVE",
"472 408 OFFCURVE",
"472 274 CURVE SMOOTH",
"472 140 OFFCURVE",
"408 68 OFFCURVE",
"280 68 CURVE SMOOTH",
"223 68 OFFCURVE",
"192 78 OFFCURVE",
"176 87 CURVE",
"170 5 LINE",
"194 -1 OFFCURVE",
"239 -12 OFFCURVE",
"280 -12 CURVE SMOOTH",
"456 -12 OFFCURVE",
"566 96 OFFCURVE",
"566 274 CURVE SMOOTH",
"566 452 OFFCURVE",
"460 556 OFFCURVE",
"292 556 CURVE SMOOTH",
"224 556 OFFCURVE",
"148 540 OFFCURVE",
"90 516 CURVE",
"88 508 LINE",
"96 472 OFFCURVE",
"96 384 OFFCURVE",
"96 348 CURVE SMOOTH",
"96 -232 LINE"
);
}
);
width = 618;
}
);
leftKerningGroup = m;
note = p;
rightKerningGroup = b;
unicode = 0070;
},
{
glyphname = thorn;
lastChange = "2020-07-10 12:18:08 +0000";
layers = (
{
color = 4;
layerId = "F2028F70-0529-41D4-9F63-024EA79743CD";
paths = (
{
closed = 1;
nodes = (
"568 -12 OFFCURVE",
"644 136 OFFCURVE",
"644 276 CURVE SMOOTH",
"644 480 OFFCURVE",
"500 564 OFFCURVE",
"364 564 CURVE SMOOTH",
"264 564 OFFCURVE",
"188 528 OFFCURVE",
"148 500 CURVE",
"192 392 LINE",
"244 392 LINE",
"256 400 OFFCURVE",
"288 412 OFFCURVE",
"320 412 CURVE SMOOTH",
"400 412 OFFCURVE",
"428 352 OFFCURVE",
"428 276 CURVE SMOOTH",
"428 196 OFFCURVE",
"400 136 OFFCURVE",
"312 136 CURVE SMOOTH",
"296 136 OFFCURVE",
"283 139 OFFCURVE",
"276 140 CURVE",
"192 140 LINE",
"192 -4 LINE",
"252 -4 LINE",
"256 -5 OFFCURVE",
"304 -12 OFFCURVE",
"348 -12 CURVE SMOOTH"
);
},
{
closed = 1;
nodes = (
"280 -232 LINE",
"280 760 LINE",
"60 760 LINE",
"56 752 LINE",
"65 716 OFFCURVE",
"68 636 OFFCURVE",
"68 596 CURVE SMOOTH",
"68 -232 LINE"
);
}
);
width = 684;
},
{
color = 4;
layerId = "3E005A84-7828-4122-B6E8-61930BD9836F";
paths = (
{
closed = 1;
nodes = (
"456 -12 OFFCURVE",
"566 96 OFFCURVE",
"566 274 CURVE SMOOTH",
"566 452 OFFCURVE",
"460 556 OFFCURVE",
"292 556 CURVE SMOOTH",
"244 556 OFFCURVE",
"204 547 OFFCURVE",
"173 534 CURVE",
"128 444 LINE",
"136 444 LINE",
"168 460 OFFCURVE",
"224 476 OFFCURVE",
"284 476 CURVE SMOOTH",
"404 476 OFFCURVE",
"472 408 OFFCURVE",
"472 274 CURVE SMOOTH",
"472 140 OFFCURVE",
"408 68 OFFCURVE",
"280 68 CURVE SMOOTH",
"224 68 OFFCURVE",
"192 78 OFFCURVE",
"176 86 CURVE",
"120 86 LINE",
"120 6 LINE",
"172 6 LINE",
"196 -2 OFFCURVE",
"240 -12 OFFCURVE",
"280 -12 CURVE SMOOTH"
);
},
{
closed = 1;
nodes = (
"188 -250 LINE",
"188 760 LINE",
"90 760 LINE",
"88 752 LINE",
"96 716 OFFCURVE",
"96 628 OFFCURVE",
"96 588 CURVE SMOOTH",
"96 -250 LINE"
);
}
);
width = 618;
}
);
leftKerningGroup = b;
leftMetricsKey = p;
note = thorn;
rightKerningGroup = b;
rightMetricsKey = p;
unicode = 00FE;
},
{
glyphname = q;
lastChange = "2021-01-21 12:33:23 +0000";
layers = (
{
anchors = (
{
name = bottom;
position = "{342, 0}";
},
{
name = top;
position = "{342, 548}";
}
);
background = {
paths = (
{
closed = 1;
nodes = (
"616 -208 LINE",
"616 352 LINE SMOOTH",
"616 392 OFFCURVE",
"616 472 OFFCURVE",
"624 508 CURVE",
"620 516 LINE",
"572 540 OFFCURVE",
"496 564 OFFCURVE",
"392 564 CURVE SMOOTH",
"212 564 OFFCURVE",
"40 492 OFFCURVE",
"40 276 CURVE SMOOTH",
"40 92 OFFCURVE",
"148 -12 OFFCURVE",
"340 -12 CURVE SMOOTH",
"382 -12 OFFCURVE",
"427 -5 OFFCURVE",
"442 -4 CURVE",
"404 78 LINE",
"404 -208 LINE"
);
},
{
closed = 1;
nodes = (
"448 148 LINE",
"420 144 OFFCURVE",
"397 140 OFFCURVE",
"376 140 CURVE SMOOTH",
"301 140 OFFCURVE",
"256 182 OFFCURVE",
"256 276 CURVE SMOOTH",
"256 358 OFFCURVE",
"285 416 OFFCURVE",
"372 416 CURVE SMOOTH",
"408 416 OFFCURVE",
"431 403 OFFCURVE",
"440 393 CURVE",
"419 448 LINE",
"407 429 OFFCURVE",
"404 388 OFFCURVE",
"404 338 CURVE SMOOTH",
"404 99 LINE"
);
}
);
};
color = 4;
layerId = "F2028F70-0529-41D4-9F63-024EA79743CD";
paths = (
{
closed = 1;
nodes = (
"616 -208 LINE",
"616 352 LINE SMOOTH",
"616 392 OFFCURVE",
"616 472 OFFCURVE",
"624 508 CURVE",
"620 516 LINE",
"572 540 OFFCURVE",
"496 564 OFFCURVE",
"392 564 CURVE SMOOTH",
"212 564 OFFCURVE",
"40 492 OFFCURVE",
"40 276 CURVE SMOOTH",
"40 92 OFFCURVE",
"148 -12 OFFCURVE",
"340 -12 CURVE SMOOTH",
"382 -12 OFFCURVE",
"427 -5 OFFCURVE",
"442 -4 CURVE",
"448 148 LINE",
"420 144 OFFCURVE",
"397 140 OFFCURVE",
"376 140 CURVE SMOOTH",
"301 140 OFFCURVE",
"256 182 OFFCURVE",
"256 276 CURVE SMOOTH",
"256 358 OFFCURVE",
"285 416 OFFCURVE",
"372 416 CURVE SMOOTH",
"408 416 OFFCURVE",
"431 403 OFFCURVE",
"440 393 CURVE",
"419 448 LINE",
"407 429 OFFCURVE",
"404 388 OFFCURVE",
"404 338 CURVE SMOOTH",
"404 -208 LINE"
);
}
);
width = 684;
},
{
anchors = (
{
name = bottom;
position = "{309, 0}";
},
{
name = top;
position = "{309, 544}";
}
);
background = {
paths = (
{
closed = 1;
nodes = (
"522 -232 LINE",
"522 348 LINE SMOOTH",
"522 388 OFFCURVE",
"522 476 OFFCURVE",
"530 512 CURVE",
"528 520 LINE",
"476 540 OFFCURVE",
"404 556 OFFCURVE",
"340 556 CURVE SMOOTH",
"168 556 OFFCURVE",
"52 452 OFFCURVE",
"52 274 CURVE SMOOTH",
"52 96 OFFCURVE",
"152 -12 OFFCURVE",
"332 -12 CURVE SMOOTH",
"376 -12 OFFCURVE",
"423 -4 OFFCURVE",
"448 6 CURVE",
"430 38 LINE",
"430 -232 LINE"
);
},
{
closed = 1;
nodes = (
"444 87 LINE",
"427 78 OFFCURVE",
"388 68 OFFCURVE",
"340 68 CURVE SMOOTH",
"214 68 OFFCURVE",
"146 132 OFFCURVE",
"146 274 CURVE SMOOTH",
"146 404 OFFCURVE",
"216 476 OFFCURVE",
"344 476 CURVE SMOOTH",
"387 476 OFFCURVE",
"424 466 OFFCURVE",
"453 457 CURVE",
"436 485 LINE",
"432 460 OFFCURVE",
"430 432 OFFCURVE",
"430 400 CURVE SMOOTH",
"430 43 LINE"
);
}
);
};
color = 4;
layerId = "3E005A84-7828-4122-B6E8-61930BD9836F";
paths = (
{
closed = 1;
nodes = (
"522 -232 LINE",
"522 348 LINE SMOOTH",
"522 388 OFFCURVE",
"522 476 OFFCURVE",
"530 512 CURVE",
"528 520 LINE",
"476 540 OFFCURVE",
"404 556 OFFCURVE",
"340 556 CURVE SMOOTH",
"168 556 OFFCURVE",
"52 452 OFFCURVE",
"52 274 CURVE SMOOTH",
"52 96 OFFCURVE",
"152 -12 OFFCURVE",
"332 -12 CURVE SMOOTH",
"376 -12 OFFCURVE",
"423 -4 OFFCURVE",
"448 6 CURVE",
"444 87 LINE",
"427 78 OFFCURVE",
"388 68 OFFCURVE",
"340 68 CURVE SMOOTH",
"214 68 OFFCURVE",
"146 132 OFFCURVE",
"146 274 CURVE SMOOTH",
"146 404 OFFCURVE",
"216 476 OFFCURVE",
"344 476 CURVE SMOOTH",
"387 476 OFFCURVE",
"424 466 OFFCURVE",
"453 457 CURVE",
"436 485 LINE",
"432 460 OFFCURVE",
"430 432 OFFCURVE",
"430 400 CURVE SMOOTH",
"430 -232 LINE"
);
}
);
width = 618;
}
);
leftKerningGroup = c;
note = q;
rightKerningGroup = g;
unicode = 0071;
},
{
glyphname = r;
lastChange = "2020-07-10 12:18:07 +0000";
layers = (
{
anchors = (
{
name = bottom;
position = "{174, 0}";
},
{
name = top;
position = "{222, 548}";
}
);
color = 4;
layerId = "F2028F70-0529-41D4-9F63-024EA79743CD";
paths = (
{
closed = 1;
nodes = (
"280 0 LINE",
"280 316 LINE SMOOTH",
"280 377 OFFCURVE",
"274 412 OFFCURVE",
"258 426 CURVE",
"231 382 LINE",
"255 397 OFFCURVE",
"290 404 OFFCURVE",
"336 404 CURVE SMOOTH",
"364 404 OFFCURVE",
"392 400 OFFCURVE",
"416 392 CURVE",
"428 392 LINE",
"428 556 LINE",
"378 563 OFFCURVE",
"335 564 OFFCURVE",
"320 564 CURVE SMOOTH",
"192 564 OFFCURVE",
"120 544 OFFCURVE",
"60 524 CURVE",
"56 516 LINE",
"65 480 OFFCURVE",
"68 396 OFFCURVE",
"68 356 CURVE SMOOTH",
"68 0 LINE"
);
}
);
width = 444;
},
{
anchors = (
{
name = bottom;
position = "{142, 0}";
},
{
name = top;
position = "{192, 544}";
}
);
color = 4;
layerId = "3E005A84-7828-4122-B6E8-61930BD9836F";
paths = (
{
closed = 1;
nodes = (
"188 0 LINE",
"188 396 LINE SMOOTH",
"188 427 OFFCURVE",
"186 456 OFFCURVE",
"182 478 CURVE",
"164 453 LINE",
"197 460 OFFCURVE",
"246 468 OFFCURVE",
"288 468 CURVE SMOOTH",
"308 468 OFFCURVE",
"335 467 OFFCURVE",
"352 464 CURVE",
"360 464 LINE",
"360 544 LINE",
"346 546 OFFCURVE",
"328 548 OFFCURVE",
"296 548 CURVE SMOOTH",
"244 548 OFFCURVE",
"142 536 OFFCURVE",
"90 516 CURVE",
"88 508 LINE",
"96 472 OFFCURVE",
"96 384 OFFCURVE",
"96 344 CURVE SMOOTH",
"96 0 LINE"
);
}
);
width = 384;
}
);
leftKerningGroup = m;
leftMetricsKey = n;
note = r;
rightKerningGroup = r;
unicode = 0072;
},
{
glyphname = s;
lastChange = "2020-07-10 12:18:07 +0000";
layers = (
{
anchors = (
{
name = bottom;
position = "{284, 0}";
},
{
name = top;
position = "{284, 548}";
}
);
color = 4;
layerId = "F2028F70-0529-41D4-9F63-024EA79743CD";
paths = (
{
closed = 1;
nodes = (
"52 20 LINE",
"108 4 OFFCURVE",
"184 -8 OFFCURVE",
"244 -8 CURVE SMOOTH",
"437 -8 OFFCURVE",
"536 52 OFFCURVE",
"536 180 CURVE SMOOTH",
"536 288 OFFCURVE",
"460 327 OFFCURVE",
"364 344 CURVE SMOOTH",
"320 352 LINE SMOOTH",
"273 361 OFFCURVE",
"252 364 OFFCURVE",
"252 382 CURVE SMOOTH",
"252 402 OFFCURVE",
"280 408 OFFCURVE",
"328 408 CURVE SMOOTH",
"372 408 OFFCURVE",
"432 401 OFFCURVE",
"492 376 CURVE",
"500 376 LINE",
"500 540 LINE",
"440 556 OFFCURVE",
"396 560 OFFCURVE",
"332 560 CURVE SMOOTH",
"136 560 OFFCURVE",
"48 484 OFFCURVE",
"48 372 CURVE SMOOTH",
"48 272 OFFCURVE",
"114 230 OFFCURVE",
"212 212 CURVE SMOOTH",
"256 204 LINE SMOOTH",
"314 193 OFFCURVE",
"328 191 OFFCURVE",
"328 170 CURVE SMOOTH",
"328 150 OFFCURVE",
"316 144 OFFCURVE",
"256 144 CURVE SMOOTH",
"184 144 OFFCURVE",
"108 164 OFFCURVE",
"60 184 CURVE",
"52 184 LINE"
);
}
);
width = 568;
},
{
anchors = (
{
name = bottom;
position = "{250, 0}";
},
{
name = top;
position = "{250, 544}";
}
);
color = 4;
layerId = "3E005A84-7828-4122-B6E8-61930BD9836F";
paths = (
{
closed = 1;
nodes = (
"52 20 LINE",
"100 4 OFFCURVE",
"160 -8 OFFCURVE",
"228 -8 CURVE SMOOTH",
"388 -8 OFFCURVE",
"464 48 OFFCURVE",
"464 156 CURVE SMOOTH",
"464 248 OFFCURVE",
"388 291 OFFCURVE",
"296 306 CURVE SMOOTH",
"248 314 LINE SMOOTH",
"180 325 OFFCURVE",
"140 340 OFFCURVE",
"140 387 CURVE SMOOTH",
"140 448 OFFCURVE",
"196 472 OFFCURVE",
"288 472 CURVE SMOOTH",
"340 472 OFFCURVE",
"376 464 OFFCURVE",
"420 448 CURVE",
"428 448 LINE",
"428 530 LINE",
"396 542 OFFCURVE",
"344 552 OFFCURVE",
"292 552 CURVE SMOOTH",
"116 552 OFFCURVE",
"52 472 OFFCURVE",
"52 384 CURVE SMOOTH",
"52 300 OFFCURVE",
"106 257 OFFCURVE",
"219 238 CURVE SMOOTH",
"267 230 LINE SMOOTH",
"335 219 OFFCURVE",
"376 204 OFFCURVE",
"376 156 CURVE SMOOTH",
"376 71 OFFCURVE",
"268 72 OFFCURVE",
"232 72 CURVE SMOOTH",
"172 72 OFFCURVE",
"108 86 OFFCURVE",
"60 108 CURVE",
"52 108 LINE"
);
}
);
width = 500;
}
);
leftKerningGroup = s;
note = s;
rightKerningGroup = s;
unicode = 0073;
},
{
glyphname = germandbls;
lastChange = "2020-07-10 12:18:08 +0000";
layers = (
{
color = 4;
layerId = "F2028F70-0529-41D4-9F63-024EA79743CD";
paths = (
{
closed = 1;
nodes = (
"596 -8 OFFCURVE",
"696 56 OFFCURVE",
"696 175 CURVE SMOOTH",
"696 233 OFFCURVE",
"673 279 OFFCURVE",
"636 316 CURVE SMOOTH",
"628 324 LINE SMOOTH",
"602 350 OFFCURVE",
"584 364 OFFCURVE",
"584 392 CURVE SMOOTH",
"584 448 OFFCURVE",
"636 464 OFFCURVE",
"636 572 CURVE SMOOTH",
"636 708 OFFCURVE",
"532 776 OFFCURVE",
"380 776 CURVE SMOOTH",
"209 776 OFFCURVE",
"100 712 OFFCURVE",
"100 508 CURVE SMOOTH",
"100 0 LINE",
"312 0 LINE",
"312 532 LINE SMOOTH",
"312 584 OFFCURVE",
"324 624 OFFCURVE",
"376 624 CURVE SMOOTH",
"424 624 OFFCURVE",
"440 588 OFFCURVE",
"440 556 CURVE SMOOTH",
"440 484 OFFCURVE",
"392 468 OFFCURVE",
"392 384 CURVE SMOOTH",
"392 320 OFFCURVE",
"427 289 OFFCURVE",
"460 256 CURVE SMOOTH",
"468 248 LINE SMOOTH",
"485 231 OFFCURVE",
"500 220 OFFCURVE",
"500 196 CURVE SMOOTH",
"500 172 OFFCURVE",
"484 148 OFFCURVE",
"444 148 CURVE SMOOTH",
"424 148 OFFCURVE",
"404 152 OFFCURVE",
"384 160 CURVE",
"376 160 LINE",
"376 4 LINE",
"410 -5 OFFCURVE",
"428 -8 OFFCURVE",
"476 -8 CURVE SMOOTH"
);
},
{
closed = 1;
nodes = (
"180 388 LINE",
"180 548 LINE",
"8 548 LINE",
"8 388 LINE"
);
}
);
width = 720;
},
{
color = 4;
layerId = "3E005A84-7828-4122-B6E8-61930BD9836F";
paths = (
{
closed = 1;
nodes = (
"480 -8 OFFCURVE",
"552 52 OFFCURVE",
"552 148 CURVE SMOOTH",
"552 225 OFFCURVE",
"509 265 OFFCURVE",
"468 296 CURVE SMOOTH",
"452 308 LINE SMOOTH",
"422 330 OFFCURVE",
"400 353 OFFCURVE",
"400 388 CURVE SMOOTH",
"400 472 OFFCURVE",
"480 480 OFFCURVE",
"480 596 CURVE SMOOTH",
"480 684 OFFCURVE",
"424 760 OFFCURVE",
"304 760 CURVE SMOOTH",
"165 760 OFFCURVE",
"100 687 OFFCURVE",
"100 544 CURVE",
"100 0 LINE",
"192 0 LINE",
"192 564 LINE SMOOTH",
"192 640 OFFCURVE",
"228 680 OFFCURVE",
"300 680 CURVE SMOOTH",
"364 680 OFFCURVE",
"392 644 OFFCURVE",
"392 592 CURVE SMOOTH",
"392 504 OFFCURVE",
"312 484 OFFCURVE",
"312 384 CURVE SMOOTH",
"312 316 OFFCURVE",
"350 284 OFFCURVE",
"388 256 CURVE SMOOTH",
"404 244 LINE SMOOTH",
"436 220 OFFCURVE",
"464 194 OFFCURVE",
"464 148 CURVE SMOOTH",
"464 92 OFFCURVE",
"428 68 OFFCURVE",
"372 68 CURVE SMOOTH",
"332 68 OFFCURVE",
"304 76 OFFCURVE",
"284 84 CURVE",
"276 84 LINE",
"276 4 LINE",
"310 -5 OFFCURVE",
"328 -8 OFFCURVE",
"376 -8 CURVE SMOOTH"
);
},
{
closed = 1;
nodes = (
"120 466 LINE",
"120 544 LINE",
"16 544 LINE",
"16 466 LINE"
);
}
);
width = 584;
}
);
leftKerningGroup = f;
note = germandbls;
rightKerningGroup = b;
unicode = 00DF;
},
{
color = 4;
glyphname = longs;
lastChange = "2020-07-10 12:18:08 +0000";
layers = (
{
layerId = "F2028F70-0529-41D4-9F63-024EA79743CD";
paths = (
{
closed = 1;
nodes = (
"8 388 LINE",
"100 388 LINE",
"100 0 LINE",
"312 0 LINE",
"312 536 LINE SMOOTH",
"312 596 OFFCURVE",
"344 624 OFFCURVE",
"404 624 CURVE SMOOTH",
"428 624 OFFCURVE",
"448 618 OFFCURVE",
"460 612 CURVE",
"472 612 LINE",
"472 764 LINE",
"452 770 OFFCURVE",
"420 776 OFFCURVE",
"380 776 CURVE SMOOTH",
"216 776 OFFCURVE",
"108 713 OFFCURVE",
"100 548 CURVE",
"8 548 LINE"
);
}
);
width = 392;
},
{
layerId = "3E005A84-7828-4122-B6E8-61930BD9836F";
paths = (
{
closed = 1;
nodes = (
"24 464 LINE",
"108 464 LINE",
"108 0 LINE",
"200 0 LINE",
"200 560 LINE SMOOTH",
"200 644 OFFCURVE",
"232 680 OFFCURVE",
"304 680 CURVE SMOOTH",
"336 680 OFFCURVE",
"352 676 OFFCURVE",
"372 668 CURVE",
"380 668 LINE",
"380 748 LINE",
"360 756 OFFCURVE",
"336 760 OFFCURVE",
"304 760 CURVE SMOOTH",
"171 760 OFFCURVE",
"108 687 OFFCURVE",
"108 544 CURVE",
"24 544 LINE"
);
}
);
width = 308;
}
);
leftKerningGroup = f;
note = longs;
unicode = 017F;
},
{
glyphname = t;
lastChange = "2020-07-10 12:18:07 +0000";
layers = (
{
anchors = (
{
name = bottom;
position = "{250, 0}";
},
{
name = center;
position = "{250, 274}";
},
{
name = top;
position = "{206, 680}";
},
{
name = topright;
position = "{431, 616}";
}
);
color = 4;
layerId = "F2028F70-0529-41D4-9F63-024EA79743CD";
paths = (
{
closed = 1;
nodes = (
"410 -8 OFFCURVE",
"440 -4 OFFCURVE",
"472 4 CURVE",
"472 168 LINE",
"460 168 LINE",
"444 162 OFFCURVE",
"422 156 OFFCURVE",
"400 156 CURVE SMOOTH",
"340 156 OFFCURVE",
"312 176 OFFCURVE",
"312 232 CURVE SMOOTH",
"312 680 LINE",
"100 680 LINE",
"100 216 LINE SMOOTH",
"100 36 OFFCURVE",
"216 -8 OFFCURVE",
"364 -8 CURVE SMOOTH"
);
},
{
closed = 1;
nodes = (
"450 388 LINE",
"450 548 LINE",
"8 548 LINE",
"8 388 LINE"
);
}
);
width = 500;
},
{
anchors = (
{
name = bottom;
position = "{202, 0}";
},
{
name = center;
position = "{202, 272}";
},
{
name = top;
position = "{150, 692}";
},
{
name = topright;
position = "{301, 567}";
}
);
color = 4;
layerId = "3E005A84-7828-4122-B6E8-61930BD9836F";
paths = (
{
closed = 1;
nodes = (
"332 -8 OFFCURVE",
"364 0 OFFCURVE",
"384 10 CURVE",
"384 88 LINE",
"376 88 LINE",
"356 78 OFFCURVE",
"328 72 OFFCURVE",
"300 72 CURVE SMOOTH",
"228 72 OFFCURVE",
"196 104 OFFCURVE",
"196 180 CURVE SMOOTH",
"196 692 LINE",
"104 692 LINE",
"104 172 LINE SMOOTH",
"104 64 OFFCURVE",
"156 -8 OFFCURVE",
"296 -8 CURVE SMOOTH"
);
},
{
closed = 1;
nodes = (
"352 464 LINE",
"352 544 LINE",
"20 544 LINE",
"20 464 LINE"
);
}
);
width = 404;
}
);
leftKerningGroup = t;
note = t;
rightKerningGroup = t;
unicode = 0074;
},
{
glyphname = tbar;
lastChange = "2020-07-10 12:18:08 +0000";
layers = (
{
color = 4;
components = (
{
name = t;
}
);
layerId = "F2028F70-0529-41D4-9F63-024EA79743CD";
paths = (
{
closed = 1;
nodes = (
"8 324 LINE",
"8 224 LINE",
"450 224 LINE",
"450 324 LINE"
);
}
);
width = 500;
},
{
color = 4;
components = (
{
name = t;
}
);
layerId = "3E005A84-7828-4122-B6E8-61930BD9836F";
paths = (
{
closed = 1;
nodes = (
"20 312 LINE",
"20 248 LINE",
"352 248 LINE",
"352 312 LINE"
);
}
);
width = 404;
}
);
leftKerningGroup = t;
note = tbar;
rightKerningGroup = t;
unicode = 0167;
},
{
glyphname = u;
lastChange = "2020-07-10 12:18:07 +0000";
layers = (
{
anchors = (
{
name = bottom;
position = "{346, 0}";
},
{
name = ogonek;
position = "{632, 48}";
},
{
name = top;
position = "{346, 548}";
},
{
name = topright;
position = "{517, 548}";
}
);
color = 4;
layerId = "F2028F70-0529-41D4-9F63-024EA79743CD";
paths = (
{
closed = 1;
nodes = (
"464 -12 OFFCURVE",
"560 16 OFFCURVE",
"632 48 CURVE",
"636 56 LINE",
"627 92 OFFCURVE",
"624 176 OFFCURVE",
"624 216 CURVE SMOOTH",
"624 548 LINE",
"404 548 LINE",
"400 540 LINE",
"409 504 OFFCURVE",
"412 424 OFFCURVE",
"412 384 CURVE SMOOTH",
"412 236 LINE SMOOTH",
"412 180 OFFCURVE",
"418 148 OFFCURVE",
"428 127 CURVE",
"456 172 LINE",
"432 164 OFFCURVE",
"404 152 OFFCURVE",
"368 152 CURVE SMOOTH",
"316 152 OFFCURVE",
"276 172 OFFCURVE",
"276 248 CURVE SMOOTH",
"276 548 LINE",
"56 548 LINE",
"52 540 LINE",
"61 504 OFFCURVE",
"64 424 OFFCURVE",
"64 384 CURVE SMOOTH",
"64 244 LINE SMOOTH",
"64 36 OFFCURVE",
"212 -12 OFFCURVE",
"354 -12 CURVE SMOOTH"
);
}
);
width = 692;
},
{
anchors = (
{
name = bottom;
position = "{316, 0}";
},
{
name = ogonek;
position = "{542, 24}";
},
{
name = top;
position = "{316, 544}";
},
{
name = topright;
position = "{469, 544}";
}
);
color = 4;
layerId = "3E005A84-7828-4122-B6E8-61930BD9836F";
paths = (
{
closed = 1;
nodes = (
"384 -12 OFFCURVE",
"490 4 OFFCURVE",
"542 24 CURVE",
"544 32 LINE",
"536 68 OFFCURVE",
"536 156 OFFCURVE",
"536 196 CURVE SMOOTH",
"536 544 LINE",
"438 544 LINE",
"436 536 LINE",
"444 500 OFFCURVE",
"444 412 OFFCURVE",
"444 372 CURVE SMOOTH",
"444 140 LINE SMOOTH",
"444 110 OFFCURVE",
"444 80 OFFCURVE",
"450 62 CURVE",
"467 86 LINE",
"434 77 OFFCURVE",
"385 68 OFFCURVE",
"343 68 CURVE SMOOTH",
"236 68 OFFCURVE",
"176 100 OFFCURVE",
"176 232 CURVE SMOOTH",
"176 544 LINE",
"78 544 LINE",
"76 536 LINE",
"84 500 OFFCURVE",
"84 412 OFFCURVE",
"84 372 CURVE SMOOTH",
"84 224 LINE SMOOTH",
"84 36 OFFCURVE",
"192 -12 OFFCURVE",
"332 -12 CURVE SMOOTH"
);
}
);
width = 632;
}
);
leftKerningGroup = u;
note = u;
rightKerningGroup = g;
unicode = 0075;
},
{
glyphname = v;
lastChange = "2020-07-10 12:18:07 +0000";
layers = (
{
anchors = (
{
name = bottom;
position = "{320, 0}";
},
{
name = top;
position = "{320, 548}";
}
);
color = 4;
layerId = "F2028F70-0529-41D4-9F63-024EA79743CD";
paths = (
{
closed = 1;
nodes = (
"448 0 LINE",
"636 536 LINE",
"636 548 LINE",
"412 548 LINE",
"301 104 LINE",
"343 104 LINE",
"232 548 LINE",
"4 548 LINE",
"4 536 LINE",
"184 0 LINE"
);
}
);
width = 640;
},
{
anchors = (
{
name = bottom;
position = "{268, 0}";
},
{
name = top;
position = "{268, 544}";
}
);
color = 4;
layerId = "3E005A84-7828-4122-B6E8-61930BD9836F";
paths = (
{
closed = 1;
nodes = (
"324 0 LINE",
"524 532 LINE",
"524 544 LINE",
"432 544 LINE",
"255 46 LINE",
"280 46 LINE",
"108 544 LINE",
"12 544 LINE",
"12 532 LINE",
"204 0 LINE"
);
}
);
width = 536;
}
);
leftKerningGroup = v;
note = v;
rightKerningGroup = v;
unicode = 0076;
},
{
glyphname = w;
lastChange = "2020-07-10 12:18:07 +0000";
layers = (
{
anchors = (
{
name = bottom;
position = "{482, 0}";
},
{
name = top;
position = "{482, 548}";
}
);
color = 4;
layerId = "F2028F70-0529-41D4-9F63-024EA79743CD";
paths = (
{
closed = 1;
nodes = (
"396 0 LINE",
"499 354 LINE",
"450 354 LINE",
"556 0 LINE",
"792 0 LINE",
"960 536 LINE",
"960 548 LINE",
"732 548 LINE",
"638 125 LINE",
"682 126 LINE",
"556 548 LINE",
"404 548 LINE",
"282 129 LINE",
"325 128 LINE",
"232 548 LINE",
"4 548 LINE",
"4 536 LINE",
"164 0 LINE"
);
}
);
width = 964;
},
{
anchors = (
{
name = bottom;
position = "{386, 0}";
},
{
name = top;
position = "{386, 544}";
}
);
color = 4;
layerId = "3E005A84-7828-4122-B6E8-61930BD9836F";
paths = (
{
closed = 1;
nodes = (
"264 0 LINE",
"395 414 LINE",
"373 414 LINE",
"500 0 LINE",
"608 0 LINE",
"760 532 LINE",
"760 544 LINE",
"668 544 LINE",
"542 54 LINE",
"562 55 LINE",
"416 544 LINE",
"356 544 LINE",
"205 57 LINE",
"225 56 LINE",
"104 544 LINE",
"12 544 LINE",
"12 532 LINE",
"156 0 LINE"
);
}
);
width = 772;
}
);
leftKerningGroup = w;
note = w;
rightKerningGroup = w;
unicode = 0077;
},
{
glyphname = x;
lastChange = "2020-07-10 12:18:07 +0000";
layers = (
{
anchors = (
{
name = bottom;
position = "{330, 0}";
},
{
name = top;
position = "{330, 548}";
}
);
color = 4;
layerId = "F2028F70-0529-41D4-9F63-024EA79743CD";
paths = (
{
closed = 1;
nodes = (
"652 0 LINE",
"652 12 LINE",
"380 352 LINE",
"244 548 LINE",
"8 548 LINE",
"8 536 LINE",
"280 196 LINE",
"416 0 LINE"
);
},
{
closed = 1;
nodes = (
"236 0 LINE",
"376 204 LINE",
"652 536 LINE",
"652 548 LINE",
"424 548 LINE",
"284 344 LINE",
"8 12 LINE",
"8 0 LINE"
);
}
);
width = 660;
},
{
anchors = (
{
name = bottom;
position = "{266, 0}";
},
{
name = top;
position = "{266, 544}";
}
);
color = 4;
layerId = "3E005A84-7828-4122-B6E8-61930BD9836F";
paths = (
{
closed = 1;
nodes = (
"508 0 LINE",
"508 8 LINE",
"288 312 LINE",
"120 544 LINE",
"20 544 LINE",
"20 536 LINE",
"240 232 LINE",
"408 0 LINE"
);
},
{
closed = 1;
nodes = (
"124 0 LINE",
"292 240 LINE",
"512 536 LINE",
"512 544 LINE",
"416 544 LINE",
"248 304 LINE",
"28 8 LINE",
"28 0 LINE"
);
}
);
width = 532;
}
);
leftKerningGroup = x;
note = x;
rightKerningGroup = x;
unicode = 0078;
},
{
glyphname = y;
lastChange = "2020-07-10 12:18:07 +0000";
layers = (
{
anchors = (
{
name = bottom;
position = "{520, 0}";
},
{
name = top;
position = "{312, 548}";
}
);
color = 4;
layerId = "F2028F70-0529-41D4-9F63-024EA79743CD";
paths = (
{
closed = 1;
nodes = (
"336 -232 LINE",
"624 536 LINE",
"624 548 LINE",
"408 548 LINE",
"264 116 LINE",
"120 -220 LINE",
"120 -232 LINE"
);
},
{
closed = 1;
nodes = (
"328 152 LINE",
"228 548 LINE",
"0 548 LINE",
"0 536 LINE",
"216 -72 LINE"
);
}
);
width = 624;
},
{
anchors = (
{
name = bottom;
position = "{437, 0}";
},
{
name = top;
position = "{268, 544}";
}
);
color = 4;
layerId = "3E005A84-7828-4122-B6E8-61930BD9836F";
paths = (
{
closed = 1;
nodes = (
"220 -232 LINE",
"524 532 LINE",
"524 544 LINE",
"432 544 LINE",
"256 84 LINE",
"132 -220 LINE",
"132 -232 LINE"
);
},
{
closed = 1;
nodes = (
"285 82 LINE",
"108 544 LINE",
"12 544 LINE",
"12 532 LINE",
"232 -20 LINE"
);
}
);
width = 536;
}
);
leftKerningGroup = v;
note = y;
rightKerningGroup = v;
unicode = 0079;
},
{
glyphname = z;
lastChange = "2020-07-10 12:18:07 +0000";
layers = (
{
anchors = (
{
name = bottom;
position = "{296, 0}";
},
{
name = top;
position = "{296, 548}";
}
);
color = 4;
layerId = "F2028F70-0529-41D4-9F63-024EA79743CD";
paths = (
{
closed = 1;
nodes = (
"560 0 LINE",
"560 160 LINE",
"228 160 LINE",
"312 128 LINE",
"294 141 OFFCURVE",
"326 180 OFFCURVE",
"354 212 CURVE SMOOTH",
"502 384 LINE SMOOTH",
"533 420 OFFCURVE",
"552 456 OFFCURVE",
"552 500 CURVE SMOOTH",
"552 512 OFFCURVE",
"551 522 OFFCURVE",
"548 536 CURVE",
"538 548 LINE",
"42 548 LINE",
"42 388 LINE",
"360 388 LINE",
"281 429 LINE",
"294 403 OFFCURVE",
"260 368 OFFCURVE",
"234 336 CURVE SMOOTH",
"86 164 LINE SMOOTH",
"55 128 OFFCURVE",
"36 92 OFFCURVE",
"36 48 CURVE SMOOTH",
"36 36 OFFCURVE",
"37 26 OFFCURVE",
"40 12 CURVE",
"50 0 LINE"
);
}
);
width = 592;
},
{
anchors = (
{
name = bottom;
position = "{260, 0}";
},
{
name = top;
position = "{260, 544}";
}
);
color = 4;
layerId = "3E005A84-7828-4122-B6E8-61930BD9836F";
paths = (
{
closed = 1;
nodes = (
"480 0 LINE",
"480 78 LINE",
"97 78 LINE",
"131 62 LINE",
"130 82 OFFCURVE",
"165 118 OFFCURVE",
"188 144 CURVE SMOOTH",
"388 356 LINE SMOOTH",
"414 384 OFFCURVE",
"464 432 OFFCURVE",
"464 496 CURVE SMOOTH",
"464 504 OFFCURVE",
"462 520 OFFCURVE",
"459 534 CURVE",
"451 544 LINE",
"52 544 LINE",
"52 466 LINE",
"406 466 LINE",
"371 482 LINE",
"375 463 OFFCURVE",
"339 425 OFFCURVE",
"316 400 CURVE SMOOTH",
"116 188 LINE SMOOTH",
"90 160 OFFCURVE",
"40 112 OFFCURVE",
"40 48 CURVE SMOOTH",
"40 40 OFFCURVE",
"42 24 OFFCURVE",
"45 10 CURVE",
"53 0 LINE"
);
}
);
width = 520;
}
);
leftKerningGroup = z;
note = z;
rightKerningGroup = z;
unicode = 007A;
},
{
glyphname = f_j;
lastChange = "2020-07-10 12:18:08 +0000";
layers = (
{
anchors = (
{
name = caret_1;
position = "{478, 0}";
}
);
color = 4;
components = (
{
name = _part.f.liga;
}
);
layerId = "F2028F70-0529-41D4-9F63-024EA79743CD";
paths = (
{
closed = 1;
nodes = (
"632 -240 OFFCURVE",
"744 -168 OFFCURVE",
"744 20 CURVE SMOOTH",
"744 548 LINE",
"532 548 LINE",
"532 6 LINE SMOOTH",
"532 -52 OFFCURVE",
"504 -76 OFFCURVE",
"448 -76 CURVE SMOOTH",
"417 -76 OFFCURVE",
"404 -72 OFFCURVE",
"384 -64 CURVE",
"372 -64 LINE",
"372 -228 LINE",
"400 -236 OFFCURVE",
"436 -240 OFFCURVE",
"480 -240 CURVE SMOOTH"
);
},
{
closed = 1;
nodes = (
"704 620 OFFCURVE",
"748 656 OFFCURVE",
"748 724 CURVE SMOOTH",
"748 792 OFFCURVE",
"704 828 OFFCURVE",
"640 828 CURVE SMOOTH",
"576 828 OFFCURVE",
"532 792 OFFCURVE",
"532 724 CURVE SMOOTH",
"532 656 OFFCURVE",
"576 620 OFFCURVE",
"640 620 CURVE SMOOTH"
);
}
);
width = 812;
},
{
anchors = (
{
name = caret_1;
position = "{376, 0}";
}
);
color = 4;
components = (
{
name = _part.f.liga;
}
);
layerId = "3E005A84-7828-4122-B6E8-61930BD9836F";
paths = (
{
closed = 1;
nodes = (
"468 -240 OFFCURVE",
"524 -148 OFFCURVE",
"524 -48 CURVE SMOOTH",
"524 544 LINE",
"432 544 LINE",
"432 -52 LINE SMOOTH",
"432 -124 OFFCURVE",
"392 -160 OFFCURVE",
"328 -160 CURVE SMOOTH",
"300 -160 OFFCURVE",
"280 -154 OFFCURVE",
"264 -148 CURVE",
"256 -148 LINE",
"256 -228 LINE",
"272 -234 OFFCURVE",
"296 -240 OFFCURVE",
"332 -240 CURVE SMOOTH"
);
},
{
closed = 1;
nodes = (
"510 640 OFFCURVE",
"536 664 OFFCURVE",
"536 700 CURVE SMOOTH",
"536 736 OFFCURVE",
"510 760 OFFCURVE",
"476 760 CURVE SMOOTH",
"442 760 OFFCURVE",
"416 736 OFFCURVE",
"416 700 CURVE SMOOTH",
"416 664 OFFCURVE",
"442 640 OFFCURVE",
"476 640 CURVE SMOOTH"
);
}
);
width = 618;
}
);
leftKerningGroup = f;
leftMetricsKey = f;
note = f_j;
rightKerningGroup = d;
rightMetricsKey = j;
},
{
color = 4;
glyphname = fi;
lastChange = "2020-07-10 12:18:08 +0000";
layers = (
{
anchors = (
{
name = caret_1;
position = "{435, 1}";
}
);
components = (
{
name = _part.f.liga;
}
);
layerId = "F2028F70-0529-41D4-9F63-024EA79743CD";
paths = (
{
closed = 1;
nodes = (
"744 0 LINE",
"744 548 LINE",
"532 548 LINE",
"532 0 LINE"
);
},
{
closed = 1;
nodes = (
"704 620 OFFCURVE",
"748 656 OFFCURVE",
"748 724 CURVE SMOOTH",
"748 792 OFFCURVE",
"704 828 OFFCURVE",
"640 828 CURVE SMOOTH",
"576 828 OFFCURVE",
"532 792 OFFCURVE",
"532 724 CURVE SMOOTH",
"532 656 OFFCURVE",
"576 620 OFFCURVE",
"640 620 CURVE SMOOTH"
);
}
);
width = 814;
},
{
anchors = (
{
name = caret_1;
position = "{312, 0}";
}
);
components = (
{
name = _part.f.liga;
}
);
layerId = "3E005A84-7828-4122-B6E8-61930BD9836F";
paths = (
{
closed = 1;
nodes = (
"524 0 LINE",
"524 544 LINE",
"432 544 LINE",
"432 0 LINE"
);
},
{
closed = 1;
nodes = (
"510 640 OFFCURVE",
"536 664 OFFCURVE",
"536 700 CURVE SMOOTH",
"536 736 OFFCURVE",
"510 760 OFFCURVE",
"476 760 CURVE SMOOTH",
"442 760 OFFCURVE",
"416 736 OFFCURVE",
"416 700 CURVE SMOOTH",
"416 664 OFFCURVE",
"442 640 OFFCURVE",
"476 640 CURVE SMOOTH"
);
}
);
width = 618;
},
{
associatedMasterId = "3E005A84-7828-4122-B6E8-61930BD9836F";
layerId = "D9A1A422-6E90-42D7-A19C-93129B3666A6";
name = "Nov 13 18, 22:21";
paths = (
{
closed = 1;
nodes = (
"465 464 LINE",
"465 544 LINE",
"16 544 LINE",
"16 464 LINE"
);
},
{
closed = 1;
nodes = (
"420 0 LINE",
"512 0 LINE",
"512 544 LINE",
"414 544 LINE",
"412 536 LINE",
"420 500 OFFCURVE",
"420 412 OFFCURVE",
"420 372 CURVE SMOOTH"
);
},
{
closed = 1;
nodes = (
"192 648 OFFCURVE",
"240 680 OFFCURVE",
"352 680 CURVE SMOOTH",
"395 680 OFFCURVE",
"439 668 OFFCURVE",
"456 660 CURVE",
"464 660 LINE",
"464 744 LINE",
"412 758 OFFCURVE",
"384 760 OFFCURVE",
"340 760 CURVE SMOOTH",
"208 760 OFFCURVE",
"100 712 OFFCURVE",
"100 532 CURVE SMOOTH",
"100 0 LINE",
"192 0 LINE",
"192 532 LINE SMOOTH"
);
}
);
width = 608;
}
);
leftKerningGroup = f;
leftMetricsKey = f;
note = fi;
rightKerningGroup = d;
rightMetricsKey = i;
unicode = FB01;
},
{
glyphname = a.sc;
lastChange = "2020-07-10 12:18:08 +0000";
layers = (
{
anchors = (
{
name = bottom;
position = "{339, 0}";
},
{
name = ogonek;
position = "{604, 0}";
},
{
name = top;
position = "{368, 572}";
}
);
color = 4;
layerId = "F2028F70-0529-41D4-9F63-024EA79743CD";
paths = (
{
closed = 1;
nodes = (
"236 0 LINE",
"300 360 LINE SMOOTH",
"307 399 OFFCURVE",
"332 420 OFFCURVE",
"380 420 CURVE SMOOTH",
"395 420 OFFCURVE",
"456 420 OFFCURVE",
"503 362 CURVE",
"417 457 LINE",
"400 442 OFFCURVE",
"396 405 OFFCURVE",
"396 364 CURVE SMOOTH",
"396 0 LINE",
"604 0 LINE",
"604 412 LINE SMOOTH",
"604 472 OFFCURVE",
"608 524 OFFCURVE",
"614 552 CURVE",
"612 560 LINE",
"565 570 OFFCURVE",
"491 580 OFFCURVE",
"436 580 CURVE SMOOTH",
"273 580 OFFCURVE",
"132 565 OFFCURVE",
"96 368 CURVE SMOOTH",
"28 0 LINE"
);
},
{
closed = 1;
nodes = (
"496 108 LINE",
"496 268 LINE",
"155 268 LINE",
"155 108 LINE"
);
}
);
width = 678;
},
{
anchors = (
{
name = bottom;
position = "{306, 0}";
},
{
name = ogonek;
position = "{516, 0}";
},
{
name = top;
position = "{347, 572}";
}
);
color = 4;
layerId = "3E005A84-7828-4122-B6E8-61930BD9836F";
paths = (
{
closed = 1;
nodes = (
"152 0 LINE",
"220 376 LINE SMOOTH",
"235 458 OFFCURVE",
"271 500 OFFCURVE",
"380 500 CURVE SMOOTH",
"405 500 OFFCURVE",
"429 495 OFFCURVE",
"447 493 CURVE",
"429 522 LINE",
"424 489 OFFCURVE",
"424 460 OFFCURVE",
"424 428 CURVE SMOOTH",
"424 0 LINE",
"516 0 LINE",
"516 432 LINE SMOOTH",
"516 464 OFFCURVE",
"516 528 OFFCURVE",
"520 560 CURVE",
"518 568 LINE",
"473 576 OFFCURVE",
"428 580 OFFCURVE",
"388 580 CURVE SMOOTH",
"216 580 OFFCURVE",
"153 508 OFFCURVE",
"128 372 CURVE SMOOTH",
"60 0 LINE"
);
},
{
closed = 1;
nodes = (
"464 168 LINE",
"464 248 LINE",
"160 248 LINE",
"160 168 LINE"
);
}
);
width = 616;
}
);
leftKerningGroup = a.sc;
note = a.sc;
rightMetricsKey = h.sc;
},
{
glyphname = ae.sc;
lastChange = "2020-07-10 12:18:08 +0000";
layers = (
{
anchors = (
{
name = bottom;
position = "{436, 0}";
},
{
name = top;
position = "{506, 572}";
}
);
color = 4;
components = (
{
name = a.sc;
}
);
layerId = "F2028F70-0529-41D4-9F63-024EA79743CD";
paths = (
{
closed = 1;
nodes = (
"506 0 LINE",
"828 0 LINE",
"828 160 LINE",
"574 160 LINE",
"574 208 LINE",
"780 208 LINE",
"780 356 LINE",
"574 356 LINE",
"574 412 LINE",
"824 412 LINE",
"824 572 LINE",
"506 572 LINE"
);
}
);
width = 872;
},
{
anchors = (
{
name = bottom;
position = "{440, 0}";
},
{
name = top;
position = "{464, 572}";
}
);
color = 4;
components = (
{
name = a.sc;
}
);
layerId = "3E005A84-7828-4122-B6E8-61930BD9836F";
paths = (
{
closed = 1;
nodes = (
"464 0 LINE",
"828 0 LINE",
"828 80 LINE",
"506 80 LINE",
"506 260 LINE",
"772 260 LINE",
"772 336 LINE",
"506 336 LINE",
"506 492 LINE",
"820 492 LINE",
"820 572 LINE",
"464 572 LINE"
);
}
);
width = 880;
}
);
leftKerningGroup = a.sc;
leftMetricsKey = a.sc;
note = ae.sc;
rightKerningGroup = e.sc;
rightMetricsKey = e.sc;
},
{
glyphname = b.sc;
lastChange = "2020-07-10 12:18:08 +0000";
layers = (
{
color = 4;
layerId = "F2028F70-0529-41D4-9F63-024EA79743CD";
paths = (
{
closed = 1;
nodes = (
"368 0 LINE SMOOTH",
"509 0 OFFCURVE",
"600 47 OFFCURVE",
"600 156 CURVE SMOOTH",
"600 226 OFFCURVE",
"551 287 OFFCURVE",
"447 291 CURVE",
"456 242 LINE",
"548 275 OFFCURVE",
"588 343 OFFCURVE",
"588 408 CURVE SMOOTH",
"588 513 OFFCURVE",
"509 572 OFFCURVE",
"344 572 CURVE SMOOTH",
"172 572 LINE",
"172 424 LINE",
"324 424 LINE SMOOTH",
"348 424 OFFCURVE",
"376 418 OFFCURVE",
"376 384 CURVE SMOOTH",
"376 357 OFFCURVE",
"359 336 OFFCURVE",
"320 336 CURVE SMOOTH",
"172 336 LINE",
"172 204 LINE",
"356 204 LINE SMOOTH",
"375 204 OFFCURVE",
"388 193 OFFCURVE",
"388 176 CURVE SMOOTH",
"388 157 OFFCURVE",
"376 148 OFFCURVE",
"356 148 CURVE SMOOTH",
"172 148 LINE",
"173 0 LINE"
);
},
{
closed = 1;
nodes = (
"272 0 LINE",
"272 572 LINE",
"64 572 LINE",
"64 0 LINE"
);
}
);
width = 636;
},
{
color = 4;
layerId = "3E005A84-7828-4122-B6E8-61930BD9836F";
paths = (
{
closed = 1;
nodes = (
"344 0 LINE SMOOTH",
"473 0 OFFCURVE",
"524 70 OFFCURVE",
"524 148 CURVE SMOOTH",
"524 214 OFFCURVE",
"481 262 OFFCURVE",
"403 273 CURVE",
"408 254 LINE",
"480 284 OFFCURVE",
"516 352 OFFCURVE",
"516 416 CURVE SMOOTH",
"516 521 OFFCURVE",
"446 572 OFFCURVE",
"316 572 CURVE SMOOTH",
"148 572 LINE",
"148 492 LINE",
"316 492 LINE SMOOTH",
"381 492 OFFCURVE",
"424 474 OFFCURVE",
"424 412 CURVE SMOOTH",
"424 350 OFFCURVE",
"384 292 OFFCURVE",
"308 292 CURVE SMOOTH",
"148 292 LINE",
"148 220 LINE",
"340 220 LINE SMOOTH",
"392 220 OFFCURVE",
"432 199 OFFCURVE",
"432 148 CURVE SMOOTH",
"432 93 OFFCURVE",
"389 76 OFFCURVE",
"340 76 CURVE SMOOTH",
"148 76 LINE",
"148 0 LINE"
);
},
{
closed = 1;
nodes = (
"188 0 LINE",
"188 572 LINE",
"96 572 LINE",
"96 0 LINE"
);
}
);
width = 580;
}
);
leftKerningGroup = b.sc;
note = b.sc;
rightKerningGroup = b.sc;
},
{
glyphname = ordfeminine.sc;
lastChange = "2020-07-10 12:18:08 +0000";
layers = (
{
color = 4;
layerId = "F2028F70-0529-41D4-9F63-024EA79743CD";
paths = (
{
closed = 1;
nodes = (
"264 223 OFFCURVE",
"319 232 OFFCURVE",
"358 241 CURVE",
"360 246 LINE",
"354 268 OFFCURVE",
"353 318 OFFCURVE",
"353 346 CURVE SMOOTH",
"353 424 LINE SMOOTH",
"353 546 OFFCURVE",
"279 580 OFFCURVE",
"164 580 CURVE SMOOTH",
"118 580 OFFCURVE",
"81 575 OFFCURVE",
"51 569 CURVE",
"51 466 LINE",
"59 466 LINE",
"79 474 OFFCURVE",
"110 479 OFFCURVE",
"149 479 CURVE SMOOTH",
"193 479 OFFCURVE",
"217 471 OFFCURVE",
"217 436 CURVE SMOOTH",
"217 435 LINE",
"206 436 OFFCURVE",
"190 438 OFFCURVE",
"174 438 CURVE SMOOTH",
"90 438 OFFCURVE",
"25 410 OFFCURVE",
"25 331 CURVE SMOOTH",
"25 249 OFFCURVE",
"86 223 OFFCURVE",
"202 223 CURVE SMOOTH"
);
},
{
closed = 1;
nodes = (
"167 309 OFFCURVE",
"152 315 OFFCURVE",
"152 335 CURVE SMOOTH",
"152 353 OFFCURVE",
"164 363 OFFCURVE",
"195 363 CURVE SMOOTH",
"206 363 OFFCURVE",
"213 363 OFFCURVE",
"217 362 CURVE",
"217 341 OFFCURVE",
"221 324 OFFCURVE",
"225 313 CURVE",
"215 310 OFFCURVE",
"203 309 OFFCURVE",
"193 309 CURVE SMOOTH"
);
}
);
width = 394;
},
{
color = 4;
layerId = "3E005A84-7828-4122-B6E8-61930BD9836F";
paths = (
{
closed = 1;
nodes = (
"239 226 OFFCURVE",
"298 235 OFFCURVE",
"338 250 CURVE",
"339 255 LINE",
"334 277 OFFCURVE",
"333 330 OFFCURVE",
"333 355 CURVE SMOOTH",
"333 436 LINE SMOOTH",
"333 555 OFFCURVE",
"266 580 OFFCURVE",
"174 580 CURVE SMOOTH",
"138 580 OFFCURVE",
"99 574 OFFCURVE",
"70 564 CURVE",
"70 497 LINE",
"75 497 LINE",
"95 507 OFFCURVE",
"130 516 OFFCURVE",
"165 516 CURVE SMOOTH",
"223 516 OFFCURVE",
"254 503 OFFCURVE",
"254 438 CURVE SMOOTH",
"254 432 LINE",
"241 436 OFFCURVE",
"214 440 OFFCURVE",
"186 440 CURVE SMOOTH",
"99 440 OFFCURVE",
"40 407 OFFCURVE",
"40 333 CURVE SMOOTH",
"40 258 OFFCURVE",
"92 226 OFFCURVE",
"194 226 CURVE SMOOTH"
);
},
{
closed = 1;
nodes = (
"144 285 OFFCURVE",
"117 299 OFFCURVE",
"117 334 CURVE SMOOTH",
"117 372 OFFCURVE",
"143 385 OFFCURVE",
"199 385 CURVE SMOOTH",
"222 385 OFFCURVE",
"240 382 OFFCURVE",
"254 378 CURVE",
"254 317 OFFCURVE",
"254 307 OFFCURVE",
"257 293 CURVE",
"238 288 OFFCURVE",
"216 285 OFFCURVE",
"194 285 CURVE SMOOTH"
);
}
);
width = 386;
}
);
leftKerningGroup = ordfeminine.sc;
note = ordfeminine.sc;
},
{
glyphname = ordmasculine.sc;
lastChange = "2020-07-10 12:18:08 +0000";
layers = (
{
color = 4;
layerId = "F2028F70-0529-41D4-9F63-024EA79743CD";
paths = (
{
closed = 1;
nodes = (
"23 275 OFFCURVE",
"102 223 OFFCURVE",
"211 223 CURVE SMOOTH",
"321 223 OFFCURVE",
"399 275 OFFCURVE",
"399 401 CURVE SMOOTH",
"399 527 OFFCURVE",
"321 580 OFFCURVE",
"211 580 CURVE SMOOTH",
"102 580 OFFCURVE",
"23 527 OFFCURVE",
"23 401 CURVE SMOOTH"
);
},
{
closed = 1;
nodes = (
"168 455 OFFCURVE",
"180 483 OFFCURVE",
"211 483 CURVE SMOOTH",
"242 483 OFFCURVE",
"253 455 OFFCURVE",
"253 401 CURVE SMOOTH",
"253 348 OFFCURVE",
"242 319 OFFCURVE",
"211 319 CURVE SMOOTH",
"180 319 OFFCURVE",
"168 348 OFFCURVE",
"168 401 CURVE SMOOTH"
);
}
);
width = 422;
},
{
color = 4;
layerId = "3E005A84-7828-4122-B6E8-61930BD9836F";
paths = (
{
closed = 1;
nodes = (
"31 289 OFFCURVE",
"97 227 OFFCURVE",
"196 227 CURVE SMOOTH",
"293 227 OFFCURVE",
"361 289 OFFCURVE",
"361 404 CURVE SMOOTH",
"361 519 OFFCURVE",
"293 580 OFFCURVE",
"196 580 CURVE SMOOTH",
"99 580 OFFCURVE",
"31 519 OFFCURVE",
"31 404 CURVE SMOOTH"
);
},
{
closed = 1;
nodes = (
"114 478 OFFCURVE",
"143 515 OFFCURVE",
"196 515 CURVE SMOOTH",
"249 515 OFFCURVE",
"277 478 OFFCURVE",
"277 404 CURVE SMOOTH",
"277 329 OFFCURVE",
"249 292 OFFCURVE",
"196 292 CURVE SMOOTH",
"143 292 OFFCURVE",
"114 329 OFFCURVE",
"114 404 CURVE SMOOTH"
);
}
);
width = 392;
}
);
leftKerningGroup = ordfeminine.sc;
note = ordmasculine.sc;
},
{
glyphname = c.sc;
lastChange = "2020-07-10 12:18:08 +0000";
layers = (
{
anchors = (
{
name = bottom;
position = "{321, 0}";
},
{
name = top;
position = "{354, 572}";
}
);
color = 4;
layerId = "F2028F70-0529-41D4-9F63-024EA79743CD";
paths = (
{
closed = 1;
nodes = (
"32 104 OFFCURVE",
"147 -12 OFFCURVE",
"396 -12 CURVE SMOOTH",
"454 -12 OFFCURVE",
"507 0 OFFCURVE",
"528 8 CURVE",
"528 168 LINE",
"516 168 LINE",
"495 159 OFFCURVE",
"458 148 OFFCURVE",
"416 148 CURVE SMOOTH",
"283 148 OFFCURVE",
"244 212 OFFCURVE",
"244 284 CURVE SMOOTH",
"244 355 OFFCURVE",
"283 424 OFFCURVE",
"416 424 CURVE SMOOTH",
"458 424 OFFCURVE",
"495 417 OFFCURVE",
"516 408 CURVE",
"528 408 LINE",
"528 568 LINE",
"507 576 OFFCURVE",
"454 584 OFFCURVE",
"396 584 CURVE SMOOTH",
"147 584 OFFCURVE",
"32 466 OFFCURVE",
"32 284 CURVE SMOOTH"
);
}
);
width = 568;
},
{
anchors = (
{
name = bottom;
position = "{334, 0}";
},
{
name = top;
position = "{315, 572}";
}
);
color = 4;
layerId = "3E005A84-7828-4122-B6E8-61930BD9836F";
paths = (
{
closed = 1;
nodes = (
"52 100 OFFCURVE",
"165 -12 OFFCURVE",
"368 -12 CURVE SMOOTH",
"426 -12 OFFCURVE",
"471 1 OFFCURVE",
"504 16 CURVE",
"504 96 LINE",
"496 96 LINE",
"462 79 OFFCURVE",
"419 68 OFFCURVE",
"368 68 CURVE SMOOTH",
"231 68 OFFCURVE",
"148 142 OFFCURVE",
"148 284 CURVE SMOOTH",
"148 426 OFFCURVE",
"231 504 OFFCURVE",
"368 504 CURVE SMOOTH",
"419 504 OFFCURVE",
"462 494 OFFCURVE",
"496 476 CURVE",
"504 476 LINE",
"504 560 LINE",
"471 575 OFFCURVE",
"426 584 OFFCURVE",
"368 584 CURVE SMOOTH",
"165 584 OFFCURVE",
"52 462 OFFCURVE",
"52 284 CURVE SMOOTH"
);
}
);
width = 552;
}
);
leftKerningGroup = c.sc;
note = c.sc;
rightKerningGroup = c.sc;
},
{
glyphname = d.sc;
lastChange = "2020-07-10 12:18:08 +0000";
layers = (
{
anchors = (
{
name = bottom;
position = "{348, 0}";
},
{
name = center;
position = "{172, 286}";
},
{
name = top;
position = "{348, 572}";
}
);
color = 4;
layerId = "F2028F70-0529-41D4-9F63-024EA79743CD";
paths = (
{
closed = 1;
nodes = (
"64 0 LINE",
"296 0 LINE SMOOTH",
"555 0 OFFCURVE",
"664 133 OFFCURVE",
"664 308 CURVE SMOOTH",
"664 473 OFFCURVE",
"555 572 OFFCURVE",
"324 572 CURVE SMOOTH",
"64 572 LINE"
);
},
{
closed = 1;
nodes = (
"316 412 LINE SMOOTH",
"415 412 OFFCURVE",
"452 371 OFFCURVE",
"452 304 CURVE SMOOTH",
"452 202 OFFCURVE",
"389 160 OFFCURVE",
"300 160 CURVE SMOOTH",
"186 160 LINE",
"272 74 LINE",
"272 498 LINE",
"186 412 LINE"
);
}
);
width = 696;
},
{
anchors = (
{
name = bottom;
position = "{322, 0}";
},
{
name = center;
position = "{156, 290}";
},
{
name = top;
position = "{322, 572}";
}
);
color = 4;
layerId = "3E005A84-7828-4122-B6E8-61930BD9836F";
paths = (
{
closed = 1;
nodes = (
"96 0 LINE",
"284 0 LINE SMOOTH",
"510 0 OFFCURVE",
"592 155 OFFCURVE",
"592 316 CURVE SMOOTH",
"592 483 OFFCURVE",
"494 572 OFFCURVE",
"308 572 CURVE SMOOTH",
"96 572 LINE"
);
},
{
closed = 1;
nodes = (
"308 492 LINE SMOOTH",
"437 492 OFFCURVE",
"496 431 OFFCURVE",
"496 316 CURVE SMOOTH",
"496 204 OFFCURVE",
"451 80 OFFCURVE",
"288 80 CURVE SMOOTH",
"150 80 LINE",
"188 42 LINE",
"188 530 LINE",
"150 492 LINE"
);
}
);
width = 644;
}
);
leftKerningGroup = b.sc;
note = d.sc;
rightKerningGroup = d.sc;
},
{
glyphname = e.sc;
lastChange = "2020-07-10 12:18:08 +0000";
layers = (
{
anchors = (
{
name = bottom;
position = "{270, 0}";
},
{
name = ogonek;
position = "{496, 0}";
},
{
name = top;
position = "{270, 572}";
},
{
name = topleft;
position = "{20, 572}";
}
);
color = 4;
layerId = "F2028F70-0529-41D4-9F63-024EA79743CD";
paths = (
{
closed = 1;
nodes = (
"64 0 LINE",
"496 0 LINE",
"496 160 LINE",
"272 160 LINE",
"272 208 LINE",
"448 208 LINE",
"448 356 LINE",
"272 356 LINE",
"272 412 LINE",
"492 412 LINE",
"492 572 LINE",
"64 572 LINE"
);
}
);
width = 540;
},
{
anchors = (
{
name = bottom;
position = "{276, 0}";
},
{
name = ogonek;
position = "{500, 0}";
},
{
name = top;
position = "{276, 572}";
},
{
name = topleft;
position = "{20, 572}";
}
);
color = 4;
layerId = "3E005A84-7828-4122-B6E8-61930BD9836F";
paths = (
{
closed = 1;
nodes = (
"96 0 LINE",
"500 0 LINE",
"500 80 LINE",
"188 80 LINE",
"188 260 LINE",
"444 260 LINE",
"444 336 LINE",
"188 336 LINE",
"188 492 LINE",
"492 492 LINE",
"492 572 LINE",
"96 572 LINE"
);
}
);
width = 552;
}
);
leftKerningGroup = b.sc;
note = e.sc;
rightKerningGroup = e.sc;
},
{
glyphname = schwa.sc;
lastChange = "2020-07-10 12:18:08 +0000";
layers = (
{
layerId = "3E005A84-7828-4122-B6E8-61930BD9836F";
paths = (
{
closed = 1;
nodes = (
"188 584 OFFCURVE",
"120 570 OFFCURVE",
"88 554 CURVE",
"88 472 LINE",
"96 472 LINE",
"124 488 OFFCURVE",
"188 504 OFFCURVE",
"252 504 CURVE SMOOTH",
"363 504 OFFCURVE",
"450 456 OFFCURVE",
"450 284 CURVE SMOOTH",
"450 264 LINE SMOOTH",
"450 116 OFFCURVE",
"376 68 OFFCURVE",
"292 68 CURVE SMOOTH",
"196 68 OFFCURVE",
"148 120 OFFCURVE",
"148 220 CURVE SMOOTH",
"148 228 LINE",
"480 228 LINE",
"480 304 LINE",
"53 304 LINE",
"52 276 LINE SMOOTH",
"46 104 OFFCURVE",
"116 -12 OFFCURVE",
"292 -12 CURVE SMOOTH",
"446 -12 OFFCURVE",
"546 100 OFFCURVE",
"546 284 CURVE SMOOTH",
"546 484 OFFCURVE",
"450 584 OFFCURVE",
"256 584 CURVE SMOOTH"
);
}
);
width = 598;
},
{
color = 4;
layerId = "F2028F70-0529-41D4-9F63-024EA79743CD";
paths = (
{
closed = 1;
nodes = (
"180 584 OFFCURVE",
"125 572 OFFCURVE",
"81 556 CURVE",
"81 400 LINE",
"93 400 LINE",
"121 416 OFFCURVE",
"177 428 OFFCURVE",
"237 428 CURVE SMOOTH",
"329 428 OFFCURVE",
"389 404 OFFCURVE",
"389 300 CURVE SMOOTH",
"389 256 LINE SMOOTH",
"389 160 OFFCURVE",
"366 128 OFFCURVE",
"313 128 CURVE SMOOTH",
"262 128 OFFCURVE",
"241 160 OFFCURVE",
"241 212 CURVE SMOOTH",
"241 216 LINE",
"473 216 LINE",
"473 332 LINE",
"43 332 LINE",
"41 292 LINE SMOOTH",
"32 120 OFFCURVE",
"117 -12 OFFCURVE",
"309 -12 CURVE SMOOTH",
"488 -12 OFFCURVE",
"601 92 OFFCURVE",
"601 276 CURVE SMOOTH",
"601 516 OFFCURVE",
"453 584 OFFCURVE",
"257 584 CURVE SMOOTH"
);
}
);
width = 633;
}
);
rightMetricsKey = o.sc;
},
{
glyphname = f.sc;
lastChange = "2020-07-10 12:18:08 +0000";
layers = (
{
color = 4;
layerId = "F2028F70-0529-41D4-9F63-024EA79743CD";
paths = (
{
closed = 1;
nodes = (
"64 0 LINE",
"272 0 LINE",
"272 164 LINE",
"448 164 LINE",
"448 312 LINE",
"272 312 LINE",
"272 412 LINE",
"492 412 LINE",
"492 572 LINE",
"64 572 LINE"
);
}
);
width = 524;
},
{
color = 4;
layerId = "3E005A84-7828-4122-B6E8-61930BD9836F";
paths = (
{
closed = 1;
nodes = (
"96 0 LINE",
"188 0 LINE",
"188 216 LINE",
"432 216 LINE",
"432 292 LINE",
"188 292 LINE",
"188 492 LINE",
"480 492 LINE",
"480 572 LINE",
"96 572 LINE"
);
}
);
width = 520;
}
);
leftKerningGroup = b.sc;
note = f.sc;
rightKerningGroup = f.sc;
},
{
glyphname = g.sc;
lastChange = "2020-07-10 12:18:08 +0000";
layers = (
{
anchors = (
{
name = bottom;
position = "{324, 0}";
},
{
name = top;
position = "{324, 572}";
}
);
color = 4;
layerId = "F2028F70-0529-41D4-9F63-024EA79743CD";
paths = (
{
closed = 1;
nodes = (
"32 106 OFFCURVE",
"148 -12 OFFCURVE",
"376 -12 CURVE SMOOTH",
"467 -12 OFFCURVE",
"541 1 OFFCURVE",
"592 20 CURVE",
"592 296 LINE",
"400 296 LINE",
"400 59 LINE",
"416 152 LINE",
"407 149 OFFCURVE",
"396 144 OFFCURVE",
"380 144 CURVE SMOOTH",
"275 144 OFFCURVE",
"244 206 OFFCURVE",
"244 276 CURVE SMOOTH",
"244 362 OFFCURVE",
"293 424 OFFCURVE",
"424 424 CURVE SMOOTH",
"471 424 OFFCURVE",
"518 418 OFFCURVE",
"540 408 CURVE",
"556 408 LINE",
"556 568 LINE",
"535 576 OFFCURVE",
"480 584 OFFCURVE",
"416 584 CURVE SMOOTH",
"162 584 OFFCURVE",
"32 454 OFFCURVE",
"32 280 CURVE SMOOTH"
);
}
);
width = 648;
},
{
anchors = (
{
name = bottom;
position = "{304, 0}";
},
{
name = top;
position = "{304, 572}";
}
);
color = 4;
layerId = "3E005A84-7828-4122-B6E8-61930BD9836F";
paths = (
{
closed = 1;
nodes = (
"52 107 OFFCURVE",
"153 -12 OFFCURVE",
"364 -12 CURVE SMOOTH",
"428 -12 OFFCURVE",
"489 1 OFFCURVE",
"528 20 CURVE",
"528 288 LINE",
"436 288 LINE",
"436 38 LINE",
"458 82 LINE",
"431 73 OFFCURVE",
"398 68 OFFCURVE",
"364 68 CURVE SMOOTH",
"228 68 OFFCURVE",
"148 137 OFFCURVE",
"148 284 CURVE SMOOTH",
"148 430 OFFCURVE",
"233 504 OFFCURVE",
"376 504 CURVE SMOOTH",
"434 504 OFFCURVE",
"482 490 OFFCURVE",
"512 476 CURVE",
"520 476 LINE",
"520 560 LINE",
"486 575 OFFCURVE",
"438 584 OFFCURVE",
"376 584 CURVE SMOOTH",
"170 584 OFFCURVE",
"52 462 OFFCURVE",
"52 284 CURVE SMOOTH"
);
}
);
width = 608;
}
);
leftKerningGroup = c.sc;
note = g.sc;
rightKerningGroup = g.sc;
},
{
glyphname = h.sc;
lastChange = "2020-07-10 12:18:08 +0000";
layers = (
{
anchors = (
{
name = bottom;
position = "{352, 0}";
},
{
name = center;
position = "{352, 470}";
},
{
name = top;
position = "{352, 572}";
},
{
name = topleft;
position = "{20, 572}";
}
);
color = 4;
layerId = "F2028F70-0529-41D4-9F63-024EA79743CD";
paths = (
{
closed = 1;
nodes = (
"64 0 LINE",
"272 0 LINE",
"272 572 LINE",
"64 572 LINE"
);
},
{
closed = 1;
nodes = (
"432 0 LINE",
"640 0 LINE",
"640 572 LINE",
"432 572 LINE"
);
},
{
closed = 1;
nodes = (
"172 196 LINE",
"532 196 LINE",
"532 364 LINE",
"172 364 LINE"
);
}
);
width = 704;
},
{
anchors = (
{
name = bottom;
position = "{334, 0}";
},
{
name = center;
position = "{334, 456}";
},
{
name = top;
position = "{334, 572}";
},
{
name = topleft;
position = "{20, 572}";
}
);
color = 4;
layerId = "3E005A84-7828-4122-B6E8-61930BD9836F";
paths = (
{
closed = 1;
nodes = (
"96 0 LINE",
"188 0 LINE",
"188 572 LINE",
"96 572 LINE"
);
},
{
closed = 1;
nodes = (
"480 0 LINE",
"572 0 LINE",
"572 572 LINE",
"480 572 LINE"
);
},
{
closed = 1;
nodes = (
"148 256 LINE",
"520 256 LINE",
"520 336 LINE",
"148 336 LINE"
);
}
);
width = 668;
}
);
leftKerningGroup = b.sc;
note = h.sc;
},
{
glyphname = i.sc;
lastChange = "2020-07-10 12:18:08 +0000";
layers = (
{
anchors = (
{
name = bottom;
position = "{168, 0}";
},
{
name = ogonek;
position = "{272, 0}";
},
{
name = top;
position = "{168, 572}";
}
);
color = 4;
layerId = "F2028F70-0529-41D4-9F63-024EA79743CD";
paths = (
{
closed = 1;
nodes = (
"64 0 LINE",
"272 0 LINE",
"272 572 LINE",
"64 572 LINE"
);
}
);
width = 336;
},
{
anchors = (
{
name = bottom;
position = "{142, 0}";
},
{
name = ogonek;
position = "{188, 0}";
},
{
name = top;
position = "{142, 572}";
}
);
color = 4;
layerId = "3E005A84-7828-4122-B6E8-61930BD9836F";
paths = (
{
closed = 1;
nodes = (
"96 0 LINE",
"188 0 LINE",
"188 572 LINE",
"96 572 LINE"
);
}
);
width = 284;
}
);
leftKerningGroup = b.sc;
note = i.sc;
},
{
glyphname = idotless.sc;
lastChange = "2020-07-10 12:18:08 +0000";
layers = (
{
anchors = (
{
name = bottom;
position = "{168, 0}";
},
{
name = ogonek;
position = "{272, 0}";
},
{
name = top;
position = "{168, 572}";
},
{
name = topleft;
position = "{20, 572}";
}
);
color = 4;
layerId = "F2028F70-0529-41D4-9F63-024EA79743CD";
paths = (
{
closed = 1;
nodes = (
"64 0 LINE",
"272 0 LINE",
"272 572 LINE",
"64 572 LINE"
);
}
);
width = 336;
},
{
anchors = (
{
name = bottom;
position = "{142, 0}";
},
{
name = ogonek;
position = "{188, 0}";
},
{
name = top;
position = "{142, 572}";
},
{
name = topleft;
position = "{20, 572}";
}
);
color = 4;
layerId = "3E005A84-7828-4122-B6E8-61930BD9836F";
paths = (
{
closed = 1;
nodes = (
"96 0 LINE",
"188 0 LINE",
"188 572 LINE",
"96 572 LINE"
);
}
);
width = 284;
}
);
leftKerningGroup = b.sc;
note = dotlessi.sc;
},
{
glyphname = j.sc;
lastChange = "2020-07-10 12:18:08 +0000";
layers = (
{
anchors = (
{
name = bottom;
position = "{220, 0}";
},
{
name = top;
position = "{280, 572}";
}
);
color = 4;
layerId = "F2028F70-0529-41D4-9F63-024EA79743CD";
paths = (
{
closed = 1;
nodes = (
"28 0 LINE",
"53 -7 OFFCURVE",
"92 -12 OFFCURVE",
"128 -12 CURVE SMOOTH",
"265 -12 OFFCURVE",
"384 39 OFFCURVE",
"384 200 CURVE SMOOTH",
"384 572 LINE",
"176 572 LINE",
"176 220 LINE SMOOTH",
"176 164 OFFCURVE",
"147 144 OFFCURVE",
"96 144 CURVE SMOOTH",
"76 144 OFFCURVE",
"58 149 OFFCURVE",
"40 156 CURVE",
"28 156 LINE"
);
}
);
width = 440;
},
{
anchors = (
{
name = bottom;
position = "{202, 0}";
},
{
name = top;
position = "{270, 572}";
}
);
color = 4;
layerId = "3E005A84-7828-4122-B6E8-61930BD9836F";
paths = (
{
closed = 1;
nodes = (
"36 0 LINE",
"57 -5 OFFCURVE",
"92 -12 OFFCURVE",
"124 -12 CURVE SMOOTH",
"248 -12 OFFCURVE",
"316 56 OFFCURVE",
"316 168 CURVE SMOOTH",
"316 572 LINE",
"224 572 LINE",
"224 160 LINE SMOOTH",
"224 101 OFFCURVE",
"188 68 OFFCURVE",
"120 68 CURVE SMOOTH",
"96 68 OFFCURVE",
"58 71 OFFCURVE",
"44 76 CURVE",
"36 76 LINE"
);
}
);
width = 404;
}
);
leftKerningGroup = j.sc;
note = j.sc;
rightKerningGroup = j.sc;
},
{
glyphname = k.sc;
lastChange = "2020-07-10 12:18:08 +0000";
layers = (
{
anchors = (
{
name = bottom;
position = "{326, 0}";
},
{
name = top;
position = "{326, 572}";
}
);
color = 4;
layerId = "F2028F70-0529-41D4-9F63-024EA79743CD";
paths = (
{
closed = 1;
nodes = (
"520 243 OFFCURVE",
"552 348 CURVE SMOOTH",
"616 560 LINE",
"616 572 LINE",
"412 572 LINE",
"368 396 LINE SMOOTH",
"358 354 OFFCURVE",
"330 336 OFFCURVE",
"276 336 CURVE SMOOTH",
"272 336 LINE",
"272 572 LINE",
"64 572 LINE",
"64 0 LINE",
"272 0 LINE",
"272 172 LINE",
"300 172 LINE SMOOTH",
"440 172 OFFCURVE"
);
},
{
closed = 1;
nodes = (
"412 0 LINE",
"632 0 LINE",
"632 8 LINE",
"456 264 LINE",
"266 236 LINE"
);
}
);
width = 652;
},
{
anchors = (
{
name = bottom;
position = "{294, 0}";
},
{
name = top;
position = "{294, 572}";
}
);
color = 4;
layerId = "3E005A84-7828-4122-B6E8-61930BD9836F";
paths = (
{
closed = 1;
nodes = (
"398 269 OFFCURVE",
"432 336 CURVE SMOOTH",
"548 564 LINE",
"548 572 LINE",
"456 572 LINE",
"348 360 LINE SMOOTH",
"329 322 OFFCURVE",
"306 296 OFFCURVE",
"248 296 CURVE SMOOTH",
"188 296 LINE",
"188 572 LINE",
"96 572 LINE",
"96 0 LINE",
"188 0 LINE",
"188 216 LINE",
"252 216 LINE SMOOTH",
"336 216 OFFCURVE"
);
},
{
closed = 1;
nodes = (
"452 0 LINE",
"552 0 LINE",
"552 8 LINE",
"360 288 LINE",
"284 252 LINE"
);
}
);
width = 588;
}
);
leftKerningGroup = b.sc;
note = k.sc;
rightKerningGroup = k.sc;
},
{
glyphname = kgreenlandic.sc;
lastChange = "2020-07-10 12:18:08 +0000";
layers = (
{
anchors = (
{
name = bottom;
position = "{266, 0}";
},
{
name = top;
position = "{266, 572}";
}
);
color = 4;
layerId = "3E005A84-7828-4122-B6E8-61930BD9836F";
paths = (
{
closed = 1;
nodes = (
"524 0 LINE",
"524 12 LINE",
"506 28 OFFCURVE",
"469 69 OFFCURVE",
"444 100 CURVE SMOOTH",
"259 332 LINE",
"258 285 LINE",
"442 480 LINE SMOOTH",
"469 509 OFFCURVE",
"500 544 OFFCURVE",
"520 560 CURVE",
"520 572 LINE",
"416 572 LINE",
"176 300 LINE",
"416 0 LINE"
);
},
{
closed = 1;
nodes = (
"188 0 LINE",
"188 572 LINE",
"96 572 LINE",
"96 0 LINE"
);
}
);
width = 532;
},
{
anchors = (
{
name = bottom;
position = "{332, 0}";
},
{
name = top;
position = "{332, 572}";
}
);
color = 4;
layerId = "F2028F70-0529-41D4-9F63-024EA79743CD";
paths = (
{
closed = 1;
nodes = (
"668 0 LINE",
"668 12 LINE",
"648 28 OFFCURVE",
"611 64 OFFCURVE",
"588 98 CURVE SMOOTH",
"397 381 LINE",
"396 244 LINE",
"563 459 LINE SMOOTH",
"589 492 OFFCURVE",
"639 544 OFFCURVE",
"660 560 CURVE",
"660 572 LINE",
"428 572 LINE",
"236 300 LINE",
"416 0 LINE"
);
},
{
closed = 1;
nodes = (
"276 0 LINE",
"276 572 LINE",
"64 572 LINE",
"64 0 LINE"
);
}
);
width = 664;
}
);
leftKerningGroup = b.sc;
leftMetricsKey = h.sc;
rightKerningGroup = k.sc;
rightMetricsKey = k;
},
{
glyphname = l.sc;
lastChange = "2020-07-10 12:18:08 +0000";
layers = (
{
anchors = (
{
name = bottom;
position = "{256, 0}";
},
{
name = center;
position = "{188, 324}";
},
{
name = periodCAT;
position = "{392, 360}";
},
{
name = top;
position = "{168, 572}";
},
{
name = topright;
position = "{404, 372}";
}
);
color = 4;
layerId = "F2028F70-0529-41D4-9F63-024EA79743CD";
paths = (
{
closed = 1;
nodes = (
"64 0 LINE",
"480 0 LINE",
"480 160 LINE",
"272 160 LINE",
"272 572 LINE",
"64 572 LINE"
);
}
);
width = 512;
},
{
anchors = (
{
name = bottom;
position = "{242, 0}";
},
{
name = center;
position = "{178, 318}";
},
{
name = periodCAT;
position = "{324, 312}";
},
{
name = top;
position = "{142, 572}";
},
{
name = topright;
position = "{340, 368}";
}
);
color = 4;
layerId = "3E005A84-7828-4122-B6E8-61930BD9836F";
paths = (
{
closed = 1;
nodes = (
"96 0 LINE",
"448 0 LINE",
"448 80 LINE",
"188 80 LINE",
"188 572 LINE",
"96 572 LINE"
);
}
);
width = 484;
}
);
leftKerningGroup = b.sc;
note = l.sc;
rightKerningGroup = l.sc;
},
{
glyphname = m.sc;
lastChange = "2020-07-10 12:18:08 +0000";
layers = (
{
anchors = (
{
name = bottom;
position = "{404, 0}";
},
{
name = top;
position = "{404, 572}";
}
);
color = 4;
layerId = "F2028F70-0529-41D4-9F63-024EA79743CD";
paths = (
{
closed = 1;
nodes = (
"64 0 LINE",
"272 0 LINE",
"272 306 LINE",
"226 293 LINE",
"364 72 LINE",
"444 72 LINE",
"581 298 LINE",
"536 310 LINE",
"536 0 LINE",
"744 0 LINE",
"744 572 LINE",
"568 572 LINE",
"362 231 LINE",
"453 232 LINE",
"240 572 LINE",
"64 572 LINE"
);
}
);
width = 808;
},
{
anchors = (
{
name = bottom;
position = "{372, 0}";
},
{
name = top;
position = "{372, 572}";
}
);
color = 4;
layerId = "3E005A84-7828-4122-B6E8-61930BD9836F";
paths = (
{
closed = 1;
nodes = (
"96 0 LINE",
"188 0 LINE",
"188 434 LINE",
"166 427 LINE",
"340 180 LINE",
"404 180 LINE",
"578 427 LINE",
"556 434 LINE",
"556 0 LINE",
"648 0 LINE",
"648 572 LINE",
"572 572 LINE",
"353 253 LINE",
"395 253 LINE",
"176 572 LINE",
"96 572 LINE"
);
}
);
width = 744;
}
);
note = m.sc;
},
{
glyphname = n.sc;
lastChange = "2020-07-10 12:18:08 +0000";
layers = (
{
anchors = (
{
name = bottom;
position = "{354, 0}";
},
{
name = top;
position = "{354, 572}";
}
);
color = 4;
layerId = "F2028F70-0529-41D4-9F63-024EA79743CD";
paths = (
{
closed = 1;
nodes = (
"272 0 LINE",
"272 372 LINE",
"208 344 LINE",
"464 113 LINE",
"464 360 LINE",
"228 572 LINE",
"64 572 LINE",
"64 0 LINE"
);
},
{
closed = 1;
nodes = (
"644 0 LINE",
"644 572 LINE",
"436 572 LINE",
"436 0 LINE"
);
}
);
width = 708;
},
{
anchors = (
{
name = bottom;
position = "{334, 0}";
},
{
name = top;
position = "{334, 572}";
}
);
color = 4;
layerId = "3E005A84-7828-4122-B6E8-61930BD9836F";
paths = (
{
closed = 1;
nodes = (
"188 0 LINE",
"188 473 LINE",
"161 461 LINE",
"498 138 LINE",
"498 260 LINE",
"172 572 LINE",
"96 572 LINE",
"96 0 LINE"
);
},
{
closed = 1;
nodes = (
"572 0 LINE",
"572 572 LINE",
"480 572 LINE",
"480 0 LINE"
);
}
);
width = 668;
}
);
leftKerningGroup = b.sc;
note = n.sc;
},
{
glyphname = eng.sc;
lastChange = "2020-07-10 12:18:08 +0000";
layers = (
{
color = 4;
layerId = "F2028F70-0529-41D4-9F63-024EA79743CD";
paths = (
{
closed = 1;
nodes = (
"272 0 LINE",
"272 372 LINE",
"208 344 LINE",
"464 113 LINE",
"464 360 LINE",
"228 572 LINE",
"64 572 LINE",
"64 0 LINE"
);
},
{
closed = 1;
nodes = (
"308 -228 LINE",
"333 -235 OFFCURVE",
"352 -240 OFFCURVE",
"396 -240 CURVE SMOOTH",
"525 -240 OFFCURVE",
"644 -189 OFFCURVE",
"644 -28 CURVE SMOOTH",
"644 572 LINE",
"436 572 LINE",
"436 -12 LINE SMOOTH",
"436 -68 OFFCURVE",
"407 -84 OFFCURVE",
"364 -84 CURVE SMOOTH",
"356 -84 OFFCURVE",
"338 -83 OFFCURVE",
"320 -76 CURVE",
"308 -76 LINE"
);
}
);
width = 708;
},
{
color = 4;
layerId = "3E005A84-7828-4122-B6E8-61930BD9836F";
paths = (
{
closed = 1;
nodes = (
"188 0 LINE",
"188 473 LINE",
"161 461 LINE",
"498 138 LINE",
"498 260 LINE",
"172 572 LINE",
"96 572 LINE",
"96 0 LINE"
);
},
{
closed = 1;
nodes = (
"292 -228 LINE",
"313 -233 OFFCURVE",
"348 -240 OFFCURVE",
"380 -240 CURVE SMOOTH",
"504 -240 OFFCURVE",
"572 -172 OFFCURVE",
"572 -60 CURVE SMOOTH",
"572 572 LINE",
"480 572 LINE",
"480 -68 LINE SMOOTH",
"480 -127 OFFCURVE",
"444 -160 OFFCURVE",
"376 -160 CURVE SMOOTH",
"352 -160 OFFCURVE",
"314 -157 OFFCURVE",
"300 -152 CURVE",
"292 -152 LINE"
);
}
);
width = 668;
}
);
leftKerningGroup = b.sc;
leftMetricsKey = n.sc;
note = eng.sc;
rightMetricsKey = n.sc;
},
{
glyphname = o.sc;
lastChange = "2020-07-10 12:18:08 +0000";
layers = (
{
anchors = (
{
name = bottom;
position = "{368, 0}";
},
{
name = center;
position = "{368, 286}";
},
{
name = ogonek;
position = "{478, 0}";
},
{
name = top;
position = "{368, 572}";
},
{
name = topleft;
position = "{20, 572}";
},
{
name = topright;
position = "{472, 572}";
}
);
color = 4;
layerId = "F2028F70-0529-41D4-9F63-024EA79743CD";
paths = (
{
closed = 1;
nodes = (
"584 -12 OFFCURVE",
"704 108 OFFCURVE",
"704 286 CURVE SMOOTH",
"704 464 OFFCURVE",
"584 584 OFFCURVE",
"368 584 CURVE SMOOTH",
"152 584 OFFCURVE",
"32 464 OFFCURVE",
"32 286 CURVE SMOOTH",
"32 108 OFFCURVE",
"152 -12 OFFCURVE",
"368 -12 CURVE SMOOTH"
);
},
{
closed = 1;
nodes = (
"272 148 OFFCURVE",
"244 218 OFFCURVE",
"244 286 CURVE SMOOTH",
"244 354 OFFCURVE",
"272 424 OFFCURVE",
"368 424 CURVE SMOOTH",
"464 424 OFFCURVE",
"492 354 OFFCURVE",
"492 286 CURVE SMOOTH",
"492 218 OFFCURVE",
"464 148 OFFCURVE",
"368 148 CURVE SMOOTH"
);
}
);
width = 736;
},
{
anchors = (
{
name = bottom;
position = "{344, 0}";
},
{
name = center;
position = "{344, 286}";
},
{
name = ogonek;
position = "{437, 0}";
},
{
name = top;
position = "{344, 572}";
},
{
name = topleft;
position = "{20, 572}";
},
{
name = topright;
position = "{432, 572}";
}
);
color = 4;
layerId = "3E005A84-7828-4122-B6E8-61930BD9836F";
paths = (
{
closed = 1;
nodes = (
"528 -12 OFFCURVE",
"636 110 OFFCURVE",
"636 286 CURVE SMOOTH",
"636 462 OFFCURVE",
"528 584 OFFCURVE",
"344 584 CURVE SMOOTH",
"160 584 OFFCURVE",
"52 462 OFFCURVE",
"52 286 CURVE SMOOTH",
"52 110 OFFCURVE",
"160 -12 OFFCURVE",
"344 -12 CURVE SMOOTH"
);
},
{
closed = 1;
nodes = (
"220 68 OFFCURVE",
"148 150 OFFCURVE",
"148 286 CURVE SMOOTH",
"148 422 OFFCURVE",
"220 504 OFFCURVE",
"344 504 CURVE SMOOTH",
"468 504 OFFCURVE",
"540 422 OFFCURVE",
"540 286 CURVE SMOOTH",
"540 150 OFFCURVE",
"468 68 OFFCURVE",
"344 68 CURVE SMOOTH"
);
}
);
width = 688;
}
);
leftKerningGroup = c.sc;
note = o.sc;
rightKerningGroup = d.sc;
},
{
glyphname = oe.sc;
lastChange = "2020-07-10 12:18:08 +0000";
layers = (
{
anchors = (
{
name = bottom;
position = "{498, 0}";
},
{
name = top;
position = "{498, 572}";
}
);
color = 4;
components = (
{
alignment = -1;
name = o.sc;
}
);
layerId = "F2028F70-0529-41D4-9F63-024EA79743CD";
paths = (
{
closed = 1;
nodes = (
"952 0 LINE",
"952 160 LINE",
"628 160 LINE",
"450 0 LINE"
);
},
{
closed = 1;
nodes = (
"904 208 LINE",
"904 356 LINE",
"628 356 LINE",
"628 208 LINE"
);
},
{
closed = 1;
nodes = (
"948 412 LINE",
"948 572 LINE",
"450 572 LINE",
"628 412 LINE"
);
}
);
width = 996;
},
{
anchors = (
{
name = bottom;
position = "{466, 0}";
},
{
name = top;
position = "{466, 572}";
}
);
color = 4;
components = (
{
alignment = -1;
name = o.sc;
}
);
layerId = "3E005A84-7828-4122-B6E8-61930BD9836F";
paths = (
{
closed = 1;
nodes = (
"880 0 LINE",
"880 80 LINE",
"552 80 LINE",
"396 0 LINE"
);
},
{
closed = 1;
nodes = (
"824 260 LINE",
"824 336 LINE",
"572 336 LINE",
"572 260 LINE"
);
},
{
closed = 1;
nodes = (
"872 492 LINE",
"872 572 LINE",
"396 572 LINE",
"552 492 LINE"
);
}
);
width = 932;
}
);
leftKerningGroup = c.sc;
leftMetricsKey = o.sc;
note = oe.sc;
rightKerningGroup = e.sc;
rightMetricsKey = e.sc;
},
{
glyphname = p.sc;
lastChange = "2020-07-10 12:18:08 +0000";
layers = (
{
anchors = (
{
name = bottom;
position = "{320, 0}";
},
{
name = top;
position = "{320, 572}";
}
);
color = 4;
layerId = "F2028F70-0529-41D4-9F63-024EA79743CD";
paths = (
{
closed = 1;
nodes = (
"64 0 LINE",
"272 0 LINE",
"272 108 LINE",
"328 108 LINE SMOOTH",
"511 108 OFFCURVE",
"620 202 OFFCURVE",
"620 356 CURVE SMOOTH",
"620 483 OFFCURVE",
"529 572 OFFCURVE",
"332 572 CURVE SMOOTH",
"64 572 LINE"
);
},
{
closed = 1;
nodes = (
"344 412 LINE SMOOTH",
"386 412 OFFCURVE",
"412 388 OFFCURVE",
"412 348 CURVE SMOOTH",
"412 302 OFFCURVE",
"392 260 OFFCURVE",
"320 260 CURVE SMOOTH",
"272 260 LINE",
"272 412 LINE"
);
}
);
width = 640;
},
{
anchors = (
{
name = bottom;
position = "{284, 0}";
},
{
name = top;
position = "{284, 572}";
}
);
color = 4;
layerId = "3E005A84-7828-4122-B6E8-61930BD9836F";
paths = (
{
closed = 1;
nodes = (
"96 0 LINE",
"188 0 LINE",
"188 180 LINE",
"284 180 LINE SMOOTH",
"451 180 OFFCURVE",
"524 285 OFFCURVE",
"524 396 CURVE SMOOTH",
"524 509 OFFCURVE",
"442 572 OFFCURVE",
"320 572 CURVE SMOOTH",
"96 572 LINE"
);
},
{
closed = 1;
nodes = (
"316 492 LINE SMOOTH",
"383 492 OFFCURVE",
"428 465 OFFCURVE",
"428 396 CURVE SMOOTH",
"428 318 OFFCURVE",
"385 256 OFFCURVE",
"284 256 CURVE SMOOTH",
"188 256 LINE",
"188 492 LINE"
);
}
);
width = 568;
}
);
leftKerningGroup = b.sc;
note = p.sc;
rightKerningGroup = p.sc;
},
{
glyphname = thorn.sc;
lastChange = "2020-07-10 12:18:08 +0000";
layers = (
{
color = 4;
layerId = "F2028F70-0529-41D4-9F63-024EA79743CD";
paths = (
{
closed = 1;
nodes = (
"64 0 LINE",
"272 0 LINE",
"272 52 LINE",
"328 52 LINE SMOOTH",
"511 52 OFFCURVE",
"620 146 OFFCURVE",
"620 300 CURVE SMOOTH",
"620 427 OFFCURVE",
"529 516 OFFCURVE",
"332 516 CURVE SMOOTH",
"272 516 LINE",
"272 572 LINE",
"64 572 LINE"
);
},
{
closed = 1;
nodes = (
"344 356 LINE SMOOTH",
"386 356 OFFCURVE",
"412 332 OFFCURVE",
"412 292 CURVE SMOOTH",
"412 246 OFFCURVE",
"392 204 OFFCURVE",
"320 204 CURVE SMOOTH",
"272 204 LINE",
"272 356 LINE"
);
}
);
width = 640;
},
{
color = 4;
layerId = "3E005A84-7828-4122-B6E8-61930BD9836F";
paths = (
{
closed = 1;
nodes = (
"96 0 LINE",
"188 0 LINE",
"188 92 LINE",
"284 92 LINE SMOOTH",
"451 92 OFFCURVE",
"524 197 OFFCURVE",
"524 308 CURVE SMOOTH",
"524 421 OFFCURVE",
"442 484 OFFCURVE",
"320 484 CURVE SMOOTH",
"188 484 LINE",
"188 572 LINE",
"96 572 LINE"
);
},
{
closed = 1;
nodes = (
"316 404 LINE SMOOTH",
"383 404 OFFCURVE",
"428 377 OFFCURVE",
"428 308 CURVE SMOOTH",
"428 230 OFFCURVE",
"385 168 OFFCURVE",
"284 168 CURVE SMOOTH",
"188 168 LINE",
"188 404 LINE"
);
}
);
width = 568;
}
);
leftKerningGroup = b.sc;
note = thorn.sc;
rightKerningGroup = thorn.sc;
},
{
glyphname = q.sc;
lastChange = "2020-07-10 12:18:08 +0000";
layers = (
{
anchors = (
{
name = bottom;
position = "{368, 0}";
},
{
name = top;
position = "{368, 572}";
}
);
color = 4;
components = (
{
name = o.sc;
}
);
layerId = "F2028F70-0529-41D4-9F63-024EA79743CD";
paths = (
{
closed = 1;
nodes = (
"275 47 LINE",
"468 -127 LINE",
"699 -127 LINE",
"699 -117 LINE",
"508 58 LINE"
);
}
);
width = 736;
},
{
anchors = (
{
name = bottom;
position = "{344, 0}";
},
{
name = top;
position = "{344, 572}";
}
);
color = 4;
components = (
{
name = o.sc;
}
);
layerId = "3E005A84-7828-4122-B6E8-61930BD9836F";
paths = (
{
closed = 1;
nodes = (
"334 45 LINE",
"544 -128 LINE",
"664 -128 LINE",
"664 -120 LINE",
"456 48 LINE"
);
}
);
width = 688;
}
);
leftKerningGroup = c.sc;
note = q.sc;
rightKerningGroup = d.sc;
},
{
glyphname = r.sc;
lastChange = "2020-07-10 12:18:08 +0000";
layers = (
{
anchors = (
{
name = bottom;
position = "{336, 0}";
},
{
name = top;
position = "{336, 572}";
}
);
color = 4;
layerId = "F2028F70-0529-41D4-9F63-024EA79743CD";
paths = (
{
closed = 1;
nodes = (
"272 0 LINE",
"272 108 LINE",
"336 108 LINE SMOOTH",
"492 108 OFFCURVE",
"628 204 OFFCURVE",
"628 356 CURVE SMOOTH",
"628 483 OFFCURVE",
"542 572 OFFCURVE",
"352 572 CURVE SMOOTH",
"64 572 LINE",
"64 0 LINE"
);
},
{
closed = 1;
nodes = (
"632 0 LINE",
"632 12 LINE",
"475 203 LINE",
"280 180 LINE",
"400 0 LINE"
);
},
{
closed = 1;
nodes = (
"272 412 LINE",
"340 412 LINE SMOOTH",
"388 412 OFFCURVE",
"420 392 OFFCURVE",
"420 348 CURVE SMOOTH",
"420 301 OFFCURVE",
"395 256 OFFCURVE",
"316 256 CURVE SMOOTH",
"272 256 LINE"
);
}
);
width = 672;
},
{
anchors = (
{
name = bottom;
position = "{302, 0}";
},
{
name = top;
position = "{302, 572}";
}
);
color = 4;
layerId = "3E005A84-7828-4122-B6E8-61930BD9836F";
paths = (
{
closed = 1;
nodes = (
"188 0 LINE",
"188 164 LINE",
"292 164 LINE SMOOTH",
"436 164 OFFCURVE",
"532 260 OFFCURVE",
"532 388 CURVE SMOOTH",
"532 504 OFFCURVE",
"454 572 OFFCURVE",
"324 572 CURVE SMOOTH",
"96 572 LINE",
"96 0 LINE"
);
},
{
closed = 1;
nodes = (
"568 0 LINE",
"568 4 LINE",
"391 212 LINE",
"294 195 LINE",
"456 0 LINE"
);
},
{
closed = 1;
nodes = (
"188 492 LINE",
"320 492 LINE SMOOTH",
"390 492 OFFCURVE",
"436 460 OFFCURVE",
"436 388 CURVE SMOOTH",
"436 313 OFFCURVE",
"391 244 OFFCURVE",
"296 244 CURVE SMOOTH",
"188 244 LINE"
);
}
);
width = 604;
}
);
leftKerningGroup = b.sc;
note = r.sc;
rightKerningGroup = r.sc;
},
{
glyphname = s.sc;
lastChange = "2020-07-10 12:18:08 +0000";
layers = (
{
anchors = (
{
name = bottom;
position = "{294, 0}";
},
{
name = top;
position = "{294, 572}";
}
);
color = 4;
layerId = "F2028F70-0529-41D4-9F63-024EA79743CD";
paths = (
{
closed = 1;
nodes = (
"48 24 LINE",
"96 4 OFFCURVE",
"184 -12 OFFCURVE",
"264 -12 CURVE SMOOTH",
"421 -12 OFFCURVE",
"564 29 OFFCURVE",
"564 170 CURVE SMOOTH",
"564 294 OFFCURVE",
"460 336 OFFCURVE",
"348 348 CURVE SMOOTH",
"312 352 LINE SMOOTH",
"246 359 OFFCURVE",
"232 370 OFFCURVE",
"232 392 CURVE SMOOTH",
"232 418 OFFCURVE",
"253 432 OFFCURVE",
"332 432 CURVE SMOOTH",
"404 432 OFFCURVE",
"468 420 OFFCURVE",
"512 400 CURVE",
"524 400 LINE",
"524 556 LINE",
"484 571 OFFCURVE",
"417 584 OFFCURVE",
"340 584 CURVE SMOOTH",
"108 584 OFFCURVE",
"28 504 OFFCURVE",
"28 380 CURVE SMOOTH",
"28 280 OFFCURVE",
"89 215 OFFCURVE",
"252 200 CURVE SMOOTH",
"296 196 LINE SMOOTH",
"349 191 OFFCURVE",
"356 182 OFFCURVE",
"356 168 CURVE SMOOTH",
"356 150 OFFCURVE",
"336 140 OFFCURVE",
"264 140 CURVE SMOOTH",
"188 140 OFFCURVE",
"104 160 OFFCURVE",
"60 184 CURVE",
"48 184 LINE"
);
}
);
width = 588;
},
{
anchors = (
{
name = bottom;
position = "{272, 0}";
},
{
name = top;
position = "{272, 572}";
}
);
color = 4;
layerId = "3E005A84-7828-4122-B6E8-61930BD9836F";
paths = (
{
closed = 1;
nodes = (
"72 20 LINE",
"116 4 OFFCURVE",
"180 -12 OFFCURVE",
"252 -12 CURVE SMOOTH",
"388 -12 OFFCURVE",
"484 39 OFFCURVE",
"484 148 CURVE SMOOTH",
"484 240 OFFCURVE",
"421 281 OFFCURVE",
"332 296 CURVE SMOOTH",
"260 308 LINE SMOOTH",
"194 319 OFFCURVE",
"156 340 OFFCURVE",
"156 400 CURVE SMOOTH",
"156 472 OFFCURVE",
"220 500 OFFCURVE",
"320 500 CURVE SMOOTH",
"380 500 OFFCURVE",
"428 484 OFFCURVE",
"452 472 CURVE",
"460 472 LINE",
"460 556 LINE",
"429 569 OFFCURVE",
"376 580 OFFCURVE",
"320 580 CURVE SMOOTH",
"164 580 OFFCURVE",
"64 520 OFFCURVE",
"64 396 CURVE SMOOTH",
"64 292 OFFCURVE",
"136 243 OFFCURVE",
"228 228 CURVE SMOOTH",
"300 216 LINE SMOOTH",
"362 206 OFFCURVE",
"392 188 OFFCURVE",
"392 144 CURVE SMOOTH",
"392 88 OFFCURVE",
"332 72 OFFCURVE",
"252 72 CURVE SMOOTH",
"180 72 OFFCURVE",
"124 88 OFFCURVE",
"80 108 CURVE",
"72 108 LINE"
);
}
);
width = 544;
}
);
leftKerningGroup = s.sc;
note = s.sc;
rightKerningGroup = s.sc;
},
{
glyphname = germandbls.sc;
lastChange = "2020-07-10 12:18:08 +0000";
layers = (
{
color = 4;
layerId = "F2028F70-0529-41D4-9F63-024EA79743CD";
rightMetricsKey = "=b.sc-24";
paths = (
{
closed = 1;
nodes = (
"64 0 LINE",
"268 0 LINE",
"268 572 LINE",
"64 572 LINE"
);
},
{
closed = 1;
nodes = (
"588 -12 OFFCURVE",
"664 69 OFFCURVE",
"664 180 CURVE SMOOTH",
"664 264 OFFCURVE",
"600 340 OFFCURVE",
"468 356 CURVE",
"480 268 LINE",
"560 416 LINE SMOOTH",
"582 456 OFFCURVE",
"604 490 OFFCURVE",
"604 520 CURVE SMOOTH",
"604 544 OFFCURVE",
"596 556 OFFCURVE",
"592 564 CURVE",
"584 572 LINE",
"180 572 LINE",
"180 424 LINE",
"445 424 LINE",
"415 486 LINE",
"326 292 LINE",
"358 232 LINE",
"400 232 LINE SMOOTH",
"452 232 OFFCURVE",
"476 216 OFFCURVE",
"476 184 CURVE SMOOTH",
"476 144 OFFCURVE",
"444 128 OFFCURVE",
"406 128 CURVE SMOOTH",
"376 128 OFFCURVE",
"341 134 OFFCURVE",
"324 144 CURVE",
"312 144 LINE",
"312 4 LINE",
"336 -4 OFFCURVE",
"372 -12 OFFCURVE",
"420 -12 CURVE SMOOTH"
);
}
);
width = 676;
},
{
color = 4;
layerId = "3E005A84-7828-4122-B6E8-61930BD9836F";
rightMetricsKey = "=b.sc-16";
paths = (
{
closed = 1;
nodes = (
"96 0 LINE",
"188 0 LINE",
"188 572 LINE",
"96 572 LINE"
);
},
{
closed = 1;
nodes = (
"484 -12 OFFCURVE",
"576 50 OFFCURVE",
"576 168 CURVE SMOOTH",
"576 270 OFFCURVE",
"500 323 OFFCURVE",
"388 326 CURVE",
"395 297 LINE",
"496 460 LINE SMOOTH",
"513 487 OFFCURVE",
"532 510 OFFCURVE",
"532 536 CURVE SMOOTH",
"532 543 OFFCURVE",
"530 556 OFFCURVE",
"528 564 CURVE",
"516 572 LINE",
"136 572 LINE",
"136 492 LINE",
"455 492 LINE",
"443 528 LINE",
"302 294 LINE",
"322 258 LINE",
"374 258 LINE SMOOTH",
"441 258 OFFCURVE",
"488 227 OFFCURVE",
"488 168 CURVE SMOOTH",
"488 109 OFFCURVE",
"456 68 OFFCURVE",
"352 68 CURVE SMOOTH",
"304 68 OFFCURVE",
"283 75 OFFCURVE",
"260 86 CURVE",
"248 86 LINE",
"248 2 LINE",
"280 -8 OFFCURVE",
"308 -12 OFFCURVE",
"352 -12 CURVE SMOOTH"
);
}
);
width = 616;
}
);
leftKerningGroup = s.sc;
leftMetricsKey = h.sc;
note = germandbls.sc;
rightKerningGroup = s.sc;
rightMetricsKey = b.sc;
},
{
glyphname = t.sc;
lastChange = "2020-07-10 12:18:08 +0000";
layers = (
{
anchors = (
{
name = bottom;
position = "{296, 0}";
},
{
name = center;
position = "{296, 286}";
},
{
name = top;
position = "{296, 572}";
}
);
color = 4;
layerId = "F2028F70-0529-41D4-9F63-024EA79743CD";
paths = (
{
closed = 1;
nodes = (
"24 412 LINE",
"192 412 LINE",
"192 0 LINE",
"400 0 LINE",
"400 412 LINE",
"568 412 LINE",
"568 572 LINE",
"24 572 LINE"
);
}
);
width = 592;
},
{
anchors = (
{
name = bottom;
position = "{258, 0}";
},
{
name = center;
position = "{258, 286}";
},
{
name = top;
position = "{258, 572}";
}
);
color = 4;
layerId = "3E005A84-7828-4122-B6E8-61930BD9836F";
paths = (
{
closed = 1;
nodes = (
"16 492 LINE",
"212 492 LINE",
"212 0 LINE",
"304 0 LINE",
"304 492 LINE",
"500 492 LINE",
"500 572 LINE",
"16 572 LINE"
);
}
);
width = 516;
}
);
leftKerningGroup = t.sc;
note = t.sc;
rightKerningGroup = t.sc;
},
{
glyphname = tbar.sc;
lastChange = "2020-07-10 12:18:08 +0000";
layers = (
{
color = 4;
components = (
{
name = t.sc;
}
);
layerId = "F2028F70-0529-41D4-9F63-024EA79743CD";
paths = (
{
closed = 1;
nodes = (
"516 192 LINE",
"516 312 LINE",
"76 312 LINE",
"76 192 LINE"
);
}
);
width = 592;
},
{
color = 4;
components = (
{
name = t.sc;
}
);
layerId = "3E005A84-7828-4122-B6E8-61930BD9836F";
paths = (
{
closed = 1;
nodes = (
"448 248 LINE",
"448 320 LINE",
"68 320 LINE",
"68 248 LINE"
);
}
);
width = 516;
}
);
leftKerningGroup = t.sc;
note = tbar.sc;
rightKerningGroup = t.sc;
},
{
glyphname = u.sc;
lastChange = "2020-07-10 12:18:08 +0000";
layers = (
{
anchors = (
{
name = bottom;
position = "{344, 0}";
},
{
name = ogonek;
position = "{453, 0}";
},
{
name = top;
position = "{344, 572}";
},
{
name = topright;
position = "{564, 572}";
}
);
color = 4;
layerId = "F2028F70-0529-41D4-9F63-024EA79743CD";
paths = (
{
closed = 1;
nodes = (
"56 252 LINE SMOOTH",
"56 82 OFFCURVE",
"131 -12 OFFCURVE",
"340 -12 CURVE SMOOTH",
"546 -12 OFFCURVE",
"632 82 OFFCURVE",
"632 252 CURVE SMOOTH",
"632 572 LINE",
"424 572 LINE",
"424 244 LINE SMOOTH",
"424 190 OFFCURVE",
"405 148 OFFCURVE",
"340 148 CURVE SMOOTH",
"275 148 OFFCURVE",
"264 190 OFFCURVE",
"264 244 CURVE SMOOTH",
"264 572 LINE",
"56 572 LINE"
);
}
);
width = 688;
},
{
anchors = (
{
name = bottom;
position = "{316, 0}";
},
{
name = ogonek;
position = "{406, 0}";
},
{
name = top;
position = "{316, 572}";
},
{
name = topright;
position = "{528, 572}";
}
);
color = 4;
layerId = "3E005A84-7828-4122-B6E8-61930BD9836F";
paths = (
{
closed = 1;
nodes = (
"84 220 LINE SMOOTH",
"84 70 OFFCURVE",
"160 -12 OFFCURVE",
"316 -12 CURVE SMOOTH",
"468 -12 OFFCURVE",
"548 70 OFFCURVE",
"548 220 CURVE SMOOTH",
"548 572 LINE",
"456 572 LINE",
"456 216 LINE SMOOTH",
"456 112 OFFCURVE",
"410 72 OFFCURVE",
"316 72 CURVE SMOOTH",
"222 72 OFFCURVE",
"176 112 OFFCURVE",
"176 216 CURVE SMOOTH",
"176 572 LINE",
"84 572 LINE"
);
}
);
width = 632;
}
);
leftKerningGroup = u.sc;
note = u.sc;
rightKerningGroup = u.sc;
},
{
glyphname = v.sc;
lastChange = "2020-07-10 12:18:08 +0000";
layers = (
{
anchors = (
{
name = bottom;
position = "{318, 0}";
},
{
name = top;
position = "{318, 572}";
}
);
color = 4;
layerId = "F2028F70-0529-41D4-9F63-024EA79743CD";
paths = (
{
closed = 1;
nodes = (
"379 -4 OFFCURVE",
"508 8 OFFCURVE",
"540 180 CURVE SMOOTH",
"612 572 LINE",
"404 572 LINE",
"340 212 LINE SMOOTH",
"332 169 OFFCURVE",
"315 152 OFFCURVE",
"265 152 CURVE SMOOTH",
"238 152 OFFCURVE",
"201 157 OFFCURVE",
"151 165 CURVE",
"256 114 LINE",
"263 131 OFFCURVE",
"272 166 OFFCURVE",
"272 208 CURVE SMOOTH",
"272 572 LINE",
"64 572 LINE",
"64 148 LINE SMOOTH",
"64 116 OFFCURVE",
"60 48 OFFCURVE",
"52 20 CURVE",
"56 12 LINE",
"104 3 OFFCURVE",
"158 -4 OFFCURVE",
"212 -4 CURVE SMOOTH"
);
}
);
width = 636;
},
{
anchors = (
{
name = bottom;
position = "{298, 0}";
},
{
name = top;
position = "{298, 572}";
}
);
color = 4;
layerId = "3E005A84-7828-4122-B6E8-61930BD9836F";
paths = (
{
closed = 1;
nodes = (
"392 -8 OFFCURVE",
"455 51 OFFCURVE",
"476 184 CURVE SMOOTH",
"536 572 LINE",
"444 572 LINE",
"380 188 LINE SMOOTH",
"368 114 OFFCURVE",
"333 72 OFFCURVE",
"224 72 CURVE SMOOTH",
"199 72 OFFCURVE",
"182 75 OFFCURVE",
"165 80 CURVE",
"184 50 LINE",
"185 71 OFFCURVE",
"188 90 OFFCURVE",
"188 112 CURVE SMOOTH",
"188 572 LINE",
"96 572 LINE",
"96 140 LINE SMOOTH",
"96 108 OFFCURVE",
"97 43 OFFCURVE",
"92 12 CURVE",
"92 4 LINE",
"137 -5 OFFCURVE",
"178 -8 OFFCURVE",
"220 -8 CURVE SMOOTH"
);
}
);
width = 596;
}
);
leftKerningGroup = b.sc;
note = v.sc;
rightKerningGroup = v.sc;
},
{
glyphname = w.sc;
lastChange = "2020-07-10 12:18:08 +0000";
layers = (
{
anchors = (
{
name = bottom;
position = "{504, 0}";
},
{
name = top;
position = "{504, 572}";
}
);
color = 4;
layerId = "F2028F70-0529-41D4-9F63-024EA79743CD";
paths = (
{
closed = 1;
nodes = (
"767 -4 OFFCURVE",
"901 48 OFFCURVE",
"924 192 CURVE SMOOTH",
"984 572 LINE",
"776 572 LINE",
"724 212 LINE SMOOTH",
"718 169 OFFCURVE",
"679 151 OFFCURVE",
"611 151 CURVE SMOOTH",
"593 151 OFFCURVE",
"573 152 OFFCURVE",
"551 155 CURVE",
"641 114 LINE",
"644 139 OFFCURVE",
"644 171 OFFCURVE",
"640 224 CURVE SMOOTH",
"616 572 LINE",
"420 572 LINE",
"453 117 LINE SMOOTH",
"455 88 OFFCURVE",
"458 47 OFFCURVE",
"456 20 CURVE",
"456 12 LINE",
"504 3 OFFCURVE",
"563 -4 OFFCURVE",
"616 -4 CURVE SMOOTH"
);
},
{
closed = 1;
nodes = (
"360 -4 OFFCURVE",
"477 62 OFFCURVE",
"496 156 CURVE SMOOTH",
"537 360 LINE",
"444 492 LINE",
"392 232 LINE SMOOTH",
"379 169 OFFCURVE",
"336 152 OFFCURVE",
"272 152 CURVE SMOOTH",
"247 152 OFFCURVE",
"215 157 OFFCURVE",
"174 169 CURVE",
"277 116 LINE",
"280 136 OFFCURVE",
"280 172 OFFCURVE",
"276 224 CURVE SMOOTH",
"252 572 LINE",
"44 572 LINE",
"76 148 LINE SMOOTH",
"78 116 OFFCURVE",
"84 56 OFFCURVE",
"80 20 CURVE",
"84 12 LINE",
"126 1 OFFCURVE",
"152 -4 OFFCURVE",
"220 -4 CURVE SMOOTH"
);
}
);
width = 1008;
},
{
anchors = (
{
name = bottom;
position = "{464, 0}";
},
{
name = top;
position = "{464, 572}";
}
);
color = 4;
layerId = "3E005A84-7828-4122-B6E8-61930BD9836F";
paths = (
{
closed = 1;
nodes = (
"729 -8 OFFCURVE",
"781 59 OFFCURVE",
"808 188 CURVE SMOOTH",
"888 572 LINE",
"796 572 LINE",
"716 188 LINE SMOOTH",
"700 115 OFFCURVE",
"669 72 OFFCURVE",
"588 72 CURVE SMOOTH",
"560 72 OFFCURVE",
"548 75 OFFCURVE",
"530 79 CURVE",
"548 52 LINE",
"552 82 OFFCURVE",
"551 124 OFFCURVE",
"548 152 CURVE SMOOTH",
"500 572 LINE",
"408 572 LINE",
"460 140 LINE SMOOTH",
"464 108 OFFCURVE",
"465 44 OFFCURVE",
"464 12 CURVE SMOOTH",
"464 4 LINE",
"509 -5 OFFCURVE",
"545 -8 OFFCURVE",
"588 -8 CURVE SMOOTH"
);
},
{
closed = 1;
nodes = (
"371 -8 OFFCURVE",
"414 59 OFFCURVE",
"444 184 CURVE SMOOTH",
"460 250 LINE",
"432 438 LINE",
"372 188 LINE SMOOTH",
"354 115 OFFCURVE",
"325 72 OFFCURVE",
"244 72 CURVE SMOOTH",
"216 72 OFFCURVE",
"204 75 OFFCURVE",
"186 79 CURVE",
"204 52 LINE",
"208 82 OFFCURVE",
"207 124 OFFCURVE",
"204 152 CURVE SMOOTH",
"156 572 LINE",
"60 572 LINE",
"112 140 LINE SMOOTH",
"116 108 OFFCURVE",
"118 44 OFFCURVE",
"116 12 CURVE",
"120 4 LINE",
"165 -6 OFFCURVE",
"195 -8 OFFCURVE",
"236 -8 CURVE SMOOTH"
);
}
);
width = 928;
}
);
leftKerningGroup = w.sc;
note = w.sc;
rightKerningGroup = w.sc;
},
{
glyphname = x.sc;
lastChange = "2020-07-10 12:18:08 +0000";
layers = (
{
anchors = (
{
name = bottom;
position = "{330, 0}";
},
{
name = top;
position = "{330, 572}";
}
);
color = 4;
layerId = "F2028F70-0529-41D4-9F63-024EA79743CD";
paths = (
{
closed = 1;
nodes = (
"652 0 LINE",
"652 12 LINE",
"388 364 LINE",
"236 572 LINE",
"8 572 LINE",
"8 560 LINE",
"272 208 LINE",
"424 0 LINE"
);
},
{
closed = 1;
nodes = (
"244 0 LINE",
"368 188 LINE",
"648 564 LINE",
"648 572 LINE",
"420 572 LINE",
"296 384 LINE",
"12 8 LINE",
"12 0 LINE"
);
}
);
width = 660;
},
{
anchors = (
{
name = bottom;
position = "{294, 0}";
},
{
name = top;
position = "{294, 572}";
}
);
color = 4;
layerId = "3E005A84-7828-4122-B6E8-61930BD9836F";
paths = (
{
closed = 1;
nodes = (
"556 0 LINE",
"556 8 LINE",
"338 300 LINE",
"136 572 LINE",
"32 572 LINE",
"32 564 LINE",
"250 272 LINE",
"452 0 LINE"
);
},
{
closed = 1;
nodes = (
"136 0 LINE",
"304 232 LINE",
"552 564 LINE",
"552 572 LINE",
"452 572 LINE",
"284 340 LINE",
"36 8 LINE",
"36 0 LINE"
);
}
);
width = 588;
}
);
leftKerningGroup = x.sc;
note = x.sc;
rightKerningGroup = x.sc;
},
{
glyphname = y.sc;
lastChange = "2020-07-10 12:18:08 +0000";
layers = (
{
anchors = (
{
name = bottom;
position = "{300, 0}";
},
{
name = top;
position = "{300, 572}";
},
{
name = topleft;
position = "{20, 572}";
}
);
color = 4;
layerId = "F2028F70-0529-41D4-9F63-024EA79743CD";
paths = (
{
closed = 1;
nodes = (
"192 0 LINE",
"400 0 LINE",
"400 231 LINE",
"600 560 LINE",
"600 572 LINE",
"384 572 LINE",
"269 324 LINE",
"345 325 LINE",
"216 572 LINE",
"0 572 LINE",
"0 560 LINE",
"192 235 LINE"
);
}
);
width = 600;
},
{
anchors = (
{
name = bottom;
position = "{264, 0}";
},
{
name = top;
position = "{264, 572}";
},
{
name = topleft;
position = "{20, 572}";
}
);
color = 4;
layerId = "3E005A84-7828-4122-B6E8-61930BD9836F";
paths = (
{
closed = 1;
nodes = (
"220 0 LINE",
"312 0 LINE",
"312 237 LINE",
"524 564 LINE",
"524 572 LINE",
"426 572 LINE",
"254 288 LINE",
"288 284 LINE",
"108 572 LINE",
"4 572 LINE",
"4 564 LINE",
"220 231 LINE"
);
}
);
width = 528;
}
);
leftKerningGroup = y.sc;
note = y.sc;
rightKerningGroup = y.sc;
},
{
glyphname = z.sc;
lastChange = "2020-07-10 12:18:08 +0000";
layers = (
{
anchors = (
{
name = bottom;
position = "{303, 0}";
},
{
name = top;
position = "{303, 572}";
}
);
color = 4;
layerId = "F2028F70-0529-41D4-9F63-024EA79743CD";
paths = (
{
closed = 1;
nodes = (
"569 0 LINE",
"569 160 LINE",
"227 160 LINE",
"258 93 LINE",
"537 432 LINE SMOOTH",
"559 458 OFFCURVE",
"573 486 OFFCURVE",
"573 524 CURVE SMOOTH",
"573 533 OFFCURVE",
"568 550 OFFCURVE",
"565 560 CURVE",
"553 572 LINE",
"49 572 LINE",
"49 412 LINE",
"379 412 LINE",
"348 479 LINE",
"69 140 LINE SMOOTH",
"47 113 OFFCURVE",
"31 85 OFFCURVE",
"33 48 CURVE",
"34 38 OFFCURVE",
"37 21 OFFCURVE",
"41 8 CURVE",
"53 0 LINE"
);
}
);
width = 605;
},
{
anchors = (
{
name = bottom;
position = "{269, 0}";
},
{
name = top;
position = "{269, 572}";
}
);
color = 4;
layerId = "3E005A84-7828-4122-B6E8-61930BD9836F";
paths = (
{
closed = 1;
nodes = (
"490 0 LINE",
"490 80 LINE",
"138 80 LINE",
"155 49 LINE",
"458 492 LINE SMOOTH",
"471 511 OFFCURVE",
"475 526 OFFCURVE",
"478 540 CURVE SMOOTH",
"480 550 OFFCURVE",
"480 557 OFFCURVE",
"478 564 CURVE",
"470 572 LINE",
"54 572 LINE",
"54 492 LINE",
"390 492 LINE",
"373 523 LINE",
"74 80 LINE SMOOTH",
"61 61 OFFCURVE",
"52 45 OFFCURVE",
"50 32 CURVE",
"48 22 OFFCURVE",
"49 15 OFFCURVE",
"50 8 CURVE",
"58 0 LINE"
);
}
);
width = 538;
}
);
leftKerningGroup = z.sc;
note = z.sc;
rightKerningGroup = z.sc;
},
{
glyphname = ordfeminine;
lastChange = "2020-07-10 12:18:08 +0000";
layers = (
{
color = 4;
layerId = "F2028F70-0529-41D4-9F63-024EA79743CD";
paths = (
{
closed = 1;
nodes = (
"311 307 OFFCURVE",
"375 318 OFFCURVE",
"421 329 CURVE",
"424 335 LINE",
"417 361 OFFCURVE",
"415 419 OFFCURVE",
"415 452 CURVE SMOOTH",
"415 544 LINE SMOOTH",
"415 688 OFFCURVE",
"328 728 OFFCURVE",
"193 728 CURVE SMOOTH",
"139 728 OFFCURVE",
"95 722 OFFCURVE",
"60 715 CURVE",
"60 593 LINE",
"70 593 LINE",
"93 603 OFFCURVE",
"130 609 OFFCURVE",
"175 609 CURVE SMOOTH",
"227 609 OFFCURVE",
"255 599 OFFCURVE",
"255 558 CURVE",
"242 559 OFFCURVE",
"224 561 OFFCURVE",
"205 561 CURVE SMOOTH",
"106 561 OFFCURVE",
"29 527 OFFCURVE",
"29 435 CURVE SMOOTH",
"29 338 OFFCURVE",
"101 307 OFFCURVE",
"238 307 CURVE SMOOTH"
);
},
{
closed = 1;
nodes = (
"197 409 OFFCURVE",
"179 416 OFFCURVE",
"179 439 CURVE SMOOTH",
"179 461 OFFCURVE",
"193 472 OFFCURVE",
"229 472 CURVE SMOOTH",
"242 472 OFFCURVE",
"250 472 OFFCURVE",
"255 471 CURVE",
"256 447 OFFCURVE",
"260 427 OFFCURVE",
"264 413 CURVE",
"253 410 OFFCURVE",
"239 409 OFFCURVE",
"227 409 CURVE SMOOTH"
);
},
{
closed = 1;
nodes = (
"42 140 LINE",
"418 140 LINE",
"418 254 LINE",
"42 254 LINE"
);
}
);
width = 463;
},
{
color = 4;
layerId = "3E005A84-7828-4122-B6E8-61930BD9836F";
paths = (
{
closed = 1;
nodes = (
"275 312 OFFCURVE",
"345 323 OFFCURVE",
"393 340 CURVE",
"394 346 LINE",
"388 372 OFFCURVE",
"388 435 OFFCURVE",
"388 464 CURVE SMOOTH",
"388 560 LINE SMOOTH",
"388 699 OFFCURVE",
"310 727 OFFCURVE",
"207 727 CURVE SMOOTH",
"166 727 OFFCURVE",
"120 720 OFFCURVE",
"85 707 CURVE",
"85 637 LINE",
"92 637 LINE",
"115 648 OFFCURVE",
"157 659 OFFCURVE",
"197 659 CURVE SMOOTH",
"281 659 OFFCURVE",
"305 635 OFFCURVE",
"305 552 CURVE",
"289 557 OFFCURVE",
"257 563 OFFCURVE",
"221 563 CURVE SMOOTH",
"118 563 OFFCURVE",
"50 524 OFFCURVE",
"50 437 CURVE SMOOTH",
"50 351 OFFCURVE",
"109 312 OFFCURVE",
"227 312 CURVE SMOOTH"
);
},
{
closed = 1;
nodes = (
"164 375 OFFCURVE",
"130 393 OFFCURVE",
"130 438 CURVE SMOOTH",
"130 486 OFFCURVE",
"163 502 OFFCURVE",
"235 502 CURVE SMOOTH",
"262 502 OFFCURVE",
"287 497 OFFCURVE",
"305 493 CURVE",
"305 425 OFFCURVE",
"305 404 OFFCURVE",
"309 386 CURVE",
"284 379 OFFCURVE",
"256 375 OFFCURVE",
"228 375 CURVE SMOOTH"
);
},
{
closed = 1;
nodes = (
"60 184 LINE",
"396 184 LINE",
"396 258 LINE",
"60 258 LINE"
);
}
);
width = 451;
}
);
leftKerningGroup = ordfeminine;
note = ordfeminine;
unicode = 00AA;
},
{
glyphname = ordmasculine;
lastChange = "2020-07-10 12:18:08 +0000";
layers = (
{
color = 4;
layerId = "F2028F70-0529-41D4-9F63-024EA79743CD";
paths = (
{
closed = 1;
nodes = (
"27 369 OFFCURVE",
"120 307 OFFCURVE",
"248 307 CURVE SMOOTH",
"377 307 OFFCURVE",
"469 369 OFFCURVE",
"469 517 CURVE SMOOTH",
"469 665 OFFCURVE",
"377 728 OFFCURVE",
"248 728 CURVE SMOOTH",
"120 728 OFFCURVE",
"27 665 OFFCURVE",
"27 517 CURVE SMOOTH"
);
},
{
closed = 1;
nodes = (
"198 580 OFFCURVE",
"211 613 OFFCURVE",
"248 613 CURVE SMOOTH",
"285 613 OFFCURVE",
"298 580 OFFCURVE",
"298 517 CURVE SMOOTH",
"298 454 OFFCURVE",
"285 421 OFFCURVE",
"248 421 CURVE SMOOTH",
"211 421 OFFCURVE",
"198 454 OFFCURVE",
"198 517 CURVE SMOOTH"
);
},
{
closed = 1;
nodes = (
"48 140 LINE",
"448 140 LINE",
"448 254 LINE",
"48 254 LINE"
);
}
);
width = 496;
},
{
color = 4;
layerId = "3E005A84-7828-4122-B6E8-61930BD9836F";
paths = (
{
closed = 1;
nodes = (
"38 387 OFFCURVE",
"113 313 OFFCURVE",
"227 313 CURVE SMOOTH",
"339 313 OFFCURVE",
"416 387 OFFCURVE",
"416 520 CURVE SMOOTH",
"416 653 OFFCURVE",
"339 727 OFFCURVE",
"227 727 CURVE SMOOTH",
"116 727 OFFCURVE",
"38 653 OFFCURVE",
"38 520 CURVE SMOOTH"
);
},
{
closed = 1;
nodes = (
"124 612 OFFCURVE",
"161 658 OFFCURVE",
"227 658 CURVE SMOOTH",
"294 658 OFFCURVE",
"330 612 OFFCURVE",
"330 520 CURVE SMOOTH",
"330 428 OFFCURVE",
"294 382 OFFCURVE",
"227 382 CURVE SMOOTH",
"161 382 OFFCURVE",
"124 428 OFFCURVE",
"124 520 CURVE SMOOTH"
);
},
{
closed = 1;
nodes = (
"59 192 LINE",
"395 192 LINE",
"395 266 LINE",
"59 266 LINE"
);
}
);
width = 455;
}
);
leftKerningGroup = ordfeminine;
note = ordmasculine;
unicode = 00BA;
},
{
glyphname = a.dnom;
lastChange = "2021-03-16 09:21:06 +0000";
layers = (
{
background = {
paths = (
{
closed = 1;
nodes = (
"311 -9 OFFCURVE",
"375 2 OFFCURVE",
"421 13 CURVE",
"424 19 LINE",
"417 45 OFFCURVE",
"415 103 OFFCURVE",
"415 136 CURVE SMOOTH",
"415 228 LINE SMOOTH",
"415 372 OFFCURVE",
"328 412 OFFCURVE",
"193 412 CURVE SMOOTH",
"139 412 OFFCURVE",
"95 406 OFFCURVE",
"60 399 CURVE",
"60 277 LINE",
"70 277 LINE",
"93 287 OFFCURVE",
"130 293 OFFCURVE",
"175 293 CURVE SMOOTH",
"227 293 OFFCURVE",
"255 283 OFFCURVE",
"255 242 CURVE",
"242 243 OFFCURVE",
"224 245 OFFCURVE",
"205 245 CURVE SMOOTH",
"106 245 OFFCURVE",
"29 211 OFFCURVE",
"29 119 CURVE SMOOTH",
"29 22 OFFCURVE",
"101 -9 OFFCURVE",
"238 -9 CURVE SMOOTH"
);
},
{
closed = 1;
nodes = (
"197 93 OFFCURVE",
"179 100 OFFCURVE",
"179 123 CURVE SMOOTH",
"179 145 OFFCURVE",
"193 156 OFFCURVE",
"229 156 CURVE SMOOTH",
"242 156 OFFCURVE",
"250 156 OFFCURVE",
"255 155 CURVE",
"256 131 OFFCURVE",
"260 111 OFFCURVE",
"264 97 CURVE",
"253 94 OFFCURVE",
"239 93 OFFCURVE",
"227 93 CURVE SMOOTH"
);
}
);
};
color = 4;
layerId = "F2028F70-0529-41D4-9F63-024EA79743CD";
paths = (
{
closed = 1;
nodes = (
"311 -9 OFFCURVE",
"375 2 OFFCURVE",
"421 13 CURVE",
"424 19 LINE",
"417 45 OFFCURVE",
"415 103 OFFCURVE",
"415 136 CURVE SMOOTH",
"415 228 LINE SMOOTH",
"415 372 OFFCURVE",
"328 412 OFFCURVE",
"193 412 CURVE SMOOTH",
"139 412 OFFCURVE",
"95 406 OFFCURVE",
"60 399 CURVE",
"60 277 LINE",
"70 277 LINE",
"93 287 OFFCURVE",
"130 293 OFFCURVE",
"175 293 CURVE SMOOTH",
"227 293 OFFCURVE",
"255 283 OFFCURVE",
"255 242 CURVE",
"242 243 OFFCURVE",
"224 245 OFFCURVE",
"205 245 CURVE SMOOTH",
"106 245 OFFCURVE",
"29 211 OFFCURVE",
"29 119 CURVE SMOOTH",
"29 22 OFFCURVE",
"101 -9 OFFCURVE",
"238 -9 CURVE SMOOTH"
);
},
{
closed = 1;
nodes = (
"197 93 OFFCURVE",
"179 100 OFFCURVE",
"179 123 CURVE SMOOTH",
"179 145 OFFCURVE",
"193 156 OFFCURVE",
"229 156 CURVE SMOOTH",
"242 156 OFFCURVE",
"250 156 OFFCURVE",
"255 155 CURVE",
"256 131 OFFCURVE",
"260 111 OFFCURVE",
"264 97 CURVE",
"253 94 OFFCURVE",
"239 93 OFFCURVE",
"227 93 CURVE SMOOTH"
);
}
);
width = 463;
},
{
background = {
paths = (
{
closed = 1;
nodes = (
"275 -8 OFFCURVE",
"345 3 OFFCURVE",
"393 20 CURVE",
"394 26 LINE",
"388 52 OFFCURVE",
"388 115 OFFCURVE",
"388 144 CURVE SMOOTH",
"388 240 LINE SMOOTH",
"388 379 OFFCURVE",
"310 407 OFFCURVE",
"207 407 CURVE SMOOTH",
"166 407 OFFCURVE",
"120 400 OFFCURVE",
"85 387 CURVE",
"85 317 LINE",
"92 317 LINE",
"115 328 OFFCURVE",
"157 339 OFFCURVE",
"197 339 CURVE SMOOTH",
"281 339 OFFCURVE",
"305 315 OFFCURVE",
"305 232 CURVE",
"289 237 OFFCURVE",
"257 243 OFFCURVE",
"221 243 CURVE SMOOTH",
"118 243 OFFCURVE",
"50 204 OFFCURVE",
"50 117 CURVE SMOOTH",
"50 31 OFFCURVE",
"109 -8 OFFCURVE",
"227 -8 CURVE SMOOTH"
);
},
{
closed = 1;
nodes = (
"164 55 OFFCURVE",
"130 73 OFFCURVE",
"130 118 CURVE SMOOTH",
"130 166 OFFCURVE",
"163 182 OFFCURVE",
"235 182 CURVE SMOOTH",
"262 182 OFFCURVE",
"287 177 OFFCURVE",
"305 173 CURVE",
"305 105 OFFCURVE",
"305 84 OFFCURVE",
"309 66 CURVE",
"284 59 OFFCURVE",
"256 55 OFFCURVE",
"228 55 CURVE SMOOTH"
);
}
);
};
color = 4;
layerId = "3E005A84-7828-4122-B6E8-61930BD9836F";
paths = (
{
closed = 1;
nodes = (
"275 -8 OFFCURVE",
"345 3 OFFCURVE",
"393 20 CURVE",
"394 26 LINE",
"388 52 OFFCURVE",
"388 115 OFFCURVE",
"388 144 CURVE SMOOTH",
"388 240 LINE SMOOTH",
"388 379 OFFCURVE",
"310 407 OFFCURVE",
"207 407 CURVE SMOOTH",
"166 407 OFFCURVE",
"120 400 OFFCURVE",
"85 387 CURVE",
"85 317 LINE",
"92 317 LINE",
"115 328 OFFCURVE",
"157 339 OFFCURVE",
"197 339 CURVE SMOOTH",
"281 339 OFFCURVE",
"305 315 OFFCURVE",
"305 232 CURVE",
"289 237 OFFCURVE",
"257 243 OFFCURVE",
"221 243 CURVE SMOOTH",
"118 243 OFFCURVE",
"50 204 OFFCURVE",
"50 117 CURVE SMOOTH",
"50 31 OFFCURVE",
"109 -8 OFFCURVE",
"227 -8 CURVE SMOOTH"
);
},
{
closed = 1;
nodes = (
"164 55 OFFCURVE",
"130 73 OFFCURVE",
"130 118 CURVE SMOOTH",
"130 166 OFFCURVE",
"163 182 OFFCURVE",
"235 182 CURVE SMOOTH",
"262 182 OFFCURVE",
"287 177 OFFCURVE",
"305 173 CURVE",
"305 105 OFFCURVE",
"305 84 OFFCURVE",
"309 66 CURVE",
"284 59 OFFCURVE",
"256 55 OFFCURVE",
"228 55 CURVE SMOOTH"
);
}
);
width = 451;
}
);
leftMetricsKey = a.inferior;
note = a.denominator;
rightMetricsKey = a.inferior;
},
